<?xml version="1.0" encoding="UTF-8"?>
<svg width="22px" height="22px" viewBox="0 0 22 22" version="1.1" xmlns="http://www.w3.org/2000/svg" xmlns:xlink="http://www.w3.org/1999/xlink">
    <!-- Generator: Sketch 60.1 (88133) - https://sketch.com -->
    <title>编组 9</title>
    <desc>Created with Sketch.</desc>
    <g id="5-商城" stroke="none" stroke-width="1" fill="none" fill-rule="evenodd">
        <g id="2商品详情" transform="translate(-340.000000, -287.000000)">
            <g id="编组-12" transform="translate(287.000000, 287.000000)">
                <g id="编组-9" transform="translate(53.000000, 0.000000)">
                    <circle id="椭圆形" fill="#00B459" cx="11" cy="11" r="11"></circle>
                    <g id="编组" transform="translate(5.000000, 5.000000)" fill="#FFFFFF" fill-rule="nonzero">
                        <path d="M11.3497778,5.34977782 L6.65022218,5.34977782 L6.65022218,0.650222179 C6.65022218,0.291103141 6.35911904,0 6,0 C5.64089627,0 5.34977782,0.291103141 5.34977782,0.650222179 L5.34977782,5.34977782 L0.650222179,5.34977782 C0.291103141,5.34977782 0,5.64088096 0,6 C0,6.35910373 0.291103141,6.65022218 0.650222179,6.65022218 L5.34977782,6.65022218 L5.34977782,11.3497778 C5.34977782,11.7088816 5.64088096,12 6,12 C6.35910373,12 6.65022218,11.7088816 6.65022218,11.3497778 L6.65022218,6.65022218 L11.3497778,6.65022218 C11.7088816,6.65022218 12,6.35911904 12,6 C12,5.64089627 11.7088662,5.34977782 11.3497625,5.34977782 L11.3497778,5.34977782 Z" id="路径"></path>
                    </g>
                </g>
            </g>
        </g>
    </g>
</svg>