<?xml version="1.0" encoding="UTF-8"?>
<svg width="10px" height="18px" viewBox="0 0 10 18" version="1.1" xmlns="http://www.w3.org/2000/svg" xmlns:xlink="http://www.w3.org/1999/xlink">
    <!-- Generator: Sketch 60.1 (88133) - https://sketch.com -->
    <title>路径</title>
    <desc>Created with Sketch.</desc>
    <g id="4-农场" stroke="none" stroke-width="1" fill="none" fill-rule="evenodd">
        <g id="6农场-详情页" transform="translate(-24.000000, -39.000000)" fill="#FFFFFF" fill-rule="nonzero">
            <g id="位图" transform="translate(0.000000, 20.000000)">
                <g id="编组-19" transform="translate(13.000000, 12.000000)">
                    <g id="编组" transform="translate(11.000000, 7.000000)">
                        <path d="M1.55933036,9.04379464 L9.44879464,1.09988839 C9.61064074,0.936929828 9.67325534,0.70000604 9.61305213,0.478363926 C9.55284893,0.256721812 9.37897421,0.0840340824 9.1569249,0.0253505332 C8.9348756,-0.033333016 8.69838628,0.0309030425 8.53654018,0.193861607 L0.1940625,8.59379464 C-0.0560386622,8.84572142 -0.054599682,9.252683 0.197276786,9.50283482 L8.53975446,17.7884598 C8.70271303,17.9503059 8.93963682,18.0129205 9.16127894,17.9527173 C9.38292106,17.8925141 9.55560879,17.7186394 9.61429234,17.4965901 C9.67297589,17.2745408 9.60873982,17.0380515 9.44578125,16.8762054 L1.55933036,9.04379464 Z" id="路径"></path>
                    </g>
                </g>
            </g>
        </g>
    </g>
</svg>