<?xml version="1.0" encoding="UTF-8"?>
<svg width="28px" height="21px" viewBox="0 0 28 21" version="1.1" xmlns="http://www.w3.org/2000/svg" xmlns:xlink="http://www.w3.org/1999/xlink">
    <!-- Generator: Sketch 60.1 (88133) - https://sketch.com -->
    <title>形状</title>
    <desc>Created with Sketch.</desc>
    <g id="10-我的绿色种植-缺" stroke="none" stroke-width="1" fill="none" fill-rule="evenodd">
        <g id="3我的-绿色种植播种" transform="translate(-121.000000, -358.000000)" fill="#4D90EE" fill-rule="nonzero">
            <g id="编组" transform="translate(100.000000, 333.000000)">
                <g id="zhaoxiangji" transform="translate(21.000000, 25.000000)">
                    <path d="M25.7625647,3.5984375 L20.9035365,3.5984375 C19.2838604,3.5984375 18.7493673,0.3984375 17.1296912,0.3984375 L10.1164939,0.3984375 C9.03131093,0.3984375 8.49681782,3.5984375 6.87714176,3.5984375 L2.01811356,3.5984375 C1.07870145,3.5984375 0.3984375,4.2704375 0.3984375,5.1984375 L0.3984375,18.9264375 C0.3984375,19.7264375 1.07870145,20.3984375 2.01811356,20.3984375 L25.7787614,20.3984375 C26.7181736,20.3984375 27.3984375,19.7264375 27.3984375,18.7984375 L27.3984375,5.1984375 C27.3822407,4.2544375 26.7181736,3.5984375 25.7625647,3.5984375 Z M13.8903391,17.7264375 C10.246068,17.7264375 7.41163486,14.9264375 7.41163486,11.4544375 C7.41163486,7.9824375 10.246068,5.1824375 13.8903391,5.1824375 C17.5346103,5.1824375 20.3690434,7.9824375 20.3690434,11.4544375 C20.3690434,14.9264375 17.4050362,17.7264375 13.8903391,17.7264375 Z M21.7133745,6.6544375 C21.3084555,6.6544375 20.9035365,6.2544375 20.9035365,5.8544375 C20.9035365,5.4544375 21.3084555,5.0544375 21.7133745,5.0544375 C22.1182935,5.0544375 22.5232125,5.4544375 22.5232125,5.8544375 C22.5232125,6.3984375 22.1182935,6.6544375 21.7133745,6.6544375 Z M5.7919588,1.9984375 C5.7919588,1.7264375 5.51661386,1.4704375 5.25746569,1.4704375 L3.63778963,1.4704375 C3.3624447,1.4704375 3.10329653,1.7424375 3.10329653,1.9984375 L3.10329653,2.5264375 L5.7919588,2.5264375 L5.7919588,1.9984375 Z M13.8903391,6.6544375 C11.1854801,6.6544375 9.03131093,8.7824375 9.03131093,11.4544375 C9.03131093,14.1264375 11.1854801,16.2544375 13.8903391,16.2544375 C16.5951981,16.2544375 18.7493673,14.1264375 18.7493673,11.4544375 C18.7493673,8.7824375 16.5951981,6.6544375 13.8903391,6.6544375 Z" id="形状"></path>
                </g>
            </g>
        </g>
    </g>
</svg>