<?xml version="1.0" encoding="UTF-8"?>
<svg width="44px" height="44px" viewBox="0 0 44 44" version="1.1" xmlns="http://www.w3.org/2000/svg" xmlns:xlink="http://www.w3.org/1999/xlink">
    <!-- Generator: Sketch 60.1 (88133) - https://sketch.com -->
    <title>编组 12</title>
    <desc>Created with Sketch.</desc>
    <defs>
        <linearGradient x1="50%" y1="0.33519848%" x2="50%" y2="100%" id="linearGradient-1">
            <stop stop-color="#1284F1" offset="0%"></stop>
            <stop stop-color="#A3E5FE" offset="100%"></stop>
        </linearGradient>
    </defs>
    <g id="7-我的" stroke="none" stroke-width="1" fill="none" fill-rule="evenodd">
        <g id="我的-首页" transform="translate(-120.000000, -345.000000)">
            <g id="编组-4" transform="translate(0.000000, 272.000000)">
                <g id="编组-12" transform="translate(120.000000, 73.000000)">
                    <rect id="矩形备份-5" fill="url(#linearGradient-1)" x="0" y="0" width="44" height="44" rx="5"></rect>
                    <g id="zuji" transform="translate(9.000000, 10.000000)" fill="#FFFFFF" fill-rule="nonzero">
                        <path d="M0.0770664439,22.2296708 C0.480232639,24.1199337 2.3394202,25.3254628 4.22967809,24.9222956 C6.11993599,24.5191283 7.325462,22.6599359 6.9222958,20.7696731 C6.66149302,19.5468874 5.76815462,18.5561238 4.57879254,18.1705934 C3.38943047,17.7850631 2.08473711,18.0633371 1.15617784,18.9005923 C0.227618564,19.7378476 -0.183736376,21.0068852 0.0770664439,22.2296708 L0.0770664439,22.2296708 Z" id="路径" fill-opacity="0.480578016"></path>
                        <path d="M8.05408392,18.743837 C8.27289921,19.7821414 9.13188078,20.5997996 10.3074586,20.8888078 C11.4830364,21.177816 12.7966122,20.894267 13.7533747,20.1449708 C14.7101372,19.3956747 15.1647314,18.2944674 14.9459161,17.256163 C14.7271008,16.2178587 13.8681192,15.4002004 12.6925414,15.1111922 C11.5169636,14.822184 10.2033878,15.105733 9.2466253,15.8550292 C8.2898628,16.6043253 7.83526859,17.7055327 8.05408392,18.743837 L8.05408392,18.743837 Z" id="路径" fill-opacity="0.778327142"></path>
                        <path d="M1.11010495,11.0429533 C1.48271431,12.7899537 2.7590283,14.2054629 4.45827179,14.7562722 C6.15751529,15.3070816 8.02153277,14.90951 9.34816688,13.7133189 C10.674801,12.5171278 11.2625045,10.7040471 10.889895,8.9570467 C10.5172857,7.21004628 9.2409717,5.7945371 7.54172821,5.24372777 C5.84248471,4.69291844 3.97846723,5.09049 2.65183312,6.28668108 C1.325199,7.48287217 0.737495546,9.2959529 1.11010495,11.0429533 Z" id="路径" fill-opacity="0.778327142"></path>
                        <path d="M13.1541469,8.46013468 C13.6758001,10.9059352 15.4626396,12.8876481 17.8415805,13.6587811 C20.2205214,14.4299142 22.8301458,13.873314 24.6874336,12.1986465 C26.5447214,10.523979 27.3675062,7.98566599 26.8458531,5.53986543 C26.3242,3.09406483 24.5373604,1.11235196 22.1584195,0.341218884 C19.7794786,-0.429914192 17.1698541,0.126685989 15.3125664,1.80135352 C13.4552786,3.47602105 12.6324938,6.0143341 13.1541469,8.46013468 L13.1541469,8.46013468 Z" id="路径"></path>
                    </g>
                </g>
            </g>
        </g>
    </g>
</svg>