<?xml version="1.0" encoding="UTF-8"?>
<svg width="17px" height="22px" viewBox="0 0 17 22" version="1.1" xmlns="http://www.w3.org/2000/svg" xmlns:xlink="http://www.w3.org/1999/xlink">
    <!-- Generator: Sketch 60.1 (88133) - https://sketch.com -->
    <title>plant</title>
    <desc>Created with Sketch.</desc>
    <g id="3-碳足迹" stroke="none" stroke-width="1" fill="none" fill-rule="evenodd">
        <g id="1备份-2" transform="translate(-15.000000, -452.000000)">
            <g id="plant" transform="translate(15.000000, 452.000000)">
                <path d="M6.57641016,15.0232982 C6.57641016,10.0332437 4.47867578,8.85991033 0.0149960938,8.85991033 C0.0149960938,13.6769669 2.96454297,15.0232982 6.57641016,15.0232982" id="Shape" fill-opacity="0.575284091" fill="#00B459"></path>
                <path d="M10.8220234,16.1789201 C10.8220234,11.9847251 12.71325,11.171154 16.2255156,11.171154 C16.2915156,15.2370799 14.4597148,16.1789201 10.8220234,16.1789201" id="Shape" fill-opacity="0.575284091" fill="#00B459"></path>
                <path d="M11.9799023,0 C12.9629414,3.02738012 10.5360234,4.77777388 8.65094141,5.00776608 C7.24835547,2.92840156 8.21674219,0.511575049 11.9799023,0" id="Shape" fill-opacity="0.575284091" fill="#00B459"></path>
                <path d="M6.96235547,8.47467446 C3.72990234,8.47467446 3.1026875,6.93381676 3.1026875,4.23733723 C6.23635547,4.18647563 6.96235547,5.68187524 6.96235547,8.47467446" id="Shape" fill-opacity="0.575284091" fill="#00B459"></path>
                <path d="M10.0500898,10.0155322 C13.5693164,10.0155322 15.0676367,9.61567251 15.0676367,5.00776608 C11.5484102,5.00776608 10.0500898,5.40762573 10.0500898,10.0155322" id="Shape" fill-opacity="0.575284091" fill="#00B459"></path>
                <path d="M13.4917148,13.7139766 C13.4064219,13.5186784 13.1786875,13.429306 12.9837813,13.5144327 C11.7946211,14.0309825 11.0674609,15.0279298 10.5135938,15.9439532 C9.99410156,16.4978986 9.42669922,17.1315673 8.89216797,17.8989084 L8.89216797,12.7120546 C8.89216797,12.1893294 9.47151563,11.2104795 10.3337266,10.2767446 C10.3773398,10.2293567 10.4379258,10.1619415 10.513207,10.0783587 C10.9366211,9.6057232 11.8177813,8.62339961 12.6039805,8.0074425 C12.7718594,7.87608577 12.8008203,7.63378558 12.6695938,7.46661988 C12.5375938,7.29906823 12.295207,7.27016374 12.1277148,7.4011345 C11.2878477,8.05907602 10.3762227,9.07566472 9.93776953,9.56446784 L9.76641016,9.75436257 C9.58963672,9.94580117 9.23028906,10.3537661 8.89221094,10.8437271 L8.89221094,6.55175439 C8.90265234,5.15957895 9.14387891,4.30711111 9.81273047,3.29361014 C9.93007813,3.11602339 9.88105078,2.87719688 9.70311719,2.76007797 C9.52479688,2.6425731 9.28550391,2.69189084 9.16815625,2.86986355 C8.41628906,4.00893177 8.13222266,5.00510721 8.12027734,6.54557895 C8.12027734,6.54635088 8.12066406,6.54673684 8.12066406,6.54712281 C8.12066406,6.54750877 8.12027734,6.5482807 8.12027734,6.54866667 L8.12027734,9.26054191 C7.73123828,8.70659649 7.32479688,8.29211306 7.24607813,8.21354776 L5.70221094,6.54403509 C5.55787891,6.38801949 5.31394531,6.37802729 5.15685156,6.52246394 C5.00014453,6.66651462 4.99051953,6.91035867 5.13485156,7.06676023 L6.68950391,8.74703704 C7.0874375,9.14419493 8.12027734,10.354152 8.12027734,11.1711969 L8.12027734,16.0649318 C7.77021094,15.6269474 7.43905078,15.3145302 7.16808984,15.0610799 C7.05770313,14.9578558 6.96042188,14.8661676 6.87667578,14.7783392 C5.82686328,13.1481092 4.77086328,12.1042027 3.64963672,11.5914698 C3.45627734,11.5032554 3.22660938,11.5872242 3.13783594,11.7809786 C3.0490625,11.974347 3.13396875,12.2031813 3.32810156,12.2917817 C4.31926172,12.7451618 5.27527344,13.7066862 6.25100781,15.2309474 C6.2610625,15.2459571 6.27378125,15.257922 6.28533984,15.2713879 C6.28920703,15.2764055 6.29036719,15.2821949 6.29500781,15.2867836 C6.39190234,15.3903938 6.50882031,15.4997934 6.64004688,15.6230877 C7.04455469,16.0013762 7.59300781,16.5186979 8.12023438,17.4397388 L8.12023438,21.571922 C8.12023438,21.7845458 8.29314063,21.957115 8.50617969,21.957115 C8.71921875,21.957115 8.892125,21.7845458 8.892125,21.571922 L8.892125,19.3615867 C9.56063281,18.1323743 10.3823242,17.2101754 11.1036836,16.4424483 C11.1079375,16.4378168 11.1090977,16.4320273 11.1129648,16.4270526 C11.1268438,16.411271 11.1415391,16.3958324 11.1527109,16.3773489 C11.6467656,15.5556725 12.2866563,14.6573606 13.2917383,14.2209201 C13.4870742,14.1357934 13.5766211,13.9088889 13.4917148,13.7139766" id="Shape" fill="#00B459"></path>
                <path d="M15.0676367,21.957115 L1.94480859,21.957115 C1.73176953,21.957115 1.55886328,21.7845458 1.55886328,21.571922 C1.55886328,21.3592982 1.73176953,21.186729 1.94480859,21.186729 L15.0676367,21.186729 C15.2806758,21.186729 15.453582,21.3592982 15.453582,21.571922 C15.453582,21.7845458 15.2806758,21.957115 15.0676367,21.957115" id="Shape" fill="#9E5A23"></path>
            </g>
        </g>
    </g>
</svg>