<?xml version="1.0" encoding="UTF-8"?>
<svg width="14px" height="15px" viewBox="0 0 14 15" version="1.1" xmlns="http://www.w3.org/2000/svg" xmlns:xlink="http://www.w3.org/1999/xlink">
    <!-- Generator: Sketch 60.1 (88133) - https://sketch.com -->
    <title>编组</title>
    <desc>Created with Sketch.</desc>
    <g id="5-商城" stroke="none" stroke-width="1" fill="none" fill-rule="evenodd">
        <g id="2商品详情" transform="translate(-16.000000, -350.000000)" fill-rule="nonzero">
            <g id="编组" transform="translate(16.000000, 350.000000)">
                <polygon id="路径" fill="#FFB300" points="6.00034916 9.11162405 7.93274267 9.11162405 7.93274267 10.9833688 6.00034916 10.9833688"></polygon>
                <path d="M8.45823149,11.6861979 L5.47333275,11.6861979 L5.47333275,10.7806581 C5.47333275,10.6104995 5.61692563,10.4714134 5.79259777,10.4714134 L8.14049406,10.4714134 C8.3161662,10.4714134 8.45975908,10.6104995 8.45975908,10.7806581 L8.45975908,11.6861979 L8.45823149,11.6861979 Z" id="路径" fill="#FFCA28"></path>
                <path d="M9.96137395,14.9325284 L3.97019029,14.9325284 C3.79451816,14.9325284 3.65092528,14.7934422 3.65092528,14.6232836 L3.65092528,11.9880445 C3.65092528,11.8178859 3.79451816,11.6787997 3.97019029,11.6787997 L9.96290154,11.6787997 C10.1385737,11.6787997 10.2821666,11.8178859 10.2821666,11.9880445 L10.2821666,14.6232836 C10.280639,14.7949219 10.1385737,14.9325284 9.96137395,14.9325284 Z" id="路径" fill="#455A64"></path>
                <path d="M8.89512046,14.1601562 L5.03644378,14.1601562 C4.94784392,14.1601562 4.87757507,14.0906132 4.87757507,14.0062737 L4.87757507,12.5133168 C4.87757507,12.4274976 4.94937151,12.3594342 5.03644378,12.3594342 L8.89512046,12.3594342 C8.98372032,12.3594342 9.05398918,12.4289773 9.05398918,12.5133168 L9.05398918,14.004794 C9.05398918,14.0906132 8.98372032,14.1601562 8.89512046,14.1601562 Z" id="路径" fill="#CFD8DC"></path>
                <path d="M3.0734986,1.60984848 L3.0734986,5.82386364 C1.79338338,5.65074574 0.805036662,4.58392519 0.805036662,3.29663826 L0.805036662,1.60984848 L3.0734986,1.60984848 M3.87089735,0.837476326 L0.644640363,0.837476326 C0.291768506,0.837476326 0.0061103352,1.11416903 0.0061103352,1.45596591 L0.0061103352,3.2981179 C0.0061103352,5.13435133 1.54285964,6.62286932 3.43859113,6.62286932 L3.87089735,6.62286932 L3.87089735,0.837476326 L3.87089735,0.837476326 Z M13.1265276,1.60984848 L13.1265276,3.21969697 C13.1265276,4.5217803 12.1427636,5.60635653 10.8580656,5.81202652 L10.8580656,1.60984848 L13.1265276,1.60984848 M13.2869239,0.837476326 L10.0606669,0.837476326 L10.0606669,6.62138968 L10.4135388,6.62138968 C12.3520426,6.62138968 13.9239324,5.09883996 13.9239324,3.22117661 L13.9239324,1.45596591 C13.9254539,1.11416903 13.6382682,0.837476326 13.2869239,0.837476326 Z" id="形状" fill="#FFB300"></path>
                <path d="M6.96578212,9.48301373 C4.48040328,9.48301373 2.46552025,7.53136837 2.46552025,5.12399384 L2.46552025,0.304805871 C2.46552025,0.143525095 2.60147521,0.0118371212 2.76798184,0.0118371212 L11.1620548,0.0118371212 C11.3285615,0.0118371212 11.4645173,0.143525095 11.4645173,0.304805871 L11.4645173,5.12399384 C11.466044,7.53136837 9.45116096,9.48301373 6.96578212,9.48301373 Z" id="路径" fill="#FFCA28"></path>
                <path d="M11.1712203,6.67909564 L8.92261697,3.81747159 L5.76815642,6.00733902 L8.31922137,9.28326231 C8.98983066,9.06871449 9.45879888,8.7816643 9.90638094,8.4206321 C10.4395077,7.99005682 10.8672311,7.41743608 11.1712203,6.67909564 L11.1712203,6.67909564 Z" id="路径" fill="#FFB806"></path>
                <path d="M7.12312325,2.53462358 L7.60125698,3.4712358 C7.62417074,3.51710464 7.66999825,3.54817708 7.7219361,3.55557528 L8.78971718,3.70649858 C8.92108939,3.72425426 8.97302723,3.88109612 8.87831704,3.96987453 L8.10535964,4.69933712 C8.06717004,4.73484848 8.05036662,4.78663589 8.05953212,4.83546402 L8.24131459,5.86529356 C8.26422835,5.99106297 8.12674581,6.08723958 8.00912186,6.02805398 L6.97953038,5.50426136 L5.9499389,6.02805398 C5.83231494,6.08723958 5.69635999,5.99106297 5.71774616,5.86529356 L5.89952863,4.83546402 C5.90869413,4.78515625 5.89189071,4.73484848 5.85370112,4.69933712 L5.08074372,3.96987453 C4.98603352,3.88109612 5.03797137,3.72425426 5.16934358,3.70649858 L6.23712465,3.55557528 C6.2890625,3.54817708 6.33336243,3.51710464 6.35780377,3.4712358 L6.8359375,2.53462358 C6.89551327,2.41921165 7.06507507,2.41921165 7.12312325,2.53462358 L7.12312325,2.53462358 Z" id="路径" fill="#FFF8E1"></path>
            </g>
        </g>
    </g>
</svg>