<?xml version="1.0" encoding="UTF-8"?>
<svg width="15px" height="18px" viewBox="0 0 15 18" version="1.1" xmlns="http://www.w3.org/2000/svg" xmlns:xlink="http://www.w3.org/1999/xlink">
    <!-- Generator: Sketch 60.1 (88133) - https://sketch.com -->
    <title>编组</title>
    <desc>Created with Sketch.</desc>
    <defs>
        <rect id="path-1" x="0" y="0" width="375" height="46"></rect>
        <filter x="-4.0%" y="-32.6%" width="108.0%" height="165.2%" filterUnits="objectBoundingBox" id="filter-2">
            <feOffset dx="0" dy="0" in="SourceAlpha" result="shadowOffsetOuter1"></feOffset>
            <feGaussianBlur stdDeviation="5" in="shadowOffsetOuter1" result="shadowBlurOuter1"></feGaussianBlur>
            <feColorMatrix values="0 0 0 0 0   0 0 0 0 0   0 0 0 0 0  0 0 0 0.0806107955 0" type="matrix" in="shadowBlurOuter1"></feColorMatrix>
        </filter>
    </defs>
    <g id="3-碳足迹" stroke="none" stroke-width="1" fill="none" fill-rule="evenodd">
        <g id="1备份-2" transform="translate(-61.000000, -2086.000000)">
            <g id="编组-20" transform="translate(0.000000, 2078.000000)">
                <g id="矩形">
                    <use fill="black" fill-opacity="1" filter="url(#filter-2)" xlink:href="#path-1"></use>
                    <use fill="#FFFFFF" fill-rule="evenodd" xlink:href="#path-1"></use>
                </g>
                <g id="编组-3" transform="translate(40.000000, 8.000000)" fill="#00B459" fill-rule="nonzero">
                    <g id="编组-11">
                        <g id="编组" transform="translate(21.000000, 0.000000)">
                            <path d="M7.38439453,18 C3.82939453,18 0.00439453125,17.010022 0.00439453125,15.210022 C0.00439453125,13.905 1.62439453,12.825022 4.90939453,12.51 C5.08939453,12.465 5.22439453,12.600022 5.26939453,12.78 C5.26939453,12.96 5.71939453,13.455022 5.53939453,13.455022 C2.38939453,13.770022 1.17439453,14.445022 1.17439453,15.210022 C1.17439453,16.245022 3.42439453,17.010022 7.42939453,17.010022 C11.3893945,17.010022 13.6843726,16.245022 13.6843726,15.210022 C13.6843726,14.445022 12.4693506,13.770022 9.27439453,13.455022 C9.09437256,13.455022 9.49935059,12.915022 9.54437256,12.78 C9.54437256,12.600022 9.72435059,12.465 9.90439453,12.51 C13.2343726,12.825022 14.8543726,13.905 14.8543726,15.210022 C14.7643945,17.010022 10.9393945,18 7.38439453,18" id="路径"></path>
                            <path d="M7.38439453,15.66 L7.06939453,15.345 C6.84439453,15.12 1.12939453,9.765 1.12939453,6.345 C1.12939453,2.88 3.91939453,0 7.38439453,0 C10.8493945,0 13.6393726,2.88 13.6393726,6.39 C13.6393726,9.80997803 7.92437256,15.164978 7.69937256,15.39 L7.38439453,15.66 M7.38439453,0.945 C4.45939453,0.945 2.07439453,3.375 2.07439453,6.345 C2.07439453,8.685 5.67439453,12.645 7.38439453,14.310022 C9.13939453,12.645022 12.6943726,8.68502197 12.6943726,6.345 C12.6943726,3.375 10.3093945,0.945 7.38439453,0.945 M7.38439453,8.73 C5.94439453,8.73 4.81939453,7.56 4.81939453,6.12 C4.81939453,4.68 5.98939453,3.51 7.38439453,3.51 C8.82439453,3.51 9.94937256,4.68 9.94937256,6.12 C9.94937256,7.56 8.82439453,8.73 7.38439453,8.73 M7.38439453,4.455 C6.48439453,4.455 5.76439453,5.22 5.76439453,6.12 C5.76439453,7.02 6.48439453,7.785 7.38439453,7.785 C8.28439453,7.785 9.00439453,7.02 9.00439453,6.12 C9.00439453,5.17502197 8.28439453,4.455 7.38439453,4.455" id="形状"></path>
                        </g>
                    </g>
                </g>
            </g>
        </g>
    </g>
</svg>