<?xml version="1.0" encoding="UTF-8"?>
<svg width="19px" height="20px" viewBox="0 0 19 20" version="1.1" xmlns="http://www.w3.org/2000/svg" xmlns:xlink="http://www.w3.org/1999/xlink">
    <!-- Generator: Sketch 60.1 (88133) - https://sketch.com -->
    <title>形状</title>
    <desc>Created with Sketch.</desc>
    <g id="7-我的" stroke="none" stroke-width="1" fill="none" fill-rule="evenodd">
        <g id="我的-首页" transform="translate(-23.000000, -573.000000)" fill="#00B459" fill-rule="nonzero">
            <g id="编组" transform="translate(23.000000, 573.000000)">
                <path d="M16.506654,10.869203 L8.79213027,10.869203 C8.43171118,10.869203 8.13953377,10.5770256 8.13953377,10.2166065 C8.13953377,9.85618741 8.43171118,9.56401 8.79213027,9.56401 L16.6732744,9.56401 L15.0348406,7.90336018 C14.7848095,7.64689324 14.7848095,7.237861 15.0348406,6.98139406 C15.155362,6.8601069 15.3192844,6.79190373 15.4902697,6.79190373 C15.661255,6.79190373 15.8251774,6.8601069 15.9456987,6.98139406 L18.3450322,9.41405166 C18.4724172,9.43567597 18.5893498,9.49804004 18.678273,9.59178006 C18.9225732,9.90939631 18.9225732,10.3516423 18.678273,10.6692585 C18.5893498,10.7629986 18.4724172,10.8253626 18.3450322,10.846987 L15.9456987,13.2796446 C15.8251774,13.4009317 15.661255,13.4691349 15.4902697,13.4691349 C15.3192844,13.4691349 15.155362,13.4009317 15.0348406,13.2796446 C14.7848095,13.0231776 14.7848095,12.6141454 15.0348406,12.3576784 L16.506654,10.869203 Z M14.579468,3.915579 L14.579468,1.738406 C14.583109,1.28103017 14.4049554,0.840920057 14.0841458,0.514902452 C13.7633361,0.188884847 13.3261517,0.00366774756 12.8687756,0 L1.71631801,0 C1.25806872,0.00249474752 0.819630326,0.187159254 0.497684836,0.51327232 C0.175739346,0.839385386 -0.00327104543,1.28016253 8.05097052e-05,1.738406 L8.05097052e-05,18.25604 C-0.00327105064,18.7142835 0.175739339,19.1550606 0.497684829,19.4811737 C0.81963032,19.8072867 1.25806872,19.9919512 1.71631801,19.994446 L12.8687756,19.994446 C13.3261517,19.9907782 13.7633361,19.8055611 14.0841458,19.4795435 C14.4049555,19.1535259 14.583109,18.7134158 14.579468,18.25604 L14.579468,16.084421 C14.579468,15.8552392 14.4571446,15.6434665 14.2586674,15.5288756 C14.0601901,15.4142848 13.8156561,15.4142848 13.6171789,15.5288756 C13.4187016,15.6434665 13.2964346,15.8552392 13.2964346,16.084421 L13.2964346,17.822827 C13.2970753,18.297283 12.9155414,18.6837719 12.4411167,18.689253 L2.13842297,18.689253 C1.91046449,18.6882403 1.6923805,18.5960939 1.53276043,18.433344 C1.37314035,18.2705941 1.28524552,18.0507622 1.28865902,17.822827 L1.28865902,2.171619 C1.2852615,1.69819202 1.66501926,1.31098802 2.13842297,1.30519301 L12.4411167,1.30519301 C12.9164384,1.3085561 13.2992047,1.69629349 13.2964346,2.171619 L13.2964346,3.915579 C13.2964346,4.14476077 13.4187016,4.35653346 13.6171789,4.47112435 C13.8156561,4.58571524 14.0601901,4.58571524 14.2586674,4.47112435 C14.4571446,4.35653346 14.579468,4.14476077 14.579468,3.915579 Z" id="形状"></path>
            </g>
        </g>
    </g>
</svg>