<?xml version="1.0" encoding="UTF-8"?>
<svg width="19px" height="19px" viewBox="0 0 19 19" version="1.1" xmlns="http://www.w3.org/2000/svg" xmlns:xlink="http://www.w3.org/1999/xlink">
    <!-- Generator: Sketch 60.1 (88133) - https://sketch.com -->
    <title>Left Icon</title>
    <desc>Created with Sketch.</desc>
    <defs>
        <rect id="path-1" x="0" y="0" width="375" height="46"></rect>
        <filter x="-4.0%" y="-32.6%" width="108.0%" height="165.2%" filterUnits="objectBoundingBox" id="filter-2">
            <feOffset dx="0" dy="0" in="SourceAlpha" result="shadowOffsetOuter1"></feOffset>
            <feGaussianBlur stdDeviation="5" in="shadowOffsetOuter1" result="shadowBlurOuter1"></feGaussianBlur>
            <feColorMatrix values="0 0 0 0 0   0 0 0 0 0   0 0 0 0 0  0 0 0 0.0806107955 0" type="matrix" in="shadowBlurOuter1"></feColorMatrix>
        </filter>
    </defs>
    <g id="3-碳足迹" stroke="none" stroke-width="1" fill="none" fill-rule="evenodd">
        <g id="1备份-2" transform="translate(-142.000000, -2086.000000)">
            <g id="编组-20" transform="translate(0.000000, 2078.000000)">
                <g id="矩形">
                    <use fill="black" fill-opacity="1" filter="url(#filter-2)" xlink:href="#path-1"></use>
                    <use fill="#FFFFFF" fill-rule="evenodd" xlink:href="#path-1"></use>
                </g>
                <g id="编组-4" transform="translate(137.000000, 8.000000)" fill="#323232" fill-rule="nonzero">
                    <g id="Left-Icon" transform="translate(5.000000, 0.000000)">
                        <g id="Mask" transform="translate(0.791667, 0.791667)">
                            <path d="M17.4166667,7.34154382 C17.4166667,6.30681802 16.5748806,5.46503194 15.5400219,5.46503194 L14.9589437,5.46503194 L13.1750482,1.15830293 C12.7790699,0.202507019 11.6792336,-0.253000895 10.7231719,0.142844527 C10.2600899,0.334588386 9.89932443,0.695353817 9.70758057,1.15843584 C9.51570384,1.62151783 9.51583671,2.13163883 9.70771344,2.59472085 L10.8965785,5.46503194 L6.52022107,5.46503194 L7.7090861,2.59472085 C8.10506439,1.63865916 7.64942361,0.538822818 6.69349479,0.142844527 C5.7374331,-0.253133765 4.63759676,0.202507019 4.24161847,1.15843584 L2.45772298,5.46503194 L1.87664478,5.46503194 C0.841918945,5.46503194 0,6.30681802 0,7.34154382 C0,8.21973865 0.606458028,8.95867666 1.42246563,9.16237957 L2.28338623,15.6190847 C2.34769948,16.1019656 2.59591675,16.5541515 2.98192913,16.8920619 C3.36807443,17.2301051 3.84896217,17.416268 4.33609517,17.416268 L13.0807044,17.416268 C13.5678374,17.416268 14.048858,17.2301051 14.4348704,16.8920619 C14.8210157,16.5541515 15.0691001,16.1019656 15.1334133,15.6190847 L15.9943339,9.1622467 C16.8103415,8.95867666 17.4166667,8.21973865 17.4166667,7.34154382 Z M10.6504873,2.20419057 C10.5629202,1.99291358 10.5629202,1.76011024 10.6503544,1.54883321 C10.7379214,1.33768909 10.9024251,1.17318534 11.1137022,1.08561832 C11.5498098,0.905036299 12.0516923,1.11285846 12.2322744,1.54896608 L13.8543237,5.46503194 L12.0011984,5.46503194 L10.6504873,2.20419057 Z M5.18439229,1.54896608 C5.36510722,1.11285846 5.86685689,0.905036299 6.30296451,1.08561832 C6.73907216,1.26620038 6.94689433,1.76808292 6.7661794,2.20419057 L5.41560109,5.46503194 L3.56234295,5.46503194 L5.18439229,1.54896608 Z M14.1219412,15.4842129 C14.0560334,15.9783885 13.579265,16.3957602 13.0807044,16.3957602 L4.33609517,16.3957602 C3.83766746,16.3957602 3.36076609,15.9783885 3.29499117,15.4842129 L2.4594504,9.2181886 L14.9573491,9.2181886 L14.1219412,15.4842129 Z M15.5400219,8.19768078 L1.87664478,8.19768078 C1.40452701,8.19768078 1.02050781,7.81366158 1.02050781,7.34154382 C1.02050781,6.86955895 1.40452701,6.48553975 1.87664478,6.48553975 L2.79576619,6.48553975 C2.79669635,6.48553975 2.79762651,6.48567262 2.79855664,6.48567262 C2.79975257,6.48567262 2.80094847,6.48553975 2.80214437,6.48553975 L5.75802929,6.48553975 L5.76161702,6.48553975 L11.6543853,6.48553975 L11.6594346,6.48553975 L14.6145223,6.48553975 C14.6157182,6.48553975 14.6169141,6.48567262 14.61811,6.48567262 C14.6190402,6.48567262 14.6199703,6.48553975 14.6209005,6.48553975 L15.5400219,6.48553975 C16.0120068,6.48553975 16.3961589,6.86955895 16.3961589,7.34154382 C16.3961589,7.81366158 16.0121397,8.19768078 15.5400219,8.19768078 Z" id="Shape"></path>
                            <path d="M8.7084662,11.8803296 C8.42663066,11.8803296 8.19807943,12.1088809 8.19807943,12.3905835 L8.19807943,15.1233653 C8.19807943,15.4052008 8.42663066,15.6336192 8.7084662,15.6336192 C8.99016888,15.6336192 9.21872011,15.4052008 9.21872011,15.1233653 L9.21872011,12.3905835 C9.21872011,12.1088809 8.99016888,11.8803296 8.7084662,11.8803296 Z" id="Path"></path>
                            <path d="M11.4411151,11.8803296 C11.1592795,11.8803296 10.9308612,12.1088809 10.9308612,12.3905835 L10.9308612,15.1233653 C10.9308612,15.4052008 11.1592795,15.6336192 11.4411151,15.6336192 C11.7229506,15.6336192 11.951369,15.4052008 11.951369,15.1233653 L11.951369,12.3905835 C11.951369,12.1088809 11.7229506,11.8803296 11.4411151,11.8803296 Z" id="Path"></path>
                            <path d="M5.97568449,11.8803296 C5.69384891,11.8803296 5.46543059,12.1088809 5.46543059,12.3905835 L5.46543059,15.1233653 C5.46543059,15.4052008 5.69384891,15.6336192 5.97568449,15.6336192 C6.25752004,15.6336192 6.4859384,15.4052008 6.4859384,15.1233653 L6.4859384,12.3905835 C6.4859384,12.1088809 6.25752004,11.8803296 5.97568449,11.8803296 Z" id="Path"></path>
                        </g>
                    </g>
                </g>
            </g>
        </g>
    </g>
</svg>