<?xml version="1.0" encoding="UTF-8"?>
<svg width="16px" height="20px" viewBox="0 0 16 20" version="1.1" xmlns="http://www.w3.org/2000/svg" xmlns:xlink="http://www.w3.org/1999/xlink">
    <!-- Generator: Sketch 60.1 (88133) - https://sketch.com -->
    <title>seeds-2</title>
    <desc>Created with Sketch.</desc>
    <g id="4-农场" stroke="none" stroke-width="1" fill="none" fill-rule="evenodd">
        <g id="7农场-预定" transform="translate(-17.000000, -588.000000)">
            <g id="编组-14备份-3" transform="translate(17.000000, 588.000000)">
                <g id="seeds-2">
                    <path d="M15.0875261,0.0214424951 L13.2813805,0.724210526 C12.4766347,0.928966862 11.6504691,1.03259259 10.8208576,1.03259259 L5.13622159,1.03259259 C4.30696253,1.03259259 3.48044456,0.929005848 2.67569871,0.724210526 L0.869905559,0.0214424951 C0.334491708,-0.114853801 -0.12699094,0.423391813 0.0776512592,0.944795322 L1.06522804,3.44163743 C0.162664312,7.49578947 0.151269195,11.8879142 1.06522804,16.5195322 L0.246306818,18.9974659 C0.0503186425,19.4954386 0.465124386,20.0203119 0.985344748,19.9318519 L3.02965218,19.5853021 C3.33489251,19.5333333 3.6425215,19.4958285 3.93464373,19.4435088 C4.54026873,19.3347368 5.15176751,19.2727875 5.7663598,19.2727875 L10.1906411,19.2727875 C10.8052334,19.2727875 11.4170846,19.3347368 12.0223572,19.4435088 C12.3147927,19.4958285 12.6221084,19.5333333 12.927662,19.5853021 L14.9716562,19.9318519 C15.4918765,20.0203119 15.9067214,19.4954776 15.7110465,18.9974659 L14.8921253,16.5195322 C15.8223349,11.7275244 15.8092168,7.35052632 14.8921253,3.44163743 L15.8793888,0.944795322 C16.0844618,0.423391813 15.6226267,-0.114853801 15.0875261,0.0214424951" id="Shape" fill="#ECE8D8"></path>
                    <polygon id="Shape" fill="#C9C3A7" points="4.17625154 8.60393762 11.7810627 8.60393762 11.7810627 3.09746589 4.17625154 3.09746589"></polygon>
                    <path d="M9.01569103,5.16237817 L6.94162316,5.16237817 C6.7508039,5.16237817 6.59593213,5.00853801 6.59593213,4.81820663 C6.59593213,4.62787524 6.7508039,4.47403509 6.94162316,4.47403509 L9.01569103,4.47403509 C9.20651029,4.47403509 9.36138206,4.62787524 9.36138206,4.81820663 C9.36138206,5.00853801 9.20651029,5.16237817 9.01569103,5.16237817" id="Shape" fill="#ECE8D8"></path>
                    <path d="M10.052725,6.88315789 L5.90462838,6.88315789 C5.71380912,6.88315789 5.55893735,6.72931774 5.55893735,6.53898635 C5.55893735,6.34865497 5.71380912,6.19481481 5.90462838,6.19481481 L10.052725,6.19481481 C10.2435442,6.19481481 10.398416,6.34865497 10.398416,6.53898635 C10.398416,6.72931774 10.2435051,6.88315789 10.052725,6.88315789" id="Shape" fill="#ECE8D8"></path>
                    <path d="M7.2871184,17.8961404 C7.2377004,17.8961404 7.18789082,17.885809 7.14054822,17.8634308 C6.9677027,17.782885 6.89302749,17.5777778 6.97428133,17.405692 C7.24596284,16.8295906 7.65802749,14.0618713 6.6279246,11.845848 C6.54772804,11.6734113 6.62306895,11.468655 6.79661932,11.3891618 C6.96981726,11.308616 7.17512515,11.3843275 7.25532171,11.5567641 C8.38531787,13.9882261 7.95982187,16.9352437 7.60030789,17.6982066 C7.54121775,17.822846 7.41677211,17.8961404 7.2871184,17.8961404" id="Shape" fill="#4CAF50"></path>
                    <path d="M7.63280943,15.142885 C7.58405713,15.142885 7.53499155,15.1329045 7.48831465,15.1112281 C7.31480344,15.0317349 7.23907095,14.8269396 7.31926751,14.6545419 C7.3441723,14.6005068 7.36837224,14.5454581 7.39288544,14.4890058 C7.57160473,14.0801559 7.79422067,13.5718129 8.48348818,13.1323587 C8.6438813,13.0291228 8.85819564,13.0766082 8.96122159,13.2366472 C9.06424754,13.3966862 9.01721821,13.6097076 8.85647267,13.7119298 C8.34420147,14.0385185 8.18999539,14.3906043 8.02686118,14.7636647 C7.99988099,14.8246004 7.97395808,14.8844834 7.94666462,14.942963 C7.8885926,15.0688889 7.76348127,15.142885 7.63280943,15.142885" id="Shape" fill="#4CAF50"></path>
                    <path d="M7.63296606,15.8311891 C7.48917614,15.8311891 7.35505835,15.7413645 7.30595362,15.5985575 C7.17285396,15.2123977 6.7591055,14.8871735 6.32111794,14.5423392 L6.26269349,14.4962183 C6.11302979,14.3781676 6.08742015,14.1617154 6.20599201,14.0126706 C6.32456388,13.8636257 6.54197174,13.8385185 6.6916746,13.9565692 L6.74974662,14.0023392 C7.24682432,14.3932943 7.76121007,14.7976998 7.95993934,15.3755166 C8.02180974,15.5551657 7.92571483,15.7509942 7.74492015,15.8125926 C7.7079937,15.8249903 7.66997082,15.8311891 7.63296606,15.8311891" id="Shape" fill="#4CAF50"></path>
                    <path d="M6.80762285,14.5849903 L6.46228424,14.5701754 C4.7484352,14.4965302 3.4141101,13.048655 3.4877672,11.3423392 L3.50264742,10.9985185 L3.84798603,11.0133333 C5.56183507,11.0869786 6.89616017,12.5348538 6.82250307,14.2411696 L6.80762285,14.5849903 Z" id="Shape" fill="#81C784"></path>
                    <path d="M8.78563498,13.7806238 C8.74831695,13.7809747 8.71060734,13.7806238 8.67258446,13.7796101 L8.32724585,13.768577 L8.3383277,13.4247563 C8.38946867,11.8247953 9.59175138,10.6006238 11.0871353,10.6556725 L11.4324739,10.6667057 L11.421392,11.0105263 C11.3716216,12.5695517 10.2232993,13.7644444 8.78563498,13.7806238" id="Shape" fill="#81C784"></path>
                </g>
            </g>
        </g>
    </g>
</svg>