<?xml version="1.0" encoding="UTF-8"?>
<svg width="24px" height="30px" viewBox="0 0 24 30" version="1.1" xmlns="http://www.w3.org/2000/svg" xmlns:xlink="http://www.w3.org/1999/xlink">
    <!-- Generator: Sketch 60.1 (88133) - https://sketch.com -->
    <title>seeds-4</title>
    <desc>Created with Sketch.</desc>
    <g id="5-商城" stroke="none" stroke-width="1" fill="none" fill-rule="evenodd">
        <g id="1商城首页" transform="translate(-294.000000, -109.000000)">
            <g id="编组-15" transform="translate(265.000000, 100.000000)">
                <g id="编组-12" transform="translate(17.000000, 0.000000)">
                    <g id="seeds-4" transform="translate(12.000000, 9.000000)">
                        <path d="M21.8877872,29.927076 L18.5776232,29.3777778 C18.0139761,29.2843275 17.4462174,29.2218713 16.833348,29.1139766 C15.9959244,28.9668421 15.1450499,28.9090058 14.2941754,28.9090058 L8.82698633,28.9090058 C7.88430475,28.9090058 6.94632217,29.0024561 6.01820754,29.1650292 C5.57021499,29.2435088 5.09890356,29.3002924 4.6306465,29.3777193 L1.49622581,29.8980702 C0.698743857,30.0302339 0.0625556665,29.2435088 0.362764128,28.4959649 L1.88771268,24.7790643 C1.25152449,18.1000585 1.25980651,11.5191228 1.88771268,5.16222222 L1.88771268,5.16222222 L0.104553133,1.41701754 C-0.209693643,0.635438596 0.498095823,-0.171929825 1.31889665,0.0319883041 L4.0877338,1.08614035 C5.32181319,1.39327485 6.58902065,1.54871345 7.86092713,1.54871345 L15.4380336,1.54871345 C16.7099401,1.54871345 17.9772063,1.39333333 19.2106983,1.08614035 L22.0594188,0.0319883041 C22.839808,-0.162105263 23.5350864,0.563216374 23.3043646,1.3302924 L21.5912204,5.1622807 L21.5912204,5.1622807 C22.3663821,11.6688889 22.3653835,18.2446784 21.5912204,24.7791228 L23.0513226,28.6121637 C23.2722351,29.3442105 22.6447988,30.0525146 21.8877872,29.927076" id="Shape" fill="#ECE8D8"></path>
                        <polygon id="Shape" fill="#C9C3A7" points="6.03577012 12.9059064 17.4430455 12.9059064 17.4430455 4.64619883 6.03577012 4.64619883"></polygon>
                        <path d="M13.2949294,7.74356725 L10.1838275,7.74356725 C9.89707002,7.74356725 9.665291,7.51280702 9.665291,7.22730994 C9.665291,6.94181287 9.89707002,6.71105263 10.1838275,6.71105263 L13.2949294,6.71105263 C13.5816869,6.71105263 13.8134659,6.94181287 13.8134659,7.22730994 C13.8134659,7.51280702 13.5816869,7.74356725 13.2949294,7.74356725" id="Shape" fill="#ECE8D8"></path>
                        <path d="M14.8504803,10.3247368 L8.62833538,10.3247368 C8.34157786,10.3247368 8.10979883,10.0939766 8.10979883,9.80847953 C8.10979883,9.52298246 8.34157786,9.29222222 8.62833538,9.29222222 L14.8504803,9.29222222 C15.1372378,9.29222222 15.3690168,9.52298246 15.3690168,9.80847953 C15.3690168,10.0939766 15.1372378,10.3247368 14.8504803,10.3247368" id="Shape" fill="#ECE8D8"></path>
                        <path d="M16.924509,21.1656725 C16.924509,24.0168421 14.6031357,26.3280117 11.7393785,26.3280117 C8.87562116,26.3280117 6.55424793,24.0168421 6.55424793,21.1656725 C6.55424793,18.3145029 8.87562116,16.0033333 11.7393785,16.0033333 C14.6031357,16.0033333 16.924509,18.3145029 16.924509,21.1656725" id="Shape" fill="#9E5A23"></path>
                        <path d="M10.1838863,19.6169591 C10.0511391,19.6169591 9.91839182,19.5663743 9.81730421,19.465731 C9.61454162,19.2638596 9.61454162,18.9376023 9.81730421,18.7357895 L10.8543186,17.7033333 C11.0570812,17.501462 11.3847789,17.501462 11.5874827,17.7033333 C11.7902453,17.9052047 11.7902453,18.231462 11.5874827,18.4332749 L10.5504684,19.465731 C10.449322,19.5663743 10.3166335,19.6169591 10.1838863,19.6169591" id="Shape" fill="#4CAF50"></path>
                        <path d="M9.66534974,22.1981287 C9.5326025,22.1981287 9.39985527,22.1475439 9.29876766,22.0469006 C9.09600507,21.8450292 9.09600507,21.5187719 9.29876766,21.3169591 L10.335782,20.2845029 C10.5385446,20.0826316 10.8662423,20.0826316 11.0689462,20.2845029 C11.2717088,20.4863743 11.2717088,20.8126316 11.0689462,21.0144444 L10.0319318,22.0469006 C9.93084421,22.1475439 9.79809697,22.1981287 9.66534974,22.1981287" id="Shape" fill="#4CAF50"></path>
                        <path d="M12.257915,24.2630409 C12.1251678,24.2630409 11.9924205,24.2124561 11.8913329,24.1118129 C11.6885703,23.9099415 11.6885703,23.5836842 11.8913329,23.3818713 L12.9283473,22.3494152 C13.1311099,22.1475439 13.4588076,22.1475439 13.6615114,22.3494152 C13.8642153,22.5512865 13.864274,22.8775439 13.6615114,23.0793567 L12.6244971,24.1118129 C12.5234095,24.2124561 12.3906622,24.2630409 12.257915,24.2630409" id="Shape" fill="#4CAF50"></path>
                        <path d="M12.7764516,21.1656725 C12.6437043,21.1656725 12.5109571,21.1150877 12.4098695,21.0144444 C12.2071069,20.8125731 12.2071069,20.4863158 12.4098695,20.2845029 L13.4468838,19.2520468 C13.6496464,19.0501754 13.9773441,19.0501754 14.180048,19.2520468 C14.3828106,19.4539181 14.3828106,19.7801754 14.180048,19.9819883 L13.1430336,21.0144444 C13.0418873,21.1150292 12.9091988,21.1656725 12.7764516,21.1656725" id="Shape" fill="#4CAF50"></path>
                        <path d="M13.7225987,16.3961988 L12.9282298,17.187076 C12.7259959,17.3884211 12.7259959,17.7152047 12.9282298,17.9170175 C13.0293174,18.0176608 13.1620646,18.0682456 13.2948119,18.0682456 C13.4275591,18.0682456 13.5603064,18.0176608 13.661394,17.9170175 L14.5859256,16.9965497 C14.6159993,16.9666082 14.6320934,16.9299415 14.6533565,16.8959064 C14.3629572,16.6992398 14.0513537,16.5319883 13.7225987,16.3961988" id="Shape" fill="#4CAF50"></path>
                        <path d="M16.534608,20.3076023 L15.5209125,21.3168421 C15.31815,21.5187135 15.31815,21.8454386 15.5209125,22.0467836 C15.6220002,22.1474269 15.7547474,22.1980117 15.8874946,22.1980117 C16.0202419,22.1980117 16.1529891,22.1474269 16.2540767,22.0467836 L16.9131139,21.3906433 C16.916227,21.3157895 16.924509,21.241462 16.924509,21.1655556 C16.924509,20.8253801 16.8892664,20.492924 16.8260058,20.1707602 C16.7196906,20.1868421 16.6165471,20.2260234 16.534608,20.3076023" id="Shape" fill="#4CAF50"></path>
                        <path d="M7.9579031,20.2844444 C7.75514051,20.0825731 7.4274428,20.0825731 7.22473894,20.2844444 L6.56570178,20.9405848 C6.56258868,21.0159649 6.55430666,21.0897661 6.55430666,21.1656725 C6.55430666,21.5063743 6.58954929,21.8383041 6.65280981,22.1604678 C6.75859644,22.1449708 6.8622685,22.1052047 6.94420762,22.0236842 L7.9579031,21.0144444 C8.16060696,20.8125731 8.16060696,20.4862573 7.9579031,20.2844444" id="Shape" fill="#4CAF50"></path>
                        <path d="M9.29876766,23.8980702 L8.2617533,24.9305263 C8.25135673,24.9408772 8.24777373,24.9547953 8.23843443,24.965614 C8.49353232,25.1989474 8.77200783,25.4064912 9.07010174,25.585614 L10.0319318,24.6280117 C10.2346944,24.4261404 10.2346944,24.099883 10.0319318,23.8980702 C9.82922796,23.6961988 9.50153025,23.6961988 9.29876766,23.8980702" id="Shape" fill="#4CAF50"></path>
                    </g>
                </g>
            </g>
        </g>
    </g>
</svg>