<?xml version="1.0" encoding="UTF-8"?>
<svg width="44px" height="44px" viewBox="0 0 44 44" version="1.1" xmlns="http://www.w3.org/2000/svg" xmlns:xlink="http://www.w3.org/1999/xlink">
    <!-- Generator: Sketch 60.1 (88133) - https://sketch.com -->
    <title>编组 11</title>
    <desc>Created with Sketch.</desc>
    <defs>
        <linearGradient x1="50%" y1="0%" x2="50%" y2="100%" id="linearGradient-1">
            <stop stop-color="#00A38D" offset="0%"></stop>
            <stop stop-color="#80EFC6" offset="100%"></stop>
        </linearGradient>
        <linearGradient x1="50%" y1="0%" x2="50%" y2="127.982462%" id="linearGradient-2">
            <stop stop-color="#FFFFFF" offset="0%"></stop>
            <stop stop-color="#FFFFFF" stop-opacity="0.612926136" offset="100%"></stop>
        </linearGradient>
    </defs>
    <g id="7-我的" stroke="none" stroke-width="1" fill="none" fill-rule="evenodd">
        <g id="我的-首页" transform="translate(-30.000000, -345.000000)">
            <g id="编组-4" transform="translate(0.000000, 272.000000)">
                <g id="编组-2" transform="translate(30.000000, 73.000000)">
                    <g id="编组-11">
                        <rect id="矩形备份-5" fill="url(#linearGradient-1)" x="0" y="0" width="44" height="44" rx="5"></rect>
                        <g id="zhongzhihu" transform="translate(7.000000, 8.000000)" fill-rule="nonzero">
                            <path d="M28.3915836,21.9682999 C27.570797,21.5684676 26.4290779,21.1933247 24.9983317,20.8538444 C22.5703799,20.2811857 20.109897,20.0034291 20.0854986,20 L20.0529674,20.2859864 C24.393377,20.964947 27.3092964,22.3338413 27.3092964,23.6903909 C27.3092964,25.6484036 21.2822705,27.4994285 14.9086625,27.4994285 C8.53380324,27.4994285 2.50802853,25.6484035 2.50802853,23.6903909 C2.50802853,22.3530443 5.36639279,20.9937514 9.62109522,20.3079326 L9.59231764,20.0233178 C9.56854486,20.0253753 7.18938983,20.2427798 4.84088919,20.7845767 C1.62781,21.5245752 0,22.5032386 0,23.6903909 C0,24.3892403 0.344079736,25.0661434 1.02285524,25.7039549 C1.70225633,26.3417664 2.67443802,26.9027661 3.92563708,27.3842109 C6.67201902,28.4417435 10.4694082,29 14.9086625,29 C17.1708304,29 19.3078784,28.8367751 21.2597489,28.5144403 C23.0414564,28.2209098 24.6311048,27.8018746 25.9830254,27.2710508 C27.2304709,26.7813762 28.2552029,26.195687 28.9458648,25.5791359 C29.6365267,24.961899 30,24.3103711 30,23.6903909 C30,23.0594376 29.4732452,22.4963804 28.3915836,21.9689857 L28.3915836,21.9682999 Z" id="路径" fill-opacity="0.776005245" fill="#FFFFFF"></path>
                            <path d="M11.3634434,4.50562367 L12.3388733,5.10165037 C12.3896323,5.1315492 13.5882797,5.86797037 14.0958702,6.47894646 C14.1509101,6.54394391 14.2139003,6.62324081 14.3007411,6.73568642 C14.5655443,7.07822301 14.8719332,7.5514045 15.1079934,7.93488949 C16.633211,5.92841801 17.9070797,5.85497087 18.0208288,5.85302096 L18.8806749,5.85302096 L18.0642492,6.11821059 C18.0544643,6.12146045 17.0246061,6.47959643 15.9666163,8.1851297 C15.8669329,8.40417113 15.7501259,8.63491211 15.6253687,8.87605266 C15.3636233,9.38758263 15.0670192,9.96670998 14.8340168,10.6524332 C14.7959603,10.7663413 14.7604799,10.8812031 14.7276063,10.9969197 L14.7110943,11.0573673 L14.6945823,11.117815 C14.6731779,11.1977618 14.6529966,11.2744588 14.6352615,11.3492059 L14.618138,11.423303 L14.6010145,11.4974001 L14.596122,11.5207992 C14.80772,11.3310066 14.9893518,11.1756627 15.1232822,11.0684169 C15.6718469,10.6264342 16.7542989,10.3020969 16.8906756,10.2624484 L16.9029067,10.2591986 L17.8936255,9.97645962 L16.9983092,10.5087888 C16.9860782,10.5159385 15.7433988,11.2582095 15.1997266,11.9296332 C14.8511404,12.3586164 14.5759407,12.8239982 14.4157134,13.1158368 L14.3716814,13.1983835 L14.3716814,13.2094331 C14.3635254,13.3349478 14.35802,13.4606412 14.3551694,13.5864183 C14.3533348,13.6403662 14.3515001,13.6936641 14.3515001,13.7469621 L14.3496654,13.8659074 L14.3496654,14.1271972 L14.350277,14.2487424 L14.3533348,14.3735375 L14.3533348,14.412536 C14.3629707,14.7439524 14.3825504,15.0749577 14.412044,15.4050472 L14.4151018,15.4420957 L14.4163249,15.4550952 L14.417548,15.4687447 L14.4358947,15.6637371 L14.4456795,15.7547335 L14.4456795,15.7664331 L14.4554644,15.8502798 C14.5398375,16.5879228 14.6683201,17.319107 14.8401324,18.0393941 C15.1134974,17.8177528 15.5452551,17.4732663 15.8112814,17.2873735 C16.2675013,16.9656361 17.2588316,16.7725937 17.3952083,16.7465947 L17.4098856,16.7439948 L17.9407152,16.6484485 C17.983524,16.5834511 18.0232751,16.5191036 18.0587452,16.4625558 C17.6759119,16.3923586 17.0111519,16.3260611 16.7078207,16.5431527 C16.6536537,16.58081 16.6017727,16.6220567 16.5524858,16.6666478 L16.4809339,16.7355451 L16.2571048,16.9701859 L16.2632204,16.636099 C16.2742284,16.075171 16.5873444,15.5948398 17.2459889,15.1249081 C18.2318153,14.4209857 20.4181236,14.923416 20.6382833,14.9767139 L20.6529606,14.9806138 L20.8266422,15.0235121 L20.7324628,15.1847058 C20.6755882,15.282202 19.3307792,17.5727124 18.4635945,18.1290906 C18.2452695,18.272735 17.9933089,18.350082 17.7370674,18.3500819 C17.4433255,18.3461666 17.1568807,18.2522843 16.91208,18.0796925 L16.8105619,18.0010456 L16.5530973,17.786554 L16.8790561,17.7586051 C16.957855,17.7522287 17.0341251,17.7261732 17.101662,17.6825581 C17.2741204,17.5701125 17.5114037,17.275024 17.721167,16.9747358 L17.7982229,16.8622902 L17.4802144,17.0033346 C17.4679833,17.0085344 16.3164256,17.5220143 15.8595942,18.015345 C15.5776674,18.3253829 15.3244838,18.6633697 15.1037125,19.0254055 C15.4737032,20.2369581 15.9366501,21.1878709 16.3152025,21.5148081 C17.3964314,22.4494715 18.4281243,22.7107613 18.5076265,22.7302606 L18.5119073,22.7315605 L19.7178934,23 L12.592057,23 L13.0598964,22.7432601 C13.0709044,22.7374103 14.1319519,22.1433335 13.9839557,21.3568643 C13.9613281,21.2398689 13.8989496,21.0130278 13.8194475,20.726389 C13.7650191,20.5313966 13.7032521,20.3097553 13.635981,20.0569152 L13.6310886,20.0387159 L13.6261961,20.0179167 L13.6237499,20.0075171 L13.5839989,19.856723 L13.5442478,19.7007291 L13.5338513,19.6617306 L13.5283474,19.6422314 C13.4641341,19.3822416 13.3999209,19.1118521 13.3387654,18.833663 L13.3314267,18.8031142 L13.3253112,18.7745153 L13.3240881,18.7667157 C13.3029269,18.6722267 13.2825409,18.5775434 13.2629326,18.4826768 L13.2354126,18.3474821 L13.2335779,18.3351325 L13.2323549,18.3273328 C13.189546,18.1115413 13.1491834,17.88925 13.1106555,17.6624089 L13.0556155,17.3198723 L13.0525577,17.3036229 C12.954888,16.6741452 12.8895586,16.0394795 12.8568602,15.4024473 C12.6698099,15.0032253 12.4541086,14.6199068 12.2116699,14.2558922 C11.649651,13.4245747 10.298115,12.3462669 10.1929275,12.2630701 L10.186812,12.2578703 L9.5526297,11.7606398 C9.63152026,12.1070762 9.75444278,12.446363 9.94830563,12.6296558 C10.0088496,12.6881535 10.0724513,12.7434013 10.1397223,12.7927994 L10.2424635,12.8642966 L10.5207209,13.0365399 L10.2069933,13.1132369 C10.0889632,13.1424857 9.96787539,13.1574351 9.84617599,13.1574351 C9.3306353,13.1574351 8.80286353,12.8876957 8.20965537,12.3254677 C7.11007988,11.2822585 7.01039644,8.3105748 7.00366932,8.03368562 L7.00366932,8.01743628 L7,7.82829368 L7.17001224,7.88484145 C7.29843875,7.92773976 10.314627,8.94559994 11.2099432,9.88286326 C11.8153824,10.5172384 11.8153824,11.3329565 11.6050076,11.9192336 L11.5695374,12.01023 L11.4386646,12.3274176 L11.3322541,11.9991805 C11.2987167,11.8942407 11.2421102,11.7993173 11.1671343,11.7222913 C10.8423987,11.3817046 9.83639111,10.9949698 9.42726095,10.8474255 C9.4388805,11.0313683 9.45783867,11.2153111 9.48535866,11.397304 L9.53244838,11.6696434 L10.3121807,12.0245295 C10.3696669,12.0505285 11.7352687,12.676454 12.3718973,13.2828802 C12.497266,13.4011756 12.659328,13.5649692 12.8660335,13.7801108 C12.8941651,13.3316283 12.949205,12.8863957 13.0305418,12.445713 L13.0965897,12.1161759 L13.0990359,12.1051263 L13.351608,10.8116769 L13.351608,11.1789126 C13.4616879,10.8435257 13.5931722,10.5165885 13.7460609,10.2007008 C13.9571239,9.75944436 14.189204,9.32990428 14.4413987,8.9137512 C14.3570041,8.63816197 14.1252248,7.93488949 13.7748039,7.28036512 C13.3467156,6.47959646 12.2826103,5.41233822 12.1939348,5.32459164 L12.1878193,5.31874186 L11.3634434,4.50627365 L11.3634434,4.50562367 Z M21.4706094,8.40417113 L21.4840636,8.40872095 L21.6528527,8.46916859 L21.5452191,8.6199627 C21.4669401,8.72915842 19.6169868,11.3030577 18.5241384,11.8600859 C18.2975683,11.9782144 18.0487494,12.0402158 17.7963882,12.0414288 C17.3481186,12.0414288 16.9499964,11.8379868 16.6650119,11.5825468 L16.5910137,11.5110496 L16.3525074,11.269909 L16.6809123,11.2764088 C16.7799842,11.2777087 16.8784445,11.2543096 16.9677315,11.2081614 C17.3591266,11.0079692 18.0116555,10.1734019 18.273401,9.82501554 C17.826966,9.69112078 16.995863,9.51627762 16.59346,9.74766858 C16.5237427,9.78731703 16.4564717,9.83151529 16.3922584,9.8796134 L16.298079,9.95501045 L16.0534571,10.170152 L16.0901504,9.83411518 C16.1623138,9.17439098 16.5830635,8.64401175 17.4147781,8.1675804 C18.6654076,7.44610864 21.2345493,8.32162437 21.4706094,8.40417113 L21.4706094,8.40417113 Z M23.8226491,0.981461594 L24,0.989911255 L23.9357868,1.16670435 C23.8666811,1.35519697 22.230772,5.78932346 20.9073674,7.04247441 C20.4058925,7.51500591 19.8450968,7.69634883 19.317325,7.69634883 C18.9458562,7.69421943 18.5788768,7.60988173 18.2397655,7.44870853 L18.0966616,7.37461143 L17.8080078,7.21536766 L18.1217354,7.12437122 C18.2721779,7.08147291 18.4116123,7.00087605 18.5271962,6.89038037 C19.0427369,6.40419941 19.6922081,4.79486238 19.9025829,4.25148362 C19.3876538,4.24823375 17.9248147,4.29568188 17.3566803,4.8858588 C17.2710627,4.97360536 17.1915605,5.06655174 17.1169509,5.16534787 L17.0099288,5.31679195 L16.8301317,5.59758095 L16.7781495,5.26219409 C16.6313763,4.30283164 17.0080941,3.41301645 18.0012591,2.37825692 C18.6440032,1.71008306 19.8212462,1.27135023 21.5017987,1.07635788 C21.9641341,1.0243599 22.4283042,0.99186119 22.8930858,0.978861681 L23.3578675,0.973661883 L23.8226491,0.981461594 Z M7.93078637,0 L8.10079861,0.0565477682 C8.26347218,0.110495652 12.0734585,1.39614534 13.2011655,2.57714913 C13.9961868,3.40976655 13.9533779,4.49392412 13.6476005,5.23034533 L13.5161163,5.54883286 L13.4103173,5.21994573 C13.3660045,5.08187575 13.2918578,4.95676756 13.1938269,4.85466001 C12.765127,4.40617756 11.414814,3.89594752 10.9304626,3.72305432 C10.9604288,4.22613463 11.0894669,5.56833212 11.6062307,6.05906291 C11.7230376,6.17215847 11.850241,6.27355452 11.9853946,6.36065109 L12.2605943,6.53289437 L11.9487014,6.61024133 C11.7970358,6.64728989 11.642924,6.66613915 11.487589,6.66613915 C10.8466796,6.66613915 10.2008778,6.33010228 9.45050003,5.61903012 C8.03169293,4.27098288 7.93812505,0.354236141 7.93384417,0.188492619 L7.93078637,0 L7.93078637,0 Z" id="形状" fill="url(#linearGradient-2)"></path>
                        </g>
                    </g>
                </g>
            </g>
        </g>
    </g>
</svg>