<?xml version="1.0" encoding="UTF-8"?>
<svg width="22px" height="22px" viewBox="0 0 22 22" version="1.1" xmlns="http://www.w3.org/2000/svg" xmlns:xlink="http://www.w3.org/1999/xlink">
    <!-- Generator: Sketch 60.1 (88133) - https://sketch.com -->
    <title>编组</title>
    <desc>Created with Sketch.</desc>
    <g id="7-我的" stroke="none" stroke-width="1" fill="none" fill-rule="evenodd">
        <g id="我的-首页" transform="translate(-20.000000, -474.000000)" fill="#00B459" fill-rule="nonzero" stroke="#00B459" stroke-width="0.2">
            <g id="编组" transform="translate(21.000000, 475.000000)">
                <path d="M9.98783683,18.9698728 C14.9485155,18.9698728 18.9698728,14.9485155 18.9698728,9.98783683 C18.9698728,5.02715819 14.9485155,1.0058009 9.98783683,1.0058009 C5.02715819,1.0058009 1.0058009,5.02715819 1.0058009,9.98783683 C1.0058009,14.9485155 5.02715819,18.9698728 9.98783683,18.9698728 Z M9.98783683,19.9678768 C4.47606037,19.9678768 0.00779689839,15.4996133 0.00779689839,9.98783683 C0.00779689839,4.47606037 4.47606037,0.00779689839 9.98783683,0.00779689839 C15.4996133,0.00779689839 19.9678768,4.47606037 19.9678768,9.98783683 C19.9678768,15.4996133 15.4996133,19.9678768 9.98783683,19.9678768 Z" id="形状"></path>
                <path d="M9.98783683,16.6744636 C13.680751,16.6744636 16.6744636,13.680751 16.6744636,9.98783683 C16.6744636,6.29492265 13.680751,3.30121007 9.98783683,3.30121007 C6.29492265,3.30121007 3.30121007,6.29492265 3.30121007,9.98783683 C3.30121007,13.680751 6.29492265,16.6744636 9.98783683,16.6744636 Z M9.98783683,17.6724676 C5.74372504,17.6724676 2.3032061,14.2319486 2.3032061,9.98783683 C2.3032061,5.74372507 5.74372507,2.3032061 9.98783683,2.3032061 C14.2319486,2.3032061 17.6724676,5.74372507 17.6724676,9.98783683 C17.6724676,14.2319486 14.2319486,17.6724676 9.98783683,17.6724676 Z" id="形状"></path>
                <path d="M10.4868388,14.0102919 C11.4544037,13.7682759 12.1860404,12.9098927 12.2226672,11.8632859 C12.2668787,10.5964197 11.2756612,9.53344562 10.0086951,9.48923402 C9.99206036,9.48864436 9.97540663,9.48887752 9.95879491,9.48993263 C9.94227413,9.48771436 9.92565364,9.48631544 9.9089945,9.48574102 C9.24801647,9.46258732 8.73085079,8.9080963 8.75390468,8.24701846 C8.77695858,7.58604042 9.3315494,7.06887474 9.99262725,7.09192863 C10.6536053,7.11508234 11.170771,7.66957335 11.1476173,8.3306512 C11.1379991,8.60607704 11.3534788,8.83715084 11.6289047,8.84676897 C11.9043305,8.8563871 12.1354043,8.64090738 12.1450225,8.36548154 C12.1819486,7.31178892 11.4698728,6.40560131 10.4868388,6.15919412 L10.4868388,5.69641965 C10.4868388,5.42082846 10.263428,5.19741766 9.98783683,5.19741766 C9.71224564,5.19741766 9.48883484,5.42082846 9.48883484,5.69641965 L9.48883484,6.14182885 C8.52775699,6.34781687 7.79242765,7.18534183 7.75649951,8.21218813 C7.71418413,9.42406437 8.66228794,10.4407311 9.87416418,10.4831462 C9.89103045,10.483745 9.90769711,10.4834456 9.92406437,10.4823478 C9.94043163,10.4845434 9.9569985,10.4860404 9.97396456,10.4866392 C10.6900324,10.5115893 11.2502121,11.1123877 11.225262,11.8284556 C11.2003119,12.5446232 10.5995135,13.1049027 9.88334581,13.0798528 C9.16727795,13.0549027 8.6069985,12.4541043 8.6320484,11.7379366 C8.63827024,11.5597674 8.54896728,11.3918128 8.39777908,11.2973399 C8.24659089,11.202867 8.05648654,11.1962284 7.8990765,11.2799248 C7.74166646,11.3636211 7.64086506,11.524937 7.63464322,11.7031063 C7.59472305,12.8473179 8.39931388,13.8251622 9.48883484,14.0364396 L9.48883484,14.4788548 C9.48883484,14.754446 9.71224564,14.9778568 9.98783683,14.9778568 C10.263428,14.9778568 10.4868388,14.754446 10.4868388,14.4788548 L10.4868388,14.0102919 L10.4868388,14.0102919 Z" id="路径"></path>
            </g>
        </g>
    </g>
</svg>