<?xml version="1.0" encoding="UTF-8"?>
<svg width="18px" height="16px" viewBox="0 0 18 16" version="1.1" xmlns="http://www.w3.org/2000/svg" xmlns:xlink="http://www.w3.org/1999/xlink">
    <!-- Generator: Sketch 60.1 (88133) - https://sketch.com -->
    <title>shequ-3</title>
    <desc>Created with Sketch.</desc>
    <g id="8-我的社区" stroke="none" stroke-width="1" fill="none" fill-rule="evenodd">
        <g id="1我的-社区" transform="translate(-29.000000, -71.000000)" fill-rule="nonzero">
            <g id="编组-2" transform="translate(15.000000, 62.000000)">
                <g id="shequ-3-2" transform="translate(14.000000, 9.000000)">
                    <g id="shequ-3">
                        <polygon id="路径" fill="#F6E9D0" points="2.86363636 5.06913408 2.86363636 15.6 15.1363636 15.6 15.1363636 5.06913408 9.00014981 0.8"></polygon>
                        <path d="M15.5454545,16 L2.45454545,16 L2.45454545,5.20645737 L9.00000001,0.8 L15.5454545,5.20645737 L15.5454545,16 Z M3.18104685,15.3056701 L14.8189532,15.3056701 L14.8189532,5.56544437 L9.00000001,1.64888171 L3.18104685,5.56544437 L3.18104685,15.3056701 Z" id="形状" fill="#F6E9D0"></path>
                        <path d="M9.00262875,10.8 C8.45947015,10.7999225 7.9385314,11.0157515 7.55443288,11.3999988 C7.17033436,11.7842461 6.95454545,12.3054302 6.95454545,12.8488767 L6.95454545,15.6 L11.0454545,15.6 L11.0454545,12.8488767 C11.0454545,11.7192507 10.131653,10.8027391 9.00262875,10.8 L9.00262875,10.8 Z" id="路径" fill="#EEC868"></path>
                        <path d="M11.4545455,16 L6.54545455,16 L6.54545455,12.8427335 C6.54710258,11.4943283 7.64621345,10.4016384 9.00254234,10.4 C10.3562618,10.4055586 11.4513566,11.4969129 11.4536482,12.8427335 L11.4545455,16 Z M7.26538277,15.2839803 L10.7349163,15.2839803 L10.7349163,12.8427335 C10.7349786,12.2265404 10.4043476,11.6571281 9.86758328,11.3490137 C9.33081899,11.0408992 8.66948012,11.0408992 8.13271582,11.3490137 C7.59595153,11.6571281 7.26532047,12.2265404 7.26538277,12.8427335 L7.26538277,15.2839803 Z" id="形状" fill="#EEC868"></path>
                        <path d="M17.5909091,6.33185175 L9.88616999,0.663942485 C9.41219975,0.312019172 8.75738342,0.312019172 8.28341318,0.663942485 L0.409090909,6.45589541 L0.427464918,10 L0.668435698,9.82279477 L7.43188272,4.83712564 C8.40862157,4.10971416 9.76005796,4.10971416 10.7367968,4.83712564 L17.5421125,9.83254106 L17.5909091,6.33185175 Z" id="路径" fill="#F6D06C"></path>
                        <path d="M0.0233089982,10.4 L0,6.07999153 L8.05946655,0.326604249 C8.66547039,-0.108868083 9.50162793,-0.108868083 10.1076318,0.326604249 L18,5.96219931 L17.9394571,10.2329597 L10.5262857,4.95218133 C9.67298771,4.33837555 8.49501875,4.33837555 7.64172076,4.95218133 L0.0233089982,10.4 Z M0.730449705,6.42559221 L0.744374553,9.01759729 L7.20429855,4.39806824 C8.31586344,3.5975702 9.85123488,3.5975702 10.9627998,4.39806824 L17.2289866,8.86207698 L17.2659177,6.30549597 L9.6714204,0.881005347 C9.32367249,0.63130176 8.84403125,0.63130176 8.49628334,0.881005347 L0.730449705,6.42559221 Z" id="形状" fill="#F6D06C"></path>
                    </g>
                </g>
            </g>
        </g>
    </g>
</svg>