<?xml version="1.0" encoding="UTF-8"?>
<svg width="28px" height="28px" viewBox="0 0 28 28" version="1.1" xmlns="http://www.w3.org/2000/svg" xmlns:xlink="http://www.w3.org/1999/xlink">
    <!-- Generator: Sketch 60.1 (88133) - https://sketch.com -->
    <title>编组 32</title>
    <desc>Created with Sketch.</desc>
    <g id="5-商城" stroke="none" stroke-width="1" fill="none" fill-rule="evenodd">
        <g id="1商城-商品详情" transform="translate(-331.000000, -985.000000)">
            <g id="编组-28" transform="translate(-1.000000, 742.000000)">
                <g id="编组-37" transform="translate(17.000000, 243.000000)">
                    <g id="编组-32" transform="translate(315.000000, 0.000000)">
                        <circle id="椭圆形" stroke="#00B459" fill="#FFFFFF" cx="14" cy="14" r="13.5"></circle>
                        <g id="编组" transform="translate(5.600000, 5.600000)" fill="#00B459" fill-rule="nonzero">
                            <path d="M16.8,2.29386892 C16.8,1.02706131 15.7755257,0 14.5119091,0 C13.2482924,0 12.2238182,1.02706131 12.2238182,2.29386892 C12.2238182,3.15320648 12.6952141,3.90204369 13.3927948,4.29487902 L12.4808388,8.35428706 C12.458204,8.35362932 12.4354051,8.35313601 12.4124422,8.35313601 C11.7806338,8.35313601 11.2086931,8.60981912 10.7947045,9.02485318 L6.61807744,6.60765798 C6.65929744,6.43341654 6.68010465,6.25494975 6.68007732,6.07587503 C6.68007732,4.80906742 5.65560307,3.78200611 4.39198641,3.78200611 C3.12836975,3.78200611 2.1038955,4.80906742 2.1038955,6.07587503 C2.1038955,6.92189335 2.56085759,7.66086446 3.24088806,8.05863284 L2.3076094,12.212591 C2.30104856,12.212591 2.29465175,12.2124266 2.28825494,12.2124266 C1.02447425,12.2122622 0,13.2393235 0,14.5061311 C0,15.7729387 1.02447425,16.8 2.28809091,16.8 C3.55170757,16.8 4.57618183,15.7729387 4.57618183,14.5061311 C4.57618183,13.6634015 4.12266417,12.9268969 3.44722629,12.5281419 L4.38148908,8.36974395 C4.38493351,8.36974395 4.38854197,8.36990839 4.39198641,8.36990839 C5.04790581,8.36990839 5.639365,8.0931642 6.05647004,7.64984731 L10.2030812,10.0499413 C10.1508114,10.2447998 10.1243951,10.4457167 10.1245153,10.6474982 C10.1245153,11.9143058 11.1489895,12.9413672 12.4126062,12.9413672 C13.6762228,12.9413672 14.7006971,11.9143058 14.7006971,10.6474982 C14.7006971,9.82285647 14.2665339,9.09983556 13.614879,8.69565422 L14.5378244,4.58773784 C15.7894675,4.57359643 16.8,3.55212591 16.8,2.29386892 Z M2.29235546,15.6035706 C1.6823619,15.6035706 1.18652686,15.1061546 1.18652686,14.4949495 C1.18652686,13.8834156 1.6823619,13.3863284 2.29235546,13.3863284 C2.90202097,13.3863284 3.39818405,13.8834156 3.39818405,14.4949495 C3.39818405,15.1061546 2.90202097,15.6035706 2.29235546,15.6035706 Z M4.39625095,7.17347898 C3.7862574,7.17347898 3.29042235,6.67606296 3.29042235,6.06485788 C3.29042235,5.45332394 3.7862574,4.95623679 4.39625095,4.95623679 C5.00591647,4.95623679 5.50207955,5.45332394 5.50207955,6.06485788 C5.50207955,6.67606296 5.00591647,7.17347898 4.39625095,7.17347898 Z M12.4168707,11.7447733 C11.8068772,11.7447733 11.3110421,11.2473573 11.3110421,10.6361522 C11.3110421,10.0246183 11.8068772,9.52753113 12.4168707,9.52753113 C13.0265362,9.52753113 13.5226993,10.0246183 13.5226993,10.6361522 C13.5226993,11.2473573 13.0265362,11.7447733 12.4168707,11.7447733 Z M14.5163376,1.17423068 C15.1260032,1.17423068 15.6221662,1.67131783 15.6221662,2.28285177 C15.6221662,2.89405685 15.1260032,3.39147287 14.5163376,3.39147287 C13.9063441,3.39147287 13.4105091,2.89405685 13.4105091,2.28285177 C13.4105091,1.67131783 13.9063441,1.17423068 14.5163376,1.17423068 Z" id="形状"></path>
                        </g>
                    </g>
                </g>
            </g>
        </g>
    </g>
</svg>