<?xml version="1.0" encoding="UTF-8"?>
<svg width="14px" height="14px" viewBox="0 0 14 14" version="1.1" xmlns="http://www.w3.org/2000/svg" xmlns:xlink="http://www.w3.org/1999/xlink">
    <!-- Generator: Sketch 60.1 (88133) - https://sketch.com -->
    <title>形状</title>
    <desc>Created with Sketch.</desc>
    <g id="5-商城" stroke="none" stroke-width="1" fill="none" fill-rule="evenodd">
        <g id="1商城首页" transform="translate(-307.000000, -916.000000)" fill="#F7B500" fill-rule="nonzero">
            <g id="编组-27" transform="translate(15.000000, 740.000000)">
                <g id="编组备份-3" transform="translate(292.000000, 176.000000)">
                    <path d="M12.622836,5.60761038 L8.89482529,5.60761038 C10.3393859,0.272488718 7.89951105,0 7.89951105,0 C6.86539125,0 7.07976787,0.817706689 7.00156346,0.954023209 C7.00156346,3.56313519 4.23030202,5.60761038 4.23030202,5.60761038 L4.23030202,13.00661 C4.23030202,13.7369561 5.22561626,14 5.61606102,14 L11.2173855,14 C11.7445477,14 12.1738301,12.6175122 12.1738301,12.6175122 C13.5596051,7.90541203 13.5596051,6.50337715 13.5596051,6.50337715 C13.5596051,5.52982289 12.622836,5.60761038 12.622836,5.60761038 L12.622836,5.60761038 L12.622836,5.60761038 Z M2.70043331,5.61006154 L0.468120007,5.61006154 C0.00710366608,5.61006154 -2.81552559e-13,6.06287002 -2.81552559e-13,6.06287002 L0.461016341,13.5250329 C0.461016341,13.999984 0.936785209,13.999984 0.936785209,13.999984 L2.86886863,13.999984 C3.27137198,13.999984 3.26781268,13.6858033 3.26781268,13.6858033 L3.26781268,6.17593528 C3.26781268,5.6028158 2.70043331,5.61006154 2.70043331,5.61006154 L2.70043331,5.61006154 L2.70043331,5.61006154 Z" id="形状"></path>
                </g>
            </g>
        </g>
    </g>
</svg>