<?xml version="1.0" encoding="UTF-8"?>
<svg width="18px" height="16px" viewBox="0 0 18 16" version="1.1" xmlns="http://www.w3.org/2000/svg" xmlns:xlink="http://www.w3.org/1999/xlink">
    <!-- Generator: Sketch 60.1 (88133) - https://sketch.com -->
    <title>形状</title>
    <desc>Created with Sketch.</desc>
    <g id="6-社区" stroke="none" stroke-width="1" fill="none" fill-rule="evenodd">
        <g id="1社区-首页" transform="translate(-99.000000, -530.000000)" fill="#FFFFFF" fill-rule="nonzero">
            <g id="编组" transform="translate(99.000000, 530.000000)">
                <path d="M12.3677327,0 C10.8870431,0 9.51033138,0.742789472 8.60418186,1.96753648 C7.69852519,0.742454317 6.32212896,0 4.84065076,0 C2.17150983,0 0,2.37414254 0,5.29264118 C0,7.03370928 0.777744505,8.25514412 1.40297232,9.23646768 C3.22000303,12.0869489 7.7886236,15.6342044 7.98212818,15.7837835 C8.16855501,15.9278818 8.38650642,16 8.60394525,16 C8.82189667,16 9.03951293,15.9278621 9.22568346,15.7837835 C9.41944433,15.6342044 13.9883804,12.0869489 15.804859,9.23646768 C16.4303629,8.25506526 17.2083834,7.03370928 17.2083834,5.29264118 C17.2083834,2.37414256 15.036775,0 12.3677327,0 L12.3677327,0 Z M14.9209877,8.56283911 C13.191453,11.2769701 8.60392556,14.8219977 8.60392556,14.8219977 C8.60392556,14.8219977 4.01691073,11.2769701 2.28678455,8.56283911 C1.64868274,7.56089347 1.07735625,6.6085118 1.07735625,5.29266092 C1.07735625,3.0204262 2.76205862,1.17770658 4.84065076,1.17770658 C6.37675974,1.17770658 7.69542991,2.18548792 8.28039929,3.6282652 L8.28039929,3.62110859 L8.28195679,3.62110859 C8.32554707,3.77151577 8.45261146,3.8812308 8.60392556,3.8812308 C8.75575223,3.8812308 8.88279691,3.77151577 8.92607175,3.62110859 L8.93050767,3.62110859 C9.51687683,2.18262922 10.8337332,1.17770658 12.367713,1.17770658 C14.4457925,1.17770658 16.1310075,3.02042618 16.1310075,5.29266092 C16.1310075,6.6085118 15.5595824,7.56087374 14.9209877,8.56283911 L14.9209877,8.56283911 Z" id="形状"></path>
            </g>
        </g>
    </g>
</svg>