<?xml version="1.0" encoding="UTF-8"?>
<svg width="11px" height="12px" viewBox="0 0 11 12" version="1.1" xmlns="http://www.w3.org/2000/svg" xmlns:xlink="http://www.w3.org/1999/xlink">
    <!-- Generator: Sketch 60.1 (88133) - https://sketch.com -->
    <title>编组</title>
    <desc>Created with Sketch.</desc>
    <defs>
        <rect id="path-1" x="0" y="0" width="345" height="218" rx="8"></rect>
        <filter x="-7.5%" y="-10.1%" width="115.1%" height="123.9%" filterUnits="objectBoundingBox" id="filter-2">
            <feOffset dx="0" dy="4" in="SourceAlpha" result="shadowOffsetOuter1"></feOffset>
            <feGaussianBlur stdDeviation="8" in="shadowOffsetOuter1" result="shadowBlurOuter1"></feGaussianBlur>
            <feColorMatrix values="0 0 0 0 0.407843137   0 0 0 0 0.407843137   0 0 0 0 0.407843137  0 0 0 0.19 0" type="matrix" in="shadowBlurOuter1"></feColorMatrix>
        </filter>
    </defs>
    <g id="3-碳足迹" stroke="none" stroke-width="1" fill="none" fill-rule="evenodd">
        <g id="1备份-2" transform="translate(-30.000000, -1322.000000)">
            <g id="编组-19" transform="translate(15.000000, 1128.000000)">
                <g id="矩形">
                    <use fill="black" fill-opacity="1" filter="url(#filter-2)" xlink:href="#path-1"></use>
                    <use fill="#FFFFFF" fill-rule="evenodd" xlink:href="#path-1"></use>
                </g>
                <g id="编组-23" transform="translate(15.000000, 194.000000)" fill="#00B459" fill-rule="nonzero">
                    <g id="编组">
                        <path d="M5.02291667,11.9702381 C4.92132937,11.9702381 4.82609127,11.9321429 4.75625,11.8559524 L1.47371032,8.5734127 C0.527678571,7.62738095 0.000694444444,6.36388889 0.000694444444,5.02420635 C0.000694444444,3.68452381 0.521329365,2.42103175 1.47371032,1.475 C2.41974206,0.528968254 3.68323413,0.00833333333 5.02291667,0.00833333333 C6.36259921,0.00833333333 7.62609127,0.528968254 8.57212302,1.48134921 C9.51815476,2.42738095 10.0451389,3.69087302 10.0451389,5.03055556 C10.0451389,6.3702381 9.52450397,7.63373016 8.57212302,8.5797619 L5.28958333,11.8623016 C5.21974206,11.9321429 5.12450397,11.9702381 5.02291667,11.9702381 Z M5.02291667,0.770238095 C3.88640873,0.770238095 2.81339286,1.21468254 2.01339286,2.01468254 C1.20704365,2.82103175 0.762599206,3.89404762 0.762599206,5.03055556 C0.762599206,6.16706349 1.20704365,7.24007937 2.00704365,8.04007937 L5.01656746,11.0496032 L8.02609127,8.04007937 C8.83244048,7.23373016 9.27053571,6.16706349 9.27053571,5.03055556 C9.27053571,3.89404762 8.82609127,2.82103175 8.02609127,2.02103175 C7.22609127,1.21468254 6.1594246,0.770238095 5.02291667,0.770238095 Z" id="形状"></path>
                        <path d="M5.02291667,7.54484127 C3.92450397,7.54484127 3.02926587,6.65595238 3.02926587,5.55753968 C3.02926587,4.45912698 3.92450397,3.5702381 5.01656746,3.5702381 C6.10863095,3.5702381 7.00386905,4.46547619 7.00386905,5.55753968 C7.00386905,6.64960317 6.12132937,7.54484127 5.02291667,7.54484127 L5.02291667,7.54484127 Z M5.02291667,4.33214286 C4.34355159,4.33214286 3.79117063,4.8781746 3.79117063,5.55753968 C3.79117063,6.23690476 4.34355159,6.78293651 5.01656746,6.78293651 C5.69593254,6.78293651 6.24196429,6.23055556 6.24196429,5.55753968 C6.24831349,4.8781746 5.69593254,4.33214286 5.02291667,4.33214286 L5.02291667,4.33214286 Z" id="形状"></path>
                    </g>
                </g>
            </g>
        </g>
    </g>
</svg>