<?xml version="1.0" encoding="UTF-8"?>
<svg width="12px" height="14px" viewBox="0 0 12 14" version="1.1" xmlns="http://www.w3.org/2000/svg" xmlns:xlink="http://www.w3.org/1999/xlink">
    <!-- Generator: Sketch 60.1 (88133) - https://sketch.com -->
    <title>编组</title>
    <desc>Created with Sketch.</desc>
    <g id="8-我的租赁-缺" stroke="none" stroke-width="1" fill="none" fill-rule="evenodd">
        <g id="2我的租赁农场详情-消费者" transform="translate(-16.000000, -351.000000)" fill="#FF9F00" fill-rule="nonzero">
            <g id="编组-7" transform="translate(16.000000, 351.000000)">
                <g id="编组">
                    <path d="M5.86006944,13.9652778 C5.74155093,13.9652778 5.63043981,13.9208333 5.54895833,13.8319444 L1.7193287,10.0023148 C0.615625,8.89861111 0.000810185185,7.42453704 0.000810185185,5.86157407 C0.000810185185,4.29861111 0.608217593,2.82453704 1.7193287,1.72083333 C2.82303241,0.61712963 4.29710648,0.00972222222 5.86006944,0.00972222222 C7.42303241,0.00972222222 8.89710648,0.61712963 10.0008102,1.72824074 C11.1045139,2.83194444 11.7193287,4.30601852 11.7193287,5.86898148 C11.7193287,7.43194444 11.1119213,8.90601852 10.0008102,10.0097222 L6.17118056,13.8393519 C6.08969907,13.9208333 5.97858796,13.9652778 5.86006944,13.9652778 Z M5.86006944,0.898611111 C4.53414352,0.898611111 3.28229167,1.41712963 2.34895833,2.35046296 C1.40821759,3.2912037 0.889699074,4.54305556 0.889699074,5.86898148 C0.889699074,7.19490741 1.40821759,8.44675926 2.34155093,9.38009259 L5.85266204,12.8912037 L9.36377315,9.38009259 C10.3045139,8.43935185 10.815625,7.19490741 10.815625,5.86898148 C10.815625,4.54305556 10.2971065,3.2912037 9.36377315,2.35787037 C8.43043981,1.41712963 7.18599537,0.898611111 5.86006944,0.898611111 Z" id="形状"></path>
                    <path d="M5.86006944,8.80231481 C4.57858796,8.80231481 3.53414352,7.76527778 3.53414352,6.4837963 C3.53414352,5.20231481 4.57858796,4.16527778 5.85266204,4.16527778 C7.12673611,4.16527778 8.17118056,5.20972222 8.17118056,6.4837963 C8.17118056,7.75787037 7.14155093,8.80231481 5.86006944,8.80231481 L5.86006944,8.80231481 Z M5.86006944,5.05416667 C5.06747685,5.05416667 4.42303241,5.6912037 4.42303241,6.4837963 C4.42303241,7.27638889 5.06747685,7.91342593 5.85266204,7.91342593 C6.64525463,7.91342593 7.28229167,7.26898148 7.28229167,6.4837963 C7.28969907,5.6912037 6.64525463,5.05416667 5.86006944,5.05416667 L5.86006944,5.05416667 Z" id="形状"></path>
                </g>
            </g>
        </g>
    </g>
</svg>