<?xml version="1.0" encoding="UTF-8"?>
<svg width="14px" height="14px" viewBox="0 0 14 14" version="1.1" xmlns="http://www.w3.org/2000/svg" xmlns:xlink="http://www.w3.org/1999/xlink">
    <!-- Generator: Sketch 60.1 (88133) - https://sketch.com -->
    <title>编组</title>
    <desc>Created with Sketch.</desc>
    <g id="2-登录页" stroke="none" stroke-width="1" fill="none" fill-rule="evenodd">
        <g id="3" transform="translate(-54.000000, -365.000000)" fill="#9A9A9A" fill-rule="nonzero">
            <g id="编组" transform="translate(33.000000, 349.000000)">
                <g id="编组-3" transform="translate(21.000000, 16.000000)">
                    <g id="编组">
                        <path d="M6.97110536,7.89651284 C7.78472664,7.89651284 8.57350453,8.0564422 9.31570103,8.3700901 C10.0330542,8.67286901 10.6774298,9.10762847 11.2301954,9.6619468 C11.7845137,10.2162651 12.2177204,10.8606407 12.5220521,11.5764411 C12.7145884,12.0313859 12.8481217,12.5049631 12.9242046,12.9894094 L1.01800615,12.9894094 C1.09253634,12.5034104 1.22762231,12.0313859 1.42015865,11.5764411 C1.72293756,10.859088 2.15769702,10.2147124 2.71201533,9.6619468 C3.26633364,9.10762849 3.91070928,8.67442174 4.62650968,8.3700901 C5.36870619,8.0564422 6.15748406,7.89651284 6.97110536,7.89651284 M6.97110536,6.9648854 C3.12969497,6.9648854 0.0149539551,10.0796264 0.0149539551,13.9210368 L13.9272568,13.9210368 C13.9272568,10.0796264 10.8125157,6.9648854 6.97110536,6.9648854 Z" id="形状"></path>
                        <path d="M9.05795078,1.8036695 C9.61537452,2.36109324 9.92125886,3.10173704 9.92125886,3.89051492 C9.92125886,4.67929281 9.61382181,5.41993661 9.05795078,5.97736034 C8.50052704,6.53478408 7.75988325,6.84066842 6.97110536,6.84066842 C6.18232748,6.84066842 5.44168368,6.53323137 4.88425994,5.97736034 C4.32683621,5.41993661 4.02095187,4.67929281 4.02095187,3.89051492 C4.02095187,3.10173704 4.32838891,2.36109324 4.88425994,1.8036695 C5.44168368,1.24779847 6.18232748,0.940361428 6.97110536,0.940361428 C7.75988325,0.940361428 8.50052704,1.24779847 9.05795078,1.8036695 Z M6.97110536,0.00873401323 C4.82680959,0.00873401323 3.08932444,1.74621915 3.08932444,3.89051492 C3.08932444,6.0348107 4.82680957,7.77229583 6.97110536,7.77229583 C9.11540115,7.77229583 10.8528863,6.0348107 10.8528863,3.89051492 C10.8528863,1.74621915 9.11540113,0.00873401323 6.97110536,0.00873401323 Z" id="形状"></path>
                    </g>
                </g>
            </g>
        </g>
    </g>
</svg>