<?xml version="1.0" encoding="UTF-8"?>
<svg width="12px" height="14px" viewBox="0 0 12 14" version="1.1" xmlns="http://www.w3.org/2000/svg" xmlns:xlink="http://www.w3.org/1999/xlink">
    <!-- Generator: Sketch 60.1 (88133) - https://sketch.com -->
    <title>编组</title>
    <desc>Created with Sketch.</desc>
    <g id="2-登录页" stroke="none" stroke-width="1" fill="none" fill-rule="evenodd">
        <g id="3" transform="translate(-54.000000, -433.000000)" fill="#9A9A9A" fill-rule="nonzero">
            <g id="编组-2" transform="translate(33.000000, 417.000000)">
                <g id="编组-4" transform="translate(21.000000, 16.000000)">
                    <g id="编组">
                        <path d="M10.5012471,5.09452391 L9.54786145,5.09452391 L9.54786145,3.82359361 C9.54786145,1.72183461 7.8373092,0.01216175 5.734383,0.01216175 C3.6314568,0.01216175 1.92085656,1.72183459 1.92085656,3.82356163 L1.92085656,5.09452391 L0.967486953,5.09452391 C0.440931953,5.09452391 0.0141013437,5.52111467 0.0141013437,6.04738188 L0.0141013437,13.0349803 C0.0141013437,13.5612155 0.440947938,13.9878383 0.967486953,13.9878383 L10.5012471,13.9878383 C11.0278021,13.9878383 11.4546327,13.5612315 11.4546327,13.0349803 L11.4546327,6.04736589 C11.4546327,5.52111469 11.0277861,5.09452392 10.5012471,5.09452391 Z M2.87422619,3.82356162 C2.87422619,2.24727034 4.15718034,0.964987734 5.734367,0.964987734 C7.31155367,0.964987734 8.59450783,2.24727034 8.59450783,3.82356162 L8.59450783,5.09452391 L2.87422619,5.09452391 L2.87422619,3.82356162 Z M10.5012471,13.0349803 L0.967486953,13.0349803 L0.967486953,6.04736589 L10.5012471,6.04736589 L10.5012471,13.0349803 L10.5012471,13.0349803 Z" id="形状"></path>
                        <path d="M5.734383,11.2882286 C5.99756456,11.2882286 6.2110678,11.0748372 6.2110678,10.8117996 L6.2110678,8.27086636 C6.2110678,8.00786067 5.99756455,7.79443738 5.734383,7.79443738 C5.47120145,7.79443738 5.25769819,8.00786067 5.25769819,8.27086636 L5.25769819,10.8118156 C5.2576822,11.0748533 5.47120144,11.2882286 5.734383,11.2882286 Z" id="路径"></path>
                    </g>
                </g>
            </g>
        </g>
    </g>
</svg>