<?xml version="1.0" encoding="UTF-8"?>
<svg width="18px" height="18px" viewBox="0 0 18 18" version="1.1" xmlns="http://www.w3.org/2000/svg" xmlns:xlink="http://www.w3.org/1999/xlink">
    <!-- Generator: Sketch 60.1 (88133) - https://sketch.com -->
    <title>编组</title>
    <desc>Created with Sketch.</desc>
    <defs>
        <rect id="path-1" x="0" y="0" width="375" height="46"></rect>
        <filter x="-4.0%" y="-32.6%" width="108.0%" height="165.2%" filterUnits="objectBoundingBox" id="filter-2">
            <feOffset dx="0" dy="0" in="SourceAlpha" result="shadowOffsetOuter1"></feOffset>
            <feGaussianBlur stdDeviation="5" in="shadowOffsetOuter1" result="shadowBlurOuter1"></feGaussianBlur>
            <feColorMatrix values="0 0 0 0 0   0 0 0 0 0   0 0 0 0 0  0 0 0 0.0806107955 0" type="matrix" in="shadowBlurOuter1"></feColorMatrix>
        </filter>
    </defs>
    <g id="3-碳足迹" stroke="none" stroke-width="1" fill="none" fill-rule="evenodd">
        <g id="1备份-2" transform="translate(-311.000000, -2086.000000)">
            <g id="编组-20" transform="translate(0.000000, 2078.000000)">
                <g id="矩形">
                    <use fill="black" fill-opacity="1" filter="url(#filter-2)" xlink:href="#path-1"></use>
                    <use fill="#FFFFFF" fill-rule="evenodd" xlink:href="#path-1"></use>
                </g>
                <g id="编组-10" transform="translate(311.000000, 8.000000)" fill="#323232" fill-rule="nonzero">
                    <g id="编组">
                        <path d="M17.7979797,15.9288831 C17.7620681,15.6538957 17.7083262,15.3490237 17.6329872,15.0215501 C17.4177687,14.0868439 17.070958,13.1516355 16.5614151,12.2744381 C15.2226406,9.97082182 13.0307773,8.50020405 9.86226895,8.2611282 C11.7246497,7.83696948 13.1141524,6.17222814 13.1141524,4.18327787 C13.1141524,1.87338335 11.2397175,0.000706310428 8.92756278,0.000706310428 C6.61540808,0.000706310428 4.74097314,1.87338335 4.74097314,4.18327787 C4.74097314,6.17247927 6.13072703,7.83696948 7.99310773,8.26137933 C4.82459944,8.50045517 2.63273605,9.97157521 1.29371045,12.2756938 C0.784167518,13.1528911 0.437356861,14.0883507 0.221887235,15.023308 C0.146548207,15.3507816 0.0925552378,15.6559047 0.0566436529,15.9308921 C0.0368043789,16.0833281 0.025754653,16.1990991 0.0209831729,16.2734336 C-0.100814917,17.2063818 0.584519078,17.9861408 1.53203291,17.9861408 L16.3225904,17.9861408 C17.2748757,17.9861408 17.9747752,17.1980946 17.833389,16.2641418 C17.8281153,16.1895561 17.8173167,16.0762965 17.7979797,15.9288831 Z M5.85749749,4.18327787 C5.85749749,2.48915431 7.23193244,1.11597502 8.92756278,1.11597502 C10.6231931,1.11597502 11.9976281,2.48915433 11.9976281,4.18327787 C11.9976281,5.8774014 10.622942,7.25058073 8.92756278,7.25058073 C7.23218357,7.25058073 5.85749749,5.87740142 5.85749749,4.18327787 Z M1.53228403,16.8708721 C1.2557898,16.8708721 1.0895417,16.6792598 1.12922025,16.4082904 L1.13298719,16.3831774 L1.13424285,16.3578133 C1.13474512,16.349526 1.13625188,16.3274265 1.13951658,16.2925195 C1.14504143,16.2307415 1.15307761,16.1579137 1.16387619,16.0750408 C1.19526746,15.8347093 1.24273104,15.5649956 1.30978277,15.2736847 C1.50164615,14.4409374 1.8100339,13.6086922 2.25930563,12.8357138 C3.53178176,10.6456084 5.66086264,9.34199209 8.92756278,9.34199209 C12.1945141,9.34199209 14.3233438,10.6453572 15.5958199,12.8347093 C16.0448405,13.6071855 16.3532283,14.4391794 16.5450917,15.2719268 C16.6121434,15.5629866 16.6598581,15.8324492 16.6909982,16.0730318 C16.7017968,16.1559047 16.709833,16.2287324 16.7151067,16.2905104 C16.7183714,16.3254175 16.7198782,16.3472658 16.7203805,16.3558042 L16.7221384,16.3882 L16.7276632,16.4200935 C16.7723644,16.6772508 16.6031027,16.8708721 16.3230927,16.8708721 L1.53228403,16.8708721 Z" id="形状"></path>
                    </g>
                </g>
            </g>
        </g>
    </g>
</svg>