<?xml version="1.0" encoding="UTF-8"?>
<svg width="8px" height="14px" viewBox="0 0 8 14" version="1.1" xmlns="http://www.w3.org/2000/svg" xmlns:xlink="http://www.w3.org/1999/xlink">
    <!-- Generator: Sketch 60.1 (88133) - https://sketch.com -->
    <title>返回</title>
    <desc>Created with Sketch.</desc>
    <g id="7-我的" stroke="none" stroke-width="1" fill="none" fill-rule="evenodd">
        <g id="我的-首页" transform="translate(-351.000000, -478.000000)" fill="#666666" fill-rule="nonzero">
            <g id="返回" transform="translate(355.000000, 485.000000) scale(-1, 1) translate(-355.000000, -485.000000) translate(351.000000, 478.000000)">
                <path d="M1.20897174,7.04221604 L7.35505088,0.85372532 C7.48113282,0.726776746 7.52991107,0.542207516 7.48301135,0.36954307 C7.43611163,0.196878625 7.30065911,0.0623508023 7.12767746,0.0166349305 C6.9546958,-0.0290809413 6.77046503,0.0209604665 6.6443831,0.14790904 L0.145395812,6.69165541 C-0.0494389042,6.88791232 -0.0483179047,7.204945 0.147899817,7.39981919 L6.6468871,13.8545169 C6.77383567,13.9805988 6.95840491,14.0293771 7.13106936,13.9824774 C7.3037338,13.9355777 7.43826163,13.8001251 7.4839775,13.6271435 C7.52969337,13.4541618 7.47965196,13.269931 7.35270338,13.1438491 L1.20897174,7.04221604 Z" id="路径"></path>
            </g>
        </g>
    </g>
</svg>