<?xml version="1.0" encoding="UTF-8"?>
<svg width="21px" height="18px" viewBox="0 0 21 18" version="1.1" xmlns="http://www.w3.org/2000/svg" xmlns:xlink="http://www.w3.org/1999/xlink">
    <!-- Generator: Sketch 60.1 (88133) - https://sketch.com -->
    <title>编组</title>
    <desc>Created with Sketch.</desc>
    <g id="7-我的" stroke="none" stroke-width="1" fill="none" fill-rule="evenodd">
        <g id="我的-首页" transform="translate(-21.000000, -521.000000)" fill="#00B459" fill-rule="nonzero">
            <g id="编组" transform="translate(21.000000, 521.000000)">
                <path d="M15.7722431,14.0807655 L11.9722243,12.5998422 C11.9722243,12.5998422 11.2475323,12.3185246 10.9660119,12.0417706 C10.7850924,11.8638935 10.7981746,11.444351 10.9583045,10.9082858 C11.1184345,10.372322 13.0664626,8.19398663 13.0664626,6.21533203 C13.0664626,3.15947641 11.0574857,0.681772085 8.57947716,0.681772085 C6.10167142,0.681772085 4.09279597,3.15947641 4.09279597,6.21553486 C4.09279597,8.11072716 5.82866962,10.3700909 6.04295373,10.7807091 C6.25733924,11.1914288 6.20511193,11.8172438 6.03585487,12.0067834 C5.78171575,12.291549 4.8531851,12.5770245 4.8531851,12.5770245 L1.42747897,14.1037861 C0.627032001,14.3912898 -1.59872116e-14,15.1462027 -1.59872116e-14,15.9977614 L-1.59872116e-14,16.4016864 C-1.59872116e-14,17.3311298 0.754811448,17.8998498 1.6825308,17.8998498 L15.5169884,17.8998498 C16.4449106,17.8998498 17.1997221,17.3311298 17.1997221,16.4016864 L17.1997221,15.9977614 C17.1997221,15.1459998 16.5726901,14.3680664 15.7722431,14.0807655 Z M15.8698017,16.4017879 C15.8698017,16.4649677 15.8583421,16.4747033 15.846274,16.4849459 C15.80003,16.524091 15.6861441,16.5699294 15.5170898,16.5699294 L1.6825308,16.5699294 C1.51367939,16.5699294 1.39979342,16.5241925 1.35354943,16.4850473 C1.34148137,16.4748047 1.33002178,16.4650691 1.33002178,16.4018893 L1.33002178,15.9979642 C1.33002178,15.747983 1.57036884,15.4658541 1.87714093,15.355619 C1.90817308,15.3444636 1.93869817,15.3321928 1.96881761,15.3188063 L5.32414363,13.8232797 C5.89915114,13.6400278 6.6325646,13.3355882 7.02807242,12.8924166 C7.65845102,12.1863845 7.61950871,10.927047 7.22187124,10.1652381 C7.15483774,10.0366474 7.06346529,9.89690129 6.92513897,9.68535532 C6.66674053,9.29005033 6.27630334,8.69263071 5.95026292,8.01813777 C5.5141902,7.1158729 5.42271635,6.53985126 5.42271635,6.21553486 C5.42271635,5.04148513 5.78394681,3.9493765 6.43998272,3.1403095 C7.02999925,2.41257512 7.7897799,2.01189528 8.57937575,2.01189528 C9.36907302,2.01189528 10.1289551,2.41267653 10.719073,3.14041091 C11.3751089,3.94947791 11.7363394,5.04148513 11.7363394,6.21543344 C11.7363394,7.24294246 10.8484751,8.58361253 10.3178861,9.38456656 C9.99691632,9.86921575 9.78486328,10.1893742 9.68375526,10.5276855 C9.3590332,11.6145207 9.47677284,12.4431603 10.0335261,12.9904823 C10.4640212,13.4135742 11.1960149,13.7254169 11.4907189,13.8398099 L15.2891151,15.3201247 C15.3002704,15.3244854 15.3114258,15.3286433 15.3226825,15.3326998 C15.6242826,15.4409067 15.8695989,15.7394644 15.8695989,15.9979642 L15.8698017,16.4017879 L15.8698017,16.4017879 Z" id="形状"></path>
                <path d="M19.0384277,11.8229229 L15.6862455,10.5165302 C15.6862455,10.5165302 15.0469426,10.2683744 14.798584,10.0242751 C14.6389611,9.86739032 14.6505221,9.49723558 14.7917894,9.02435021 C14.9330566,8.55156626 16.6514874,6.63000676 16.6514874,4.88449895 C16.6514874,2.18875826 14.8792067,0.00312124399 12.6932655,0.00312124399 C12.2699707,0.00312124399 11.8623948,0.0853665865 11.4800706,0.237180739 C11.9192871,0.536853966 12.3219952,0.902749399 12.68282,1.33101337 L12.6933669,1.33081055 C13.3426082,1.33081055 13.9703501,1.66405123 14.4609826,2.26917819 C15.0174316,2.95543495 15.3238995,3.88426983 15.3238995,4.88460036 C15.3238995,5.68626427 14.6572153,6.74713792 14.1954853,7.44799805 L14.0983323,7.59494441 C13.8075834,8.03395808 13.6155086,8.32399715 13.5197754,8.64435847 C13.4364145,8.9233436 13.3848971,9.18458158 13.3648175,9.42776818 C13.311576,10.0719389 13.4795147,10.5892428 13.8681265,10.9711614 C14.2682993,11.3645395 14.9370117,11.6498122 15.2058556,11.7541654 L18.5564153,13.0599497 C18.5674692,13.0643104 18.578726,13.0684683 18.5898813,13.0725248 C18.8140024,13.1529447 18.9700759,13.3697641 18.9700759,13.5140738 L18.9700759,13.8414325 C18.938131,13.8525879 18.8858023,13.8642503 18.8132925,13.8642503 L17.7339618,13.8642503 C18.0530048,14.2550931 18.2852389,14.7096229 18.4047025,15.1919396 L18.8132925,15.1919396 C19.6317909,15.1919396 20.2976638,14.6902532 20.2976638,13.870335 L20.2976638,13.5139724 C20.2977652,12.7626089 19.7445613,12.0763522 19.0384277,11.8229229 Z" id="路径"></path>
            </g>
        </g>
    </g>
</svg>