<?xml version="1.0" encoding="UTF-8"?>
<svg width="44px" height="44px" viewBox="0 0 44 44" version="1.1" xmlns="http://www.w3.org/2000/svg" xmlns:xlink="http://www.w3.org/1999/xlink">
    <!-- Generator: Sketch 60.1 (88133) - https://sketch.com -->
    <title>编组 13</title>
    <desc>Created with Sketch.</desc>
    <defs>
        <linearGradient x1="50%" y1="0%" x2="50%" y2="98.6486486%" id="linearGradient-1">
            <stop stop-color="#FCB202" offset="0%"></stop>
            <stop stop-color="#F8D88D" offset="100%"></stop>
        </linearGradient>
        <linearGradient x1="50%" y1="0%" x2="50%" y2="100%" id="linearGradient-2">
            <stop stop-color="#FFFFFF" offset="0%"></stop>
            <stop stop-color="#FFFFFF" stop-opacity="0.68435861" offset="100%"></stop>
        </linearGradient>
    </defs>
    <g id="7-我的" stroke="none" stroke-width="1" fill="none" fill-rule="evenodd">
        <g id="我的-首页" transform="translate(-212.000000, -344.000000)">
            <g id="编组-4" transform="translate(0.000000, 272.000000)">
                <g id="编组-13" transform="translate(212.000000, 72.000000)">
                    <rect id="矩形备份-5" fill="url(#linearGradient-1)" x="0" y="0" width="44" height="44" rx="5"></rect>
                    <g id="编组" transform="translate(9.000000, 9.000000)" fill="url(#linearGradient-2)" fill-rule="nonzero">
                        <path d="M0.738636364,8.84232955 L23.7109375,8.84232955 C24.272017,8.84232955 24.4921875,8.11434659 24.0269886,7.80184659 L12.5426136,0.0958806818 C12.3508523,-0.0319602273 12.1022727,-0.0319602273 11.9105114,0.0958806818 L0.426136364,7.80184659 C-0.0426136364,8.11789773 0.177556818,8.84232955 0.738636364,8.84232955 Z M23.8849432,23.384233 L0.568181818,23.384233 C0.255681818,23.384233 0,23.6399148 0,23.9524148 L0,25.3196023 C0,25.6321023 0.255681818,25.8877841 0.568181818,25.8877841 L23.8849432,25.8877841 C24.1974432,25.8877841 24.453125,25.6321023 24.453125,25.3196023 L24.453125,23.9524148 C24.4495739,23.6399148 24.1974432,23.384233 23.8849432,23.384233 Z M5.32315341,11.3458807 L2.80539773,11.3458807 C2.49289773,11.3458807 2.24076705,11.5980114 2.24076705,11.9105114 L2.24076705,21.5731534 C2.24076705,21.8856534 2.49644886,22.1413352 2.80894886,22.1413352 L21.615767,22.1413352 C21.928267,22.1413352 22.1839489,21.8856534 22.1839489,21.5731534 L22.1839489,20.4332386 C22.1910511,20.3977273 22.2052557,20.3622159 22.2052557,20.3231534 L22.2052557,11.9105114 C22.2052557,11.5980114 21.953125,11.3458807 21.640625,11.3458807 L19.1299716,11.3458807 C18.8174716,11.3458807 18.5653409,11.5980114 18.5653409,11.9105114 L18.5653409,19.6377841 L16.7684659,19.6377841 L16.7684659,11.9069602 C16.7684659,11.5944602 16.5163352,11.3423295 16.2038352,11.3423295 L13.6896307,11.3423295 C13.3771307,11.3423295 13.125,11.5944602 13.125,11.9069602 L13.125,19.6377841 L11.328125,19.6377841 L11.328125,11.9069602 C11.328125,11.5944602 11.0759943,11.3423295 10.7634943,11.3423295 L8.24928977,11.3423295 C7.93678977,11.3423295 7.68465909,11.5944602 7.68465909,11.9069602 L7.68465909,19.6377841 L5.88778409,19.6377841 L5.88778409,11.9069602 C5.88778409,11.5980114 5.63565341,11.3458807 5.32315341,11.3458807 Z" id="形状"></path>
                    </g>
                </g>
            </g>
        </g>
    </g>
</svg>