<?xml version="1.0" encoding="UTF-8"?>
<svg width="44px" height="44px" viewBox="0 0 44 44" version="1.1" xmlns="http://www.w3.org/2000/svg" xmlns:xlink="http://www.w3.org/1999/xlink">
    <!-- Generator: Sketch 60.1 (88133) - https://sketch.com -->
    <title>编组 14</title>
    <desc>Created with Sketch.</desc>
    <defs>
        <linearGradient x1="50%" y1="0.39278982%" x2="50%" y2="98.2614667%" id="linearGradient-1">
            <stop stop-color="#ED3F07" offset="0%"></stop>
            <stop stop-color="#FFB68E" offset="100%"></stop>
        </linearGradient>
        <linearGradient x1="50%" y1="0%" x2="50%" y2="100%" id="linearGradient-2">
            <stop stop-color="#FCFCFC" offset="0%"></stop>
            <stop stop-color="#FFFFFF" stop-opacity="0.719651442" offset="100%"></stop>
        </linearGradient>
    </defs>
    <g id="7-我的" stroke="none" stroke-width="1" fill="none" fill-rule="evenodd">
        <g id="我的-首页" transform="translate(-300.000000, -344.000000)">
            <g id="编组-4" transform="translate(0.000000, 272.000000)">
                <g id="编组-14" transform="translate(300.000000, 72.000000)">
                    <rect id="矩形备份-5" fill="url(#linearGradient-1)" x="0" y="0" width="44" height="44" rx="5"></rect>
                    <g id="编组" transform="translate(9.000000, 9.000000)" fill="url(#linearGradient-2)" fill-rule="nonzero">
                        <path d="M8.17161783,10.0826752 L8.27161783,9.98267516 L8.17161783,10.0826752 Z M18.570293,4.26466242 C18.400051,4.33090446 18.2443822,4.39515924 18.1191847,4.45477707 C20.4714395,6.04988535 20.8337834,8.30542675 20.8337834,9.46598726 C20.8337834,9.9190828 20.7827771,10.2039236 20.7807898,10.2145223 L20.6284331,11.0107516 L20.1263185,10.3847643 C18.7975032,8.72672611 17.3421656,8.01859873 16.5326879,7.7284586 C16.7791083,8.58496815 16.8817834,9.36 16.8817834,10.042293 C16.8817834,12.442242 15.6874395,13.7438981 15.6185478,13.8167643 L15.0329682,14.4367898 L14.9786497,13.5729936 C14.8176815,11.0385732 13.2179363,9.10430573 12.596586,8.44321019 C11.9705987,9.10298089 10.354293,11.0379108 10.1939873,13.5729936 L10.1396688,14.4367898 L9.55342675,13.8167643 C9.48453503,13.7438981 8.29019108,12.442242 8.29019108,10.042293 C8.29019108,9.36 8.39286624,8.58496815 8.63994904,7.72779618 C7.82980892,8.01859873 6.37447134,8.72672611 5.04565605,10.3847643 L4.54420382,11.0107516 L4.39118471,10.2145223 C4.35291355,9.96689834 4.33518859,9.71653324 4.33819108,9.46598726 C4.33819108,8.30542675 4.70053503,6.04922293 7.05345223,4.45477707 C6.92759236,4.39515924 6.77192357,4.33024204 6.60101911,4.26466242 C2.67286624,6.20886624 0,10.0038726 0,14.3579618 C0,20.6860637 5.64580892,25.8343949 12.5859873,25.8343949 C19.5255032,25.8343949 25.1719745,20.6860637 25.1719745,14.3579618 C25.1719745,10.004535 22.4991083,6.20886624 18.570293,4.26466242 Z M8.50150318,4.47001274 L7.96825478,4.76478981 C5.55903185,6.09492994 5.12249682,8.08815287 5.08275159,9.2136051 C7.05014013,7.16540127 9.06323567,6.7924586 9.15663694,6.77722293 L9.79256051,6.67189809 L9.5646879,7.29457325 C9.17982166,8.34583439 9.03806369,9.26394904 9.03806369,10.0436178 C9.03806369,11.1432357 9.3176051,11.9606624 9.58853503,12.5038471 C10.171465,9.60907006 12.2541146,7.70328662 12.3528153,7.61518471 L12.5992357,7.39459873 L12.8443312,7.61650955 C12.941707,7.70461146 15.0038217,9.60907006 15.5834395,12.5025223 C15.8550318,11.9593376 16.1332484,11.1425732 16.1332484,10.0442803 C16.1332484,9.26394904 15.9928153,8.34583439 15.6072866,7.29391083 L15.3787516,6.67189809 L16.016,6.77788535 C16.1087389,6.7924586 18.121172,7.16540127 20.0892229,9.2136051 C20.0494777,8.08749045 19.6129427,6.09492994 17.2043822,4.76478981 L16.6711338,4.47067516 L17.1646369,4.11031847 C17.2235924,4.06726115 18.4709299,3.1816051 20.8775032,2.96896815 C19.6142675,2.16280255 17.0970701,1.0823949 14.4665987,2.99215287 L14.106242,3.25380892 L12.5859873,0 L11.0657325,3.25380892 L10.7053758,2.99215287 C8.07556688,1.0823949 5.55770701,2.16280255 4.29447134,2.96896815 C6.70104459,3.18094268 7.94904459,4.06726115 8.00733758,4.11031847 L8.50084076,4.47067516 L8.50150318,4.47001274 Z" id="形状"></path>
                    </g>
                </g>
            </g>
        </g>
    </g>
</svg>