<?xml version="1.0" encoding="UTF-8"?>
<svg width="28px" height="28px" viewBox="0 0 28 28" version="1.1" xmlns="http://www.w3.org/2000/svg" xmlns:xlink="http://www.w3.org/1999/xlink">
    <!-- Generator: Sketch 60.1 (88133) - https://sketch.com -->
    <title>编组 36</title>
    <desc>Created with Sketch.</desc>
    <g id="5-商城" stroke="none" stroke-width="1" fill="none" fill-rule="evenodd">
        <g id="1商城-商品详情" transform="translate(-332.000000, -913.000000)" stroke="#00B459">
            <g id="编组-28" transform="translate(-1.000000, 742.000000)">
                <g id="编组-38" transform="translate(17.000000, 171.000000)">
                    <g id="编组-36" transform="translate(316.000000, 0.000000)">
                        <circle id="椭圆形" fill="#FFFFFF" cx="14" cy="14" r="13.5"></circle>
                        <g id="编组" transform="translate(7.000000, 7.000000)" fill="#00B459" fill-rule="nonzero" stroke-width="0.2">
                            <path d="M1.85096154,-7.10542736e-15 C2.68971154,-7.10542736e-15 3.40048077,0.557403846 3.62788462,1.32211538 L10.8413462,1.32211538 C12.7034882,1.3199195 14.2287888,2.80087292 14.2815212,4.66226945 C14.3342536,6.52366598 12.8952413,8.08859685 11.0359615,8.19182692 L10.8413462,8.19711538 L9.70644231,8.19711538 C9.47297399,8.98160983 8.75197844,9.51962038 7.93348058,9.52010845 C7.11498272,9.52059652 6.39334605,8.98344622 6.15894231,8.19923077 L3.96634615,8.19711538 C2.68203467,8.19475201 1.62752977,9.21187337 1.58355462,10.495434 C1.53957946,11.7789945 2.52199973,12.8659015 3.80346154,12.9514423 L3.96634615,12.9567308 L11.1798077,12.9567308 C11.4152165,12.172021 12.1374709,11.6346293 12.9567308,11.6346154 C13.9789886,11.6346154 14.8076923,12.4633191 14.8076923,13.4855769 C14.8076923,14.5078348 13.9789886,15.3365385 12.9567308,15.3365385 C12.1374709,15.3365385 11.4152165,14.7991329 11.1798077,14.0144231 L3.96634615,14.0144231 C2.10420413,14.016619 0.578903541,12.5356655 0.526171137,10.674269 C0.473438734,8.81287249 1.91245099,7.24794161 3.77173077,7.14471154 L3.96634615,7.13942308 L6.15894231,7.13942308 C6.39228857,6.35417725 7.11403773,5.81571214 7.93322115,5.81571214 C8.75240458,5.81571214 9.47415374,6.35417725 9.7075,7.13942308 L10.8413462,7.13942308 C12.1256576,7.14178645 13.1801625,6.12466509 13.2241377,4.84110451 C13.2681128,3.55754392 12.2856926,2.47063691 11.0042308,2.38509615 L10.8413462,2.37980769 L3.62788462,2.37980769 C3.39247585,3.16451748 2.67022141,3.70190918 1.85096154,3.70192308 C0.828703719,3.70192306 2.75814762e-08,2.87321936 2.75814762e-08,1.85096154 C2.75814762e-08,0.828703719 0.828703719,-7.10542736e-15 1.85096154,-7.10542736e-15 Z M12.9567308,12.6923077 C12.5186203,12.6923077 12.1634615,13.0474664 12.1634615,13.4855769 C12.1634615,13.9236874 12.5186203,14.2788462 12.9567308,14.2788462 C13.3948413,14.2788462 13.75,13.9236874 13.75,13.4855769 C13.75,13.0474664 13.3948413,12.6923077 12.9567308,12.6923077 L12.9567308,12.6923077 Z M7.93269231,6.875 C7.65907639,6.87511328 7.40483401,7.01622579 7.26,7.24836538 L7.23038462,7.29913462 C7.14558691,7.45971639 7.11869369,7.6446073 7.15423077,7.82269231 L7.18067308,7.92105769 L7.21028846,7.99509615 L7.26317308,8.09240385 L7.32875,8.18230769 L7.28538462,8.12625 C7.43823491,8.34232264 7.68877865,8.46793102 7.95336215,8.46113593 C8.21794564,8.45434085 8.46171155,8.31603753 8.60326923,8.09240385 L8.635,8.03634615 L8.65615385,7.99509615 L8.68471154,7.92105769 C8.74874037,7.73118025 8.73853781,7.52410598 8.65615385,7.34144231 L8.635,7.29913462 L8.60538462,7.24836538 L8.57894231,7.20817308 C8.43009865,6.9991205 8.1893193,6.875 7.93269231,6.875 Z M1.85096154,1.05769231 C1.41285104,1.05769231 1.05769231,1.41285104 1.05769231,1.85096154 C1.05769231,2.28907204 1.41285104,2.64423077 1.85096154,2.64423077 C2.28907204,2.64423077 2.64423077,2.28907204 2.64423077,1.85096154 C2.64423077,1.41285104 2.28907204,1.05769231 1.85096154,1.05769231 Z" id="形状"></path>
                        </g>
                    </g>
                </g>
            </g>
        </g>
    </g>
</svg>