<?xml version="1.0" encoding="UTF-8"?>
<svg width="20px" height="22px" viewBox="0 0 20 22" version="1.1" xmlns="http://www.w3.org/2000/svg" xmlns:xlink="http://www.w3.org/1999/xlink">
    <!-- Generator: Sketch 60.1 (88133) - https://sketch.com -->
    <title>编组</title>
    <desc>Created with Sketch.</desc>
    <g id="3-碳足迹" stroke="none" stroke-width="1" fill="none" fill-rule="evenodd">
        <g id="1备份-2" transform="translate(-101.000000, -282.000000)" fill-rule="nonzero">
            <g id="编组" transform="translate(101.000000, 282.000000)">
                <path d="M15.2208269,7.2225768 L18.4551744,5.56909636 C18.9979329,5.29454228 19.2915159,4.72450397 19.0620771,4.3945466 L18.0419378,2.92943735 C17.8199002,2.60932944 17.2117639,2.66965747 16.7639881,3.05501814 L13.6566955,5.72545676 L15.0715683,2.63887787 C15.3404805,2.05160298 15.0209931,1.36337099 14.3968208,1.18977401 L11.5411707,0.396891362 C10.8972617,0.218369647 10.2508857,0.676370185 10.2089452,1.34244086 L9.97087159,4.79345029 L8.6596163,0.804413346 C8.47581853,0.242993332 7.9861023,-0.121437203 7.62960862,0.0373855638 L5.99763238,0.766246635 C5.63003683,0.929994139 5.58686286,1.57020994 5.90881735,2.08484496 L7.73322616,5.02491293 C6.18513079,4.35022396 4.28424236,4.08798172 2.45366584,5.32901543 C0.579915344,6.59467284 -1.49490252,11.6240605 1.53714404,15.5121403 C2.94338207,17.2222552 5.7607923,19.7412582 6.64400846,21.5806474 C6.84014166,21.9894006 7.35206165,22.1297556 7.72089074,21.865051 C9.0136429,20.9367381 11.3524388,20.441802 12.7574433,20.1918716 C14.592954,19.8643766 19.9329578,18.4201975 19.9995691,12.3923194 C20.0378089,9.16538553 17.5238501,7.70027628 15.2208269,7.2225768 Z" id="路径" fill="#FB8D41"></path>
                <path d="M18.9212948,4.44843989 L17.9086896,2.96536302 C17.6882919,2.64132941 17.084647,2.70239728 16.6401782,3.09248389 L13.5558344,5.7956719 L14.9602577,2.67124021 C15.2271839,2.07676318 14.910056,1.38009093 14.2904935,1.20436502 L11.4559338,0.401758709 C10.8167804,0.221047662 10.1751781,0.684664969 10.1335474,1.35890412 L9.89723205,4.85223561 L8.595661,0.81427841 C8.41199622,0.245973323 7.92712121,-0.12292647 7.57326041,0.0378440482 L5.95333707,0.775643635 C5.58845638,0.941399285 5.54560127,1.58946649 5.86517798,2.11041282 L7.67611268,5.08653683 C6.13945071,4.4035737 4.25260124,4.1381154 2.43554437,5.39436875 C0.575632398,6.67554776 -1.48386197,11.7666142 1.52579151,15.7023761 C2.0596438,16.3653987 2.80042507,17.1493108 3.55957281,17.9668725 C9.97314683,18.3818848 15.8651129,14.8636276 18.7621186,9.31891418 C17.830326,8.21096852 16.4332493,7.59281211 15.1059651,7.31115213 L18.3164254,5.63739395 C18.8588487,5.35947282 19.1502635,4.78369004 18.9212948,4.44843989 Z" id="路径" fill="#F7A33E"></path>
                <path d="M16,3.46091402 L13.5321133,5.52816713 L14.9341272,2.54794657 C15.2005954,1.98090819 14.8840116,1.31639152 14.265512,1.1487764 L11.4358153,0.383215152 C10.7977584,0.210844996 10.1572568,0.653063604 10.1156976,1.2961826 L9.87978763,4.62827604 L8.58044955,0.776694613 C8.39709987,0.23462019 7.91305671,-0.117252681 7.55980299,0.0360973201 L5.9426588,0.739843062 C5.5784041,0.897948103 5.53562251,1.51610315 5.85465095,2.0130047 L7.66247881,4.85176286 C6.12845314,4.20032255 4.24484075,3.94711673 2.43090123,5.14538651 C0.891986236,6.15820978 -0.783829854,9.66980593 0.399386758,12.9793129 C7.22243958,13.320487 13.4208811,9.41184507 16,3.46091402 Z" id="路径" fill="#FABB19"></path>
                <path d="M9.67733783,3.83586217 L8.63984836,0.794272518 C8.45029486,0.239930039 7.94987363,-0.119906307 7.58466723,0.0369142631 L5.91280539,0.756586955 C5.53622578,0.918270178 5.49199663,1.55041511 5.82181971,2.05856238 L7.69081719,4.96156642 C6.10488627,4.29538291 4.15754002,4.03644662 2.28222409,5.26183526 C1.37742207,5.85143197 0.427127211,7.26646409 0,9 C3.78854254,8.41405027 7.20303286,6.55408538 9.67733783,3.83586217 Z M12,0.501297655 L11.5905644,0.391887956 C10.9309183,0.215616773 10.2687447,0.667843532 10.2257793,1.32551739 L10.0804549,3.37634143 C10.8276528,2.48839379 11.4713505,1.52428049 12,0.501297655 Z" id="形状" fill="#FFD256"></path>
                <path d="M2.34626289,12.8186336 C2.52513786,12.9469538 2.75317347,13.0112053 2.98425725,12.9983954 C3.48850017,12.9715479 3.8723668,12.5921804 3.84160397,12.1521142 C3.66103953,9.59926293 5.55897243,8.48217166 5.57903515,8.47049882 C5.85599947,8.31547387 6.0162418,8.0425895 5.99869353,7.75584236 C5.98114526,7.46909522 5.78850972,7.21265896 5.49420062,7.08426184 C5.19989152,6.95586473 4.84924743,6.97528644 4.57589936,7.13512534 C4.46087312,7.20049327 1.76979419,8.78216378 2.01589684,12.250166 C2.02927198,12.4812884 2.15633585,12.6820613 2.34626289,12.8186336 Z" id="路径" fill="#FFFFFF"></path>
            </g>
        </g>
    </g>
</svg>