<?xml version="1.0" encoding="UTF-8"?>
<svg width="11px" height="22px" viewBox="0 0 11 22" version="1.1" xmlns="http://www.w3.org/2000/svg" xmlns:xlink="http://www.w3.org/1999/xlink">
    <!-- Generator: Sketch 60.1 (88133) - https://sketch.com -->
    <title>corn</title>
    <desc>Created with Sketch.</desc>
    <g id="3-碳足迹" stroke="none" stroke-width="1" fill="none" fill-rule="evenodd">
        <g id="1备份-2" transform="translate(-15.000000, -1602.000000)">
            <g id="corn" transform="translate(15.000000, 1602.000000)">
                <path d="M10.9571826,7.61890448 C8.53287589,7.06315789 7.48147109,15.7994308 7.48147109,15.7994308 C7.48147109,15.7994308 7.22559584,17.1747953 6.67899675,18.227193 C6.75206238,18.3165224 6.8240052,18.400577 6.89083301,18.4724951 C7.03692268,18.6292398 7.16467316,18.8003509 7.28398181,18.9771228 C7.34161923,18.9547797 7.40071215,18.9347096 7.45760104,18.9112515 C9.80152307,17.9424795 11.236512,15.4552788 10.8466485,12.8825224 C10.8426147,12.8571774 10.8382066,12.8317895 10.8345471,12.8064444 C10.5988824,11.1206784 10.6039974,9.40004678 10.9318155,7.73323587 L10.9571826,7.61890448 Z" id="Shape" fill="#4CAF50"></path>
                <path d="M6.67907992,18.2270643 C7.22567901,17.1750097 7.48155426,15.7996881 7.48155426,15.7996881 C7.48155426,15.7996881 8.09826641,10.6866823 9.47378817,8.53411306 C9.10193112,3.64792593 7.64161663,0 5.89531904,0 C4.17176868,0 2.72613385,3.55289279 2.33152956,8.34293177 C3.67731774,10.1286628 4.62480052,12.2497973 5.21876543,13.6747368 C5.55282131,14.4765575 5.70261209,15.3347719 5.78923457,16.2028499 C5.87182326,17.0307875 6.26534633,17.7069123 6.63283691,18.1717856 C6.64751657,18.1903119 6.66440026,18.2092671 6.67907992,18.2270643" id="Shape" fill="#FEC24C"></path>
                <path d="M5.89523587,2.65020663 C5.69258999,2.65020663 5.52811956,2.48059649 5.52811956,2.27161793 L5.52811956,1.51448343 C5.52811956,1.30550487 5.69258999,1.13589474 5.89523587,1.13589474 C6.09788174,1.13589474 6.26235218,1.30550487 6.26235218,1.51448343 L6.26235218,2.27161793 C6.26235218,2.48059649 6.09788174,2.65020663 5.89523587,2.65020663" id="Shape" fill="#BC8D2F"></path>
                <path d="M4.79392853,4.16447563 C4.59128265,4.16447563 4.42681222,3.9948655 4.42681222,3.78588694 L4.42681222,3.02875244 C4.42681222,2.81977388 4.59128265,2.65016374 4.79392853,2.65016374 C4.9965744,2.65016374 5.16104483,2.81977388 5.16104483,3.02875244 L5.16104483,3.78588694 C5.16104483,3.9948655 4.9965744,4.16447563 4.79392853,4.16447563" id="Shape" fill="#BC8D2F"></path>
                <path d="M6.26235218,5.30019883 C6.0597063,5.30019883 5.89523587,5.13058869 5.89523587,4.92161014 L5.89523587,4.16447563 C5.89523587,3.95549708 6.0597063,3.78588694 6.26235218,3.78588694 C6.46499805,3.78588694 6.62946849,3.95549708 6.62946849,4.16447563 L6.62946849,4.92161014 C6.6294269,5.13058869 6.46499805,5.30019883 6.26235218,5.30019883" id="Shape" fill="#BC8D2F"></path>
                <path d="M7.73073424,6.43587914 C7.52808837,6.43587914 7.36361793,6.26626901 7.36361793,6.05729045 L7.36361793,5.30015595 C7.36361793,5.09117739 7.52808837,4.92156725 7.73073424,4.92156725 C7.93338012,4.92156725 8.09785055,5.09117739 8.09785055,5.30015595 L8.09785055,6.05729045 C8.09785055,6.26631189 7.93338012,6.43587914 7.73073424,6.43587914" id="Shape" fill="#BC8D2F"></path>
                <path d="M4.79392853,6.43587914 C4.59128265,6.43587914 4.42681222,6.26626901 4.42681222,6.05729045 L4.42681222,5.30015595 C4.42681222,5.09117739 4.59128265,4.92156725 4.79392853,4.92156725 C4.9965744,4.92156725 5.16104483,5.09117739 5.16104483,5.30015595 L5.16104483,6.05729045 C5.16104483,6.26631189 4.9965744,6.43587914 4.79392853,6.43587914" id="Shape" fill="#BC8D2F"></path>
                <path d="M3.69266277,8.32873684 C3.49001689,8.32873684 3.32554646,8.15912671 3.32554646,7.95014815 L3.32554646,7.19301365 C3.32554646,6.98403509 3.49001689,6.81442495 3.69266277,6.81442495 C3.89530864,6.81442495 4.05977908,6.98403509 4.05977908,7.19301365 L4.05977908,7.95014815 C4.05973749,8.15916959 3.89526706,8.32873684 3.69266277,8.32873684" id="Shape" fill="#BC8D2F"></path>
                <path d="M5.16104483,9.08587135 C4.95839896,9.08587135 4.79392853,8.91626121 4.79392853,8.70728265 L4.79392853,7.95014815 C4.79392853,7.74116959 4.95839896,7.57155945 5.16104483,7.57155945 C5.36369071,7.57155945 5.52816114,7.74116959 5.52816114,7.95014815 L5.52816114,8.70728265 C5.52816114,8.91630409 5.36369071,9.08587135 5.16104483,9.08587135" id="Shape" fill="#BC8D2F"></path>
                <path d="M6.26235218,7.57160234 C6.0597063,7.57160234 5.89523587,7.4019922 5.89523587,7.19301365 L5.89523587,6.43587914 C5.89523587,6.22690058 6.0597063,6.05729045 6.26235218,6.05729045 C6.46499805,6.05729045 6.62946849,6.22690058 6.62946849,6.43587914 L6.62946849,7.19301365 C6.6294269,7.4019922 6.46499805,7.57160234 6.26235218,7.57160234" id="Shape" fill="#BC8D2F"></path>
                <path d="M7.36365952,9.08587135 C7.16101365,9.08587135 6.99654321,8.91626121 6.99654321,8.70728265 L6.99654321,7.95014815 C6.99654321,7.74116959 7.16101365,7.57155945 7.36365952,7.57155945 C7.56630539,7.57155945 7.73077583,7.74116959 7.73077583,7.95014815 L7.73077583,8.70728265 C7.73073424,8.91630409 7.56626381,9.08587135 7.36365952,9.08587135" id="Shape" fill="#BC8D2F"></path>
                <path d="M5.89523587,10.978729 C5.69258999,10.978729 5.52811956,10.8091189 5.52811956,10.6001404 L5.52811956,9.84300585 C5.52811956,9.63402729 5.69258999,9.46441715 5.89523587,9.46441715 C6.09788174,9.46441715 6.26235218,9.63402729 6.26235218,9.84300585 L6.26235218,10.6001404 C6.26235218,10.8091618 6.09788174,10.978729 5.89523587,10.978729" id="Shape" fill="#BC8D2F"></path>
                <path d="M7.36365952,11.3573177 C7.16101365,11.3573177 6.99654321,11.1877076 6.99654321,10.978729 L6.99654321,10.2215945 C6.99654321,10.012616 7.16101365,9.84300585 7.36365952,9.84300585 C7.56630539,9.84300585 7.73077583,10.012616 7.73077583,10.2215945 L7.73077583,10.978729 C7.73073424,11.1877076 7.56626381,11.3573177 7.36365952,11.3573177" id="Shape" fill="#BC8D2F"></path>
                <path d="M6.26235218,13.6287641 C6.0597063,13.6287641 5.89523587,13.459154 5.89523587,13.2501754 L5.89523587,12.4930409 C5.89523587,12.2840624 6.0597063,12.1144522 6.26235218,12.1144522 C6.46499805,12.1144522 6.62946849,12.2840624 6.62946849,12.4930409 L6.62946849,13.2501754 C6.6294269,13.459154 6.46499805,13.6287641 6.26235218,13.6287641" id="Shape" fill="#BC8D2F"></path>
                <path d="M4.4268538,12.1144522 C4.22420793,12.1144522 4.05973749,11.9448421 4.05973749,11.7358635 L4.05973749,10.978729 C4.05973749,10.7697505 4.22420793,10.6001404 4.4268538,10.6001404 C4.62949968,10.6001404 4.79397011,10.7697505 4.79397011,10.978729 L4.79397011,11.7358635 C4.79392853,11.9448421 4.62949968,12.1144522 4.4268538,12.1144522" id="Shape" fill="#BC8D2F"></path>
                <path d="M0.0216244314,6.054846 C0.0216244314,6.054846 1.41623392,8.74725146 1.35418843,11.1837193 C1.29580247,13.4623275 1.10164003,15.6008733 4.15550877,18.7274893 C4.56333723,19.1450604 4.71495776,19.7621326 4.53327096,20.3246979 L4.53327096,20.3246979 C4.37212736,20.8225068 4.54537232,21.3900039 4.98443145,21.6553762 C5.28692398,21.8386238 5.72120078,21.9809591 6.32726706,21.9540702 C6.32726706,21.9540702 8.56181936,22.0774932 7.83274334,20.0581676 C7.6205744,19.4702573 7.31255101,18.9247173 6.89074984,18.4727096 C6.47447953,18.0259766 5.89186745,17.2313606 5.7894425,16.202807 C5.70282001,15.334729 5.55265497,14.4765146 5.21859909,13.674694 C4.32916959,11.5411228 2.65261079,7.84173489 0.0216244314,6.054846" id="Shape" fill="#81C784"></path>
            </g>
        </g>
    </g>
</svg>