<?xml version="1.0" encoding="UTF-8"?>
<svg width="18px" height="22px" viewBox="0 0 18 22" version="1.1" xmlns="http://www.w3.org/2000/svg" xmlns:xlink="http://www.w3.org/1999/xlink">
    <!-- Generator: Sketch 60.1 (88133) - https://sketch.com -->
    <title>barn-7</title>
    <desc>Created with Sketch.</desc>
    <g id="3-碳足迹" stroke="none" stroke-width="1" fill="none" fill-rule="evenodd">
        <g id="1备份-2" transform="translate(-15.000000, -1086.000000)">
            <g id="barn-7" transform="translate(15.000000, 1086.000000)">
                <polygon id="Shape" fill="#A1352A" points="9.79928125 6.69876413 17.2569375 6.69876413 17.2569375 5.21018324 9.79928125 5.21018324"></polygon>
                <path d="M17.2569375,5.21018324 L9.79928125,5.21018324 L9.79928125,3.72155945 C9.79928125,1.66616764 11.4686602,0 13.5281094,0 C15.5875586,0 17.2569375,1.66612476 17.2569375,3.72155945 L17.2569375,5.21018324 Z" id="Shape" fill="#DF5548"></path>
                <polygon id="Shape" fill="#DF5548" points="9.79928125 6.69876413 9.79928125 9.84793762 9.79928125 18.3609942 9.79928125 21.5849591 17.2569375 21.5849591 17.2569375 6.69876413"></polygon>
                <path d="M14.6467578,21.5849591 L12.4094609,21.5849591 L12.4094609,18.9798674 C12.4094609,18.3632242 12.9102187,17.8633996 13.5281094,17.8633996 C14.145957,17.8633996 14.6467578,18.3632242 14.6467578,18.9798674 L14.6467578,21.5849591 Z" id="Shape" fill="#FFFFFF"></path>
                <path d="M3.27722656,18.4169591 L2.34166797,19.7243509 L1.40610937,18.4169591 C0.850523437,17.640655 0.850523437,16.5974776 1.40610937,15.8211735 L2.34166797,14.5141676 L3.27722656,15.8211735 C3.8328125,16.5974776 3.8328125,17.640655 3.27722656,18.4169591" id="Shape" fill="#FEC24C"></path>
                <path d="M6.26028906,15.0675556 L5.32473047,16.3749474 L4.38917187,15.0675556 C3.83358594,14.2912515 3.83358594,13.2480741 4.38917187,12.47177 L5.32473047,11.1647641 L6.26028906,12.47177 C6.815875,13.248117 6.815875,14.2912515 6.26028906,15.0675556" id="Shape" fill="#FEC24C"></path>
                <path d="M9.24335156,11.346039 L8.30779297,12.6534308 L7.37223437,11.346039 C6.81664844,10.5697349 6.81664844,9.5265575 7.37223437,8.75025341 L8.30779297,7.44324756 L9.24335156,8.75025341 C9.7989375,9.5265575 9.7989375,10.569692 9.24335156,11.346039" id="Shape" fill="#FEC24C"></path>
                <path d="M12.505625,9.78403899 L10.9178867,10.0482534 L11.1826172,8.46361014 C11.339582,7.52241326 12.0786445,6.78483431 13.0216797,6.62813255 L14.609418,6.36391813 L14.3446875,7.9485614 C14.1873359,8.88975828 13.4486602,9.62738012 12.505625,9.78403899" id="Shape" fill="#FEC24C"></path>
                <path d="M6.64756641,17.3222768 L5.33873828,16.389271 L6.64756641,15.4562651 C7.42616016,14.9009903 8.47171875,14.9009903 9.25026953,15.4562651 L10.5590977,16.389271 L9.25026953,17.3222768 C8.47167578,17.8771657 7.42611719,17.8771657 6.64756641,17.3222768" id="Shape" fill="#FEC24C"></path>
                <path d="M9.61662109,13.586308 L8.30779297,12.6533021 L9.61662109,11.7202963 C10.3952148,11.1650214 11.4407734,11.1650214 12.2193242,11.7202963 L13.5281523,12.6533021 L12.2193242,13.586308 C11.4407734,14.1411969 10.3952148,14.1411969 9.61662109,13.586308" id="Shape" fill="#FEC24C"></path>
                <path d="M3.66098047,20.6833021 L2.35215234,19.7502963 L3.66098047,18.8172904 C4.43957422,18.2620156 5.48513281,18.2620156 6.26368359,18.8172904 L7.57251172,19.7502963 L6.26368359,20.6833021 C5.48513281,21.238191 4.43957422,21.238191 3.66098047,20.6833021" id="Shape" fill="#FEC24C"></path>
                <path d="M2.28039453,19.6973333 L1.75686328,18.9716335 C1.73860156,18.9463314 1.72665625,18.9184133 1.709125,18.8927251 C1.53273828,18.9433294 1.36494531,19.0326589 1.22624219,19.1714776 C0.789207031,19.6072749 0.789207031,20.3143626 1.22624219,20.7505458 C1.66289062,21.1863431 2.37135937,21.1863431 2.80800781,20.7505458 C2.94709766,20.6117271 3.03694531,20.4442612 3.08730469,20.2682183 C3.06156641,20.2507212 3.03359375,20.2384561 3.00824219,20.2205731 L2.28073828,19.6976764 L2.28039453,19.6973333 Z" id="Shape" fill="#BC8D2F"></path>
                <path d="M0.389855469,21.957501 C0.294378906,21.957501 0.198945313,21.9210487 0.126242188,21.8484444 C-0.0195507812,21.7029357 -0.0195507812,21.4677115 0.126242188,21.3222027 L0.962628906,20.4874464 C1.10842188,20.3419376 1.34444922,20.3419376 1.48989844,20.4874464 C1.63569141,20.6325692 1.63569141,20.8681793 1.48989844,21.0136881 L0.653511719,21.8484444 C0.580765625,21.9210058 0.485332031,21.957501 0.389855469,21.957501" id="Shape" fill="#BC8D2F"></path>
                <path d="M8.30779297,7.81523197 C8.10158594,7.81523197 7.93491016,7.64888109 7.93491016,7.44307602 L7.93491016,5.95445224 C7.93491016,5.74864717 8.10158594,5.5822963 8.30779297,5.5822963 C8.514,5.5822963 8.68067578,5.74864717 8.68067578,5.95445224 L8.68067578,7.44307602 C8.68063281,7.64888109 8.51395703,7.81523197 8.30779297,7.81523197" id="Shape" fill="#BC8D2F"></path>
                <path d="M5.32473047,11.5367914 C5.11852344,11.5367914 4.95184766,11.3704405 4.95184766,11.1646355 L4.95184766,9.6760117 C4.95184766,9.47020663 5.11852344,9.30385575 5.32473047,9.30385575 C5.5309375,9.30385575 5.69761328,9.47020663 5.69761328,9.6760117 L5.69761328,11.1646355 C5.69761328,11.3704405 5.5309375,11.5367914 5.32473047,11.5367914" id="Shape" fill="#BC8D2F"></path>
                <path d="M2.34166797,14.8861949 C2.13546094,14.8861949 1.96878516,14.7198441 1.96878516,14.514039 L1.96878516,13.0254152 C1.96878516,12.8196101 2.13546094,12.6532593 2.34166797,12.6532593 C2.547875,12.6532593 2.71455078,12.8196101 2.71455078,13.0254152 L2.71455078,14.514039 C2.71455078,14.7198441 2.547875,14.8861949 2.34166797,14.8861949" id="Shape" fill="#BC8D2F"></path>
                <path d="M15.0196406,13.0195828 L13.5281094,13.0195828 C13.3219023,13.0195828 13.1552266,12.853232 13.1552266,12.6474269 C13.1552266,12.4416218 13.3219023,12.275271 13.5281094,12.275271 L15.0196406,12.275271 C15.2258477,12.275271 15.3925234,12.4416218 15.3925234,12.6474269 C15.3925234,12.853232 15.2258477,13.0195828 15.0196406,13.0195828" id="Shape" fill="#BC8D2F"></path>
                <path d="M12.0365781,16.7469318 L10.5450469,16.7469318 C10.3388398,16.7469318 10.1721641,16.5805809 10.1721641,16.3747758 C10.1721641,16.1689708 10.3388398,16.0026199 10.5450469,16.0026199 L12.0365781,16.0026199 C12.2427852,16.0026199 12.4094609,16.1689708 12.4094609,16.3747758 C12.4094609,16.5805809 12.2427852,16.7469318 12.0365781,16.7469318" id="Shape" fill="#BC8D2F"></path>
                <path d="M8.68063281,20.0963353 L7.56198438,20.0963353 C7.35577734,20.0963353 7.18910156,19.9299844 7.18910156,19.7241793 C7.18910156,19.5183743 7.35577734,19.3520234 7.56198438,19.3520234 L8.68063281,19.3520234 C8.88683984,19.3520234 9.05351563,19.5183743 9.05351563,19.7241793 C9.05351563,19.9299844 8.88683984,20.0963353 8.68063281,20.0963353" id="Shape" fill="#BC8D2F"></path>
            </g>
        </g>
    </g>
</svg>