<?xml version="1.0" encoding="UTF-8"?>
<svg width="14px" height="14px" viewBox="0 0 14 14" version="1.1" xmlns="http://www.w3.org/2000/svg" xmlns:xlink="http://www.w3.org/1999/xlink">
    <!-- Generator: Sketch 60.1 (88133) - https://sketch.com -->
    <title>search</title>
    <desc>Created with Sketch.</desc>
    <defs>
        <path d="M5.44456334,9.47675476 C7.65370234,9.47675476 9.44456334,7.68589376 9.44456334,5.47675476 C9.44456334,3.26761576 7.65370234,1.47675476 5.44456334,1.47675476 C3.23542434,1.47675476 1.44456334,3.26761576 1.44456334,5.47675476 C1.44456334,7.68589376 3.23542434,9.47675476 5.44456334,9.47675476 Z M9.22342159,8.57882695 L13.2182795,12.5736849 C13.3918458,12.7472512 13.3918458,13.0286579 13.2182795,13.2022242 C13.0447131,13.3757906 12.7633065,13.3757906 12.5897401,13.2022242 L8.59926046,9.21174454 C7.74780939,9.93163712 6.6468702,10.3656436 5.44456334,10.3656436 C2.74450457,10.3656436 0.555674454,8.17681354 0.555674454,5.47675476 C0.555674454,2.77669598 2.74450457,0.587865871 5.44456334,0.587865871 C8.14462212,0.587865871 10.3334522,2.77669598 10.3334522,5.47675476 C10.3334522,6.65443878 9.91704028,7.73486458 9.22342159,8.57882695 Z" id="path-1"></path>
    </defs>
    <g id="4-å†œåœº" stroke="none" stroke-width="1" fill="none" fill-rule="evenodd">
        <g id="1å†œåœºé¦–é¡µ" transform="translate(-25.000000, -43.000000)">
            <g id="ç¼–ç»„-7" transform="translate(0.000000, 26.000000)">
                <g id="æœç´¢-/-è‡ªå®šä¹‰æ ·å¼-/-åœ†è§’">
                    <g id="æœç´¢æ¡†" transform="translate(15.000000, 8.000000)">
                        <g id="ç¼–ç»„-4" transform="translate(10.000000, 9.000000)">
                            <g id="search">
                                <mask id="mask-2" fill="white">
                                    <use xlink:href="#path-1"></use>
                                </mask>
                                <use fill="#9A9A9A" fill-rule="nonzero" xlink:href="#path-1"></use>
                                <g id="ðŸŽ¨-color" mask="url(#mask-2)" fill="#BBBCBF">
                                    <g transform="translate(-1.000000, -1.000000)" id="çŸ©å½¢">
                                        <rect x="0" y="0" width="16" height="16"></rect>
                                    </g>
                                </g>
                            </g>
                        </g>
                    </g>
                </g>
            </g>
        </g>
    </g>
</svg>