<?xml version="1.0" encoding="UTF-8"?>
<svg width="26px" height="20px" viewBox="0 0 26 20" version="1.1" xmlns="http://www.w3.org/2000/svg" xmlns:xlink="http://www.w3.org/1999/xlink">
    <!-- Generator: Sketch 60.1 (88133) - https://sketch.com -->
    <title>编组</title>
    <desc>Created with Sketch.</desc>
    <g id="5-商城" stroke="none" stroke-width="1" fill="none" fill-rule="evenodd">
        <g id="1商城首页" transform="translate(-214.000000, -115.000000)" fill="#9E5A23" fill-rule="nonzero">
            <g id="编组-14" transform="translate(203.000000, 100.000000)">
                <g id="编组-9">
                    <g id="编组" transform="translate(11.000000, 15.000000)">
                        <path d="M13.2159563,9.03626816 C14.9730022,7.93574034 17.4965882,7.61967958 20.0201741,8.37761757 C23.5638328,9.44310703 25.9283127,12.2616252 25.789734,15.0158945 C25.7307805,15.753453 24.7225561,15.8237086 23.608129,15.6597431 C21.4618169,15.3407506 20.2501902,14.6558569 18.4341907,13.5991629 C17.1045129,12.826566 15.7012602,12.0714167 13.7966684,11.8021215 C12.9829872,11.6880322 12.5349114,12.3348126 13.3811126,12.6157992 C15.9076516,13.4529312 17.1487011,14.5943967 18.902938,15.4607035 C20.0556471,16.028576 21.2319809,16.3563639 22.499608,16.5319135 C23.1453239,16.6197598 23.9854388,16.5963055 24.527869,16.7046743 C25.0350063,16.8041405 25.2796437,17.020735 24.8522756,17.5504943 C23.2779604,19.608107 19.9612206,20.4656542 16.6417078,19.4676316 C13.7083282,18.5836984 11.5856406,16.4968751 11.0195498,14.2431545 C10.4977912,12.1533995 11.3497184,10.2039768 13.2159563,9.03626816 L13.2159563,9.03626816 Z M11.3144255,9.23527206 C9.66048527,8.41279899 7.44049023,8.26939182 5.24718091,9.00108674 C1.94524255,10.1016146 -0.195163436,12.8236342 0.0141810626,15.4110061 C0.090853079,16.1046951 1.04307695,16.1397693 2.0837852,15.9553886 C4.09436371,15.5924193 5.21469704,14.9133892 6.89226193,13.8684223 C7.78542425,13.3124557 8.71416755,12.7651057 9.840263,12.3874417 C9.97884158,11.208006 10.491885,10.1250688 11.3144255,9.23527206 L11.3144255,9.23527206 Z M9.83140371,13.6020946 C8.5637766,14.2840565 7.65865793,15.021615 6.5059488,15.6333571 C5.43585384,16.2011938 4.34206224,16.5407446 3.15096306,16.7426803 C2.54662626,16.8451854 1.75361652,16.8451854 1.24647928,16.9622424 C0.771861861,17.0704681 0.550705075,17.2811992 0.966404952,17.7670889 C2.50834428,19.6578401 5.65402154,20.3691556 8.74650738,19.3359158 C9.90216961,18.9496352 10.9164442,18.3671038 11.7360316,17.6588631 C10.910538,16.760271 10.2855296,15.6978563 9.98770087,14.497755 C9.91102883,14.1963532 9.85798145,13.8977759 9.83140371,13.6020946 L9.83140371,13.6020946 Z M16.8480632,6.9142277 C16.6180472,5.64987746 16.0461943,4.35031 15.1322524,3.17952655 C12.9947995,0.448711629 9.69876725,-0.657536756 7.31077086,0.390218928 C6.67701131,0.691728013 6.95712164,1.59604078 7.47888026,2.5092919 C8.48710462,4.2742266 9.5012351,5.09963141 11.0491166,6.3289075 C11.6798871,6.82931318 12.3137906,7.35042016 12.9035061,7.98836947 C14.1003674,7.30347585 15.4653741,6.96689256 16.8480632,6.9142277 L16.8480632,6.9142277 Z M11.1788,8.09091044 C10.5125566,7.5756671 9.86982977,7.11913091 9.24183232,6.54832661 C8.34852597,5.73464892 7.66456411,4.81860907 7.08089886,3.77074611 C6.78310604,3.23805504 6.52071421,2.49463294 6.24359294,2.05861929 C5.98419016,1.65178046 5.71297507,1.51126926 5.38575954,2.06155105 C4.40692195,3.63316673 4.38034422,5.84891703 5.30318138,7.94453572 C7.20175899,7.39132214 9.33031668,7.36493604 11.1788,8.09091044 L11.1788,8.09091044 Z" id="形状"></path>
                    </g>
                </g>
            </g>
        </g>
    </g>
</svg>