<?xml version="1.0" encoding="UTF-8"?>
<svg width="21px" height="22px" viewBox="0 0 21 22" version="1.1" xmlns="http://www.w3.org/2000/svg" xmlns:xlink="http://www.w3.org/1999/xlink">
    <!-- Generator: Sketch 60.1 (88133) - https://sketch.com -->
    <title>farmer</title>
    <desc>Created with Sketch.</desc>
    <g id="5-商城" stroke="none" stroke-width="1" fill="none" fill-rule="evenodd">
        <g id="1商城首页" transform="translate(-15.000000, -216.000000)">
            <g id="编组-16" transform="translate(15.000000, 216.000000)">
                <g id="farmer">
                    <path d="M10.0780585,14.9299376 L10.0780585,15.6307212 C10.0780585,16.4528265 9.41153996,17.119345 8.5894347,17.119345 C7.76732943,17.119345 7.10081092,16.4528265 7.10081092,15.6307212 L7.10081092,14.9299376 C3.75179337,15.3005926 1.14635867,18.1371774 1.14635867,21.5851735 L1.14635867,21.5851735 L16.0325536,21.5851735 L16.0325536,21.5851735 C16.0325536,18.1371774 13.427076,15.3005926 10.0780585,14.9299376" id="Shape" fill="#48A0DC"></path>
                    <path d="M8.5894347,13.025501 C8.05984795,13.025501 7.55706433,12.9130994 7.10081092,12.7136413 L7.10081092,15.6305926 C7.10081092,16.4526979 7.76732943,17.1192164 8.5894347,17.1192164 C9.41153996,17.1192164 10.0780585,16.4526979 10.0780585,15.6305926 L10.0780585,12.7136413 C9.62180507,12.9131423 9.11902144,13.025501 8.5894347,13.025501" id="Shape" fill="#F6935E"></path>
                    <path d="M15.6156686,4.34043275 C13.9804211,3.41265887 12.5312515,2.21282261 11.1543002,0.932619883 C10.5409591,0.362849903 9.62026121,0 8.58939181,0 C7.55852242,0 6.63782456,0.362849903 6.0248694,0.932619883 C4.64753216,2.21282261 3.19836257,3.41265887 1.56311501,4.34043275 L0.0298479532,5.21014035 L3.00709552,5.21014035 L14.171731,5.21014035 L17.1489786,5.21014035 L15.6156686,4.34043275 Z" id="Shape" fill="#FEC24C"></path>
                    <path d="M5.03881481,5.21026901 C4.92791423,5.56269786 4.8680039,5.93781287 4.8680039,6.32673684 L4.8680039,9.30398441 C4.8680039,11.3593762 6.53412865,13.0255439 8.58956335,13.0255439 C10.6449981,13.0255439 12.3111228,11.3594191 12.3111228,9.30398441 L12.3111228,6.32673684 C12.3111228,5.93785575 12.2508265,5.56269786 12.1403119,5.21026901 L5.03881481,5.21026901 L5.03881481,5.21026901 Z" id="Shape" fill="#FABA81"></path>
                    <path d="M11.5666823,18.9799961 C11.3608772,18.9799961 11.1945263,18.8132593 11.1945263,18.6078402 L11.1945263,15.2584366 C11.1945263,15.0530175 11.3608772,14.8862807 11.5666823,14.8862807 C11.7724873,14.8862807 11.9388382,15.0530175 11.9388382,15.2584366 L11.9388382,18.6078402 C11.9388382,18.8132593 11.7724873,18.9799961 11.5666823,18.9799961" id="Shape" fill="#C9C3A7"></path>
                    <path d="M5.61223002,18.9799961 C5.40642495,18.9799961 5.24007407,18.8132593 5.24007407,18.6078402 L5.24007407,15.2584366 C5.24007407,15.0530175 5.40642495,14.8862807 5.61223002,14.8862807 C5.81803509,14.8862807 5.98438596,15.0530175 5.98438596,15.2584366 L5.98438596,18.6078402 C5.98438596,18.8132593 5.8179922,18.9799961 5.61223002,18.9799961" id="Shape" fill="#C9C3A7"></path>
                    <path d="M12.6831501,6.69889279 C12.5517934,6.69889279 12.4278558,6.72569591 12.3109942,6.76738012 L12.3109942,8.86334113 C12.4278558,8.90502534 12.5517934,8.93182846 12.6831501,8.93182846 C13.2997934,8.93182846 13.7996179,8.4320039 13.7996179,7.81536062 C13.7996179,7.19871735 13.2997934,6.69889279 12.6831501,6.69889279" id="Shape" fill="#F6935E"></path>
                    <path d="M4.49576218,8.93182846 C4.62711891,8.93182846 4.75105653,8.90502534 4.86791813,8.86334113 L4.86791813,6.76738012 C4.75105653,6.72569591 4.62711891,6.69889279 4.49576218,6.69889279 C3.87911891,6.69889279 3.37929435,7.19871735 3.37929435,7.81536062 C3.37929435,8.4320039 3.87907602,8.93182846 4.49576218,8.93182846" id="Shape" fill="#F6935E"></path>
                    <path d="M17.5211345,21.9572437 C17.3153294,21.9572437 17.1489786,21.7905068 17.1489786,21.5850877 L17.1489786,15.6305926 C17.1489786,15.4251735 17.3153294,15.2584366 17.5211345,15.2584366 C17.7269396,15.2584366 17.8932904,15.4251735 17.8932904,15.6305926 L17.8932904,21.5850448 C17.8932904,21.7905068 17.7269396,21.9572437 17.5211345,21.9572437" id="Shape" fill="#E0E0E0"></path>
                    <path d="M17.5211345,16.0027485 C16.0850019,16.0027485 14.9160429,14.8341754 14.9160429,13.3976569 L14.9160429,10.4204094 C14.9160429,10.2149903 15.0823938,10.0482534 15.2881988,10.0482534 C15.4940039,10.0482534 15.6603548,10.2149903 15.6603548,10.4204094 L15.6603548,13.3976569 C15.6603548,14.4236803 16.4951111,15.2584366 17.5211345,15.2584366 C18.5471579,15.2584366 19.3819142,14.4236803 19.3819142,13.3976569 L19.3819142,10.4204094 C19.3819142,10.2149903 19.5482651,10.0482534 19.7540702,10.0482534 C19.9598752,10.0482534 20.1262261,10.2149903 20.1262261,10.4204094 L20.1262261,13.3976569 C20.1262261,14.8341754 18.9573099,16.0027485 17.5211345,16.0027485" id="Shape" fill="#E0E0E0"></path>
                    <path d="M16.7768655,15.6305926 C16.5714464,15.6305926 16.4050955,15.4642417 16.4047096,15.2588226 L16.3998635,10.7929513 C16.3994776,10.5875322 16.5662144,10.4204094 16.7716335,10.4204094 L16.7720195,10.4204094 C16.9774386,10.4204094 17.1437895,10.5867602 17.1441754,10.7921793 L17.1490214,15.2580507 C17.1494074,15.4634698 16.9830565,15.6305926 16.7772515,15.6305926 L16.7768655,15.6305926 Z" id="Shape" fill="#E0E0E0"></path>
                    <path d="M18.2702066,15.6305926 C18.0647875,15.6305926 17.8984366,15.4642417 17.8980507,15.2588226 L17.8932047,10.7929513 C17.8928187,10.5875322 18.0595556,10.4204094 18.2649747,10.4204094 L18.2653606,10.4204094 C18.4707797,10.4204094 18.6371306,10.5867602 18.6375166,10.7921793 L18.6423626,15.2580507 C18.6427485,15.4634698 18.4763977,15.6305926 18.2705926,15.6305926 L18.2702066,15.6305926 Z" id="Shape" fill="#E0E0E0"></path>
                    <path d="M11.9388382,4.09380117 C11.7330331,4.09380117 11.5666823,3.92706433 11.5666823,3.72164522 C11.5666823,1.87501754 13.0690721,0.372241715 14.9160858,0.372241715 C15.1218908,0.372241715 15.2882417,0.538978558 15.2882417,0.744397661 C15.2882417,0.949816764 15.1218908,1.11655361 14.9160858,1.11655361 C13.4799532,1.11655361 12.3109942,2.28512671 12.3109942,3.72164522 C12.3109942,3.92710721 12.1446433,4.09380117 11.9388382,4.09380117" id="Shape" fill="#4CAF50"></path>
                    <polygon id="Shape" fill="#ECE8D8" points="4.49576218 21.5850877 12.6831501 21.5850877 12.6831501 18.6078402 4.49576218 18.6078402"></polygon>
                    <path d="M6.35654191,20.4686199 C6.15112281,20.4686199 5.98477193,20.302269 5.98438596,20.0968499 C5.984,19.8914308 6.15035088,19.724308 6.35615595,19.724308 L10.8220273,19.719462 L10.8224133,19.719462 C11.0278324,19.719462 11.1941832,19.8858129 11.1945692,20.091232 C11.1949552,20.297037 11.0286043,20.4637739 10.8227992,20.4637739 L6.35692788,20.4686199 L6.35654191,20.4686199 Z" id="Shape" fill="#C9C3A7"></path>
                </g>
            </g>
        </g>
    </g>
</svg>