<?xml version="1.0" encoding="UTF-8"?>
<svg width="16px" height="16px" viewBox="0 0 16 16" version="1.1" xmlns="http://www.w3.org/2000/svg" xmlns:xlink="http://www.w3.org/1999/xlink">
    <!-- Generator: Sketch 60.1 (88133) - https://sketch.com -->
    <title>编组</title>
    <desc>Created with Sketch.</desc>
    <g id="6-社区" stroke="none" stroke-width="1" fill="none" fill-rule="evenodd">
        <g id="3社区帖子回复" transform="translate(-336.000000, -364.000000)" fill="#FFFFFF" fill-rule="nonzero">
            <g id="编组-8" transform="translate(15.000000, 353.000000)">
                <g id="编组-6" transform="translate(313.000000, 3.000000)">
                    <g id="编组" transform="translate(8.000000, 8.000000)">
                        <path d="M12.8901398,15.1572205 L8.49184783,13.0007764 C8.16381988,12.8396739 8.02600932,12.4437112 8.1871118,12.1137422 C8.26475155,11.9565217 8.40062112,11.8361801 8.56560559,11.7779503 C8.73253106,11.7216615 8.91304348,11.7313665 9.07220497,11.8090062 L12.6785714,13.5791925 L14.2352484,2.92119565 L7.22437888,11.3334627 L7.22437888,15.2426242 C7.22437888,15.6075311 6.92740683,15.9045031 6.5625,15.9045031 C6.19759317,15.9045031 5.90062112,15.6075311 5.90062112,15.2426242 L5.90062112,11.1160714 C5.90062112,11.0811335 5.90256211,11.0481366 5.90838509,11.0131988 C5.92391304,10.8850932 5.97631988,10.7628106 6.05784161,10.6638199 L12.6630435,2.73680124 L2.07298137,8.23175466 L4.56909938,9.52639752 C4.89712733,9.69914596 5.02717391,10.0989907 4.86607143,10.4309006 C4.79231366,10.5842391 4.65838509,10.7006988 4.49728261,10.7569876 C4.33618012,10.8132764 4.15954969,10.8016304 4.00621118,10.7278727 L0.395962733,8.84899068 C0.258152174,8.77717391 0.149456522,8.66071429 0.0873447205,8.51902174 C0.00582298137,8.36568323 -0.0116459627,8.18517081 0.0388198758,8.02018634 C0.0892857143,7.85326087 0.203804348,7.71350932 0.359083851,7.63198758 L14.9087733,0.0834627329 C15.005823,0.0329968944 15.1145186,0.00765541763 15.2232143,0.00765541763 C15.5473602,0.00194099379 15.8268634,0.230978261 15.8850932,0.549301242 C15.9064441,0.656055901 15.9025621,0.764751553 15.8734472,0.869565217 L13.8606366,14.6525621 C13.8179348,14.9514752 13.5830745,15.1727484 13.2996894,15.2154503 C13.1599379,15.2406832 13.0163043,15.2212733 12.8901398,15.1572205 Z" id="路径"></path>
                    </g>
                </g>
            </g>
        </g>
    </g>
</svg>