<?xml version="1.0" encoding="UTF-8"?>
<svg width="23px" height="23px" viewBox="0 0 23 23" version="1.1" xmlns="http://www.w3.org/2000/svg" xmlns:xlink="http://www.w3.org/1999/xlink">
    <!-- Generator: Sketch 60.1 (88133) - https://sketch.com -->
    <title>形状</title>
    <desc>Created with Sketch.</desc>
    <g id="5-商城" stroke="none" stroke-width="1" fill="none" fill-rule="evenodd">
        <g id="2商品详情" transform="translate(-25.000000, -823.000000)" fill="#666666" fill-rule="nonzero">
            <g id="编组-9" transform="translate(25.000000, 810.000000)">
                <g id="编组-8" transform="translate(0.000000, 5.000000)">
                    <g id="编组" transform="translate(0.000000, 8.000000)">
                        <path d="M4.54586773,21.1895637 C4.54586773,22.1257775 5.30481899,22.8847288 6.24103282,22.8847288 C7.17724665,22.8847288 7.93619792,22.1257775 7.93619792,21.1895637 C7.93619792,20.2533498 7.17724665,19.4943986 6.24103282,19.4943986 C5.30481899,19.4943986 4.54586773,20.2533498 4.54586773,21.1895637 Z M17.5421335,21.1895637 C17.5421335,22.1257775 18.3010847,22.8847288 19.2372985,22.8847288 C20.1735124,22.8847288 20.9324636,22.1257775 20.9324636,21.1895637 C20.9324636,20.2533498 20.1735124,19.4943986 19.2372985,19.4943986 C18.3010847,19.4943986 17.5421335,20.2533498 17.5421335,21.1895637 Z M19.6187107,18.081761 L5.88222288,18.081761 C5.3793239,18.081761 4.89902712,17.8924676 4.53174135,17.5506093 C4.16445558,17.208751 3.94408412,16.7425806 3.90735554,16.2396816 L2.90720814,1.69516509 L0.873010024,1.69516509 C0.404014347,1.69516509 0.0254274764,1.31657822 0.0254274764,0.847582547 C0.0254274764,0.378586871 0.404014347,0 0.873010024,0 L3.69828518,0 C4.14467866,0 4.51196443,0.344683569 4.54304245,0.788251769 L4.76058864,3.95538522 L20.5397504,3.95538522 C21.0935043,3.95538522 21.6274813,4.18988306 22.0004176,4.59954796 C22.373354,5.00921285 22.5598221,5.56014151 22.5089672,6.11107017 L21.5851022,16.2820607 C21.5398978,16.7736586 21.3138758,17.2285279 20.9494153,17.5647357 C20.5849548,17.8981181 20.1131338,18.081761 19.6187107,18.081761 L19.6187107,18.081761 Z M4.8792502,5.65055031 L5.60252064,16.1238453 C5.60534591,16.1747003 5.62512284,16.2481574 5.69292944,16.3103135 C5.76073605,16.3724695 5.8341932,16.3865959 5.88504815,16.3865959 L19.6187107,16.3865959 C19.6695656,16.3865959 19.7430228,16.3724695 19.8080041,16.3131388 C19.8758107,16.2509827 19.8955877,16.1803508 19.8984129,16.1294959 L20.8222779,5.95850531 C20.8251032,5.9133009 20.8222779,5.8228921 20.7488208,5.74378439 C20.6753636,5.66467669 20.5877801,5.65055031 20.5397504,5.65055031 L4.8792502,5.65055031 Z" id="形状"></path>
                    </g>
                </g>
            </g>
        </g>
    </g>
</svg>