<?xml version="1.0" encoding="UTF-8"?>
<svg width="13px" height="12px" viewBox="0 0 13 12" version="1.1" xmlns="http://www.w3.org/2000/svg" xmlns:xlink="http://www.w3.org/1999/xlink">
    <!-- Generator: Sketch 60.1 (88133) - https://sketch.com -->
    <title>路径</title>
    <desc>Created with Sketch.</desc>
    <g id="3-碳足迹" stroke="none" stroke-width="1" fill="none" fill-rule="evenodd">
        <g id="1备份-2" transform="translate(-127.000000, -1821.000000)" fill="#F9C63A" fill-rule="nonzero">
            <g id="编组-25备份" transform="translate(15.000000, 1644.000000)">
                <g id="编组-22备份-2" transform="translate(112.000000, 177.000000)">
                    <g id="编组">
                        <path d="M12.7209788,4.54089936 C12.6512301,4.32894855 12.4649276,4.17439166 12.2414565,4.14275721 L8.55624765,3.61536574 L6.90797593,0.326286758 C6.80794162,0.126537801 6.60144878,0 6.3752244,0 C6.14900003,0 5.94250719,0.126537801 5.84247288,0.326286758 L4.19420116,3.61536574 L0.508533435,4.14275721 C0.284603424,4.17484358 0.0987598695,4.32894855 0.0290111775,4.54089936 C-0.0407375145,4.75285018 0.0175393532,4.98513743 0.179521513,5.14059815 L2.84649124,7.70072902 L2.21691752,11.3156428 C2.17883106,11.5352763 2.27014678,11.7571694 2.4532371,11.8882264 C2.63632741,12.0192834 2.87861234,12.0364564 3.07913983,11.9325146 L6.37568328,10.2256101 L9.67176785,11.9325146 C9.75849484,11.9772548 9.85348155,11.9998508 9.94800938,11.9998508 C10.0709873,11.9998508 10.1939653,11.9623414 10.2972117,11.8882264 C10.480302,11.7571694 10.5716177,11.5352763 10.5335313,11.3156428 L9.90395757,7.70072902 L12.5709273,5.14059815 C12.7324506,4.98513743 12.7907275,4.75285018 12.7209788,4.54089936 Z" id="路径"></path>
                    </g>
                </g>
            </g>
        </g>
    </g>
</svg>