<?xml version="1.0" encoding="UTF-8"?>
<svg width="21px" height="28px" viewBox="0 0 21 28" version="1.1" xmlns="http://www.w3.org/2000/svg" xmlns:xlink="http://www.w3.org/1999/xlink">
    <!-- Generator: Sketch 60.1 (88133) - https://sketch.com -->
    <title>编组</title>
    <desc>Created with Sketch.</desc>
    <g id="5-商城" stroke="none" stroke-width="1" fill="none" fill-rule="evenodd">
        <g id="1商城首页" transform="translate(-138.000000, -110.000000)" fill-rule="nonzero">
            <g id="编组-13" transform="translate(124.000000, 100.000000)">
                <g id="编组-10">
                    <g id="编组" transform="translate(23.989735, 24.058216) rotate(20.000000) translate(-23.989735, -24.058216) translate(13.989735, 10.058216)">
                        <path d="M19.5137928,11.2322969 C18.4365947,6.83367557 12.2427053,5.25886054 7.88005287,6.23633191 C7.77233306,6.23633191 5.72565658,6.23633191 3.84055984,7.05089141 C3.84055984,7.10519539 3.89441976,7.10519539 3.94827964,7.15949937 C3.89441973,7.10519539 3.84055984,7.10519539 3.84055984,7.05089141 C2.49406215,7.64823504 1.20142439,8.62570644 0.824405026,10.3634334 C0.124226224,13.2415436 1.14756447,16.3368697 2.33248243,18.9977641 C2.8172216,20.1381474 3.35582068,21.1699228 3.84055984,22.0387862 C3.84055984,22.0930902 3.89441976,22.1473942 3.89441973,22.1473942 C5.51021694,25.1341124 6.26425563,27.4691829 9.49585008,27.9579186 C11.7579662,28.2837424 12.996744,26.6546234 13.8585025,25.2427203 C14.2355219,24.6453767 14.5048214,24.048033 14.720261,23.7222092 C15.3665799,22.6904338 20.5909909,15.6309182 19.5137928,11.2322969 L19.5137928,11.2322969 Z M12.4042851,8.13697077 C12.3504251,8.19127475 12.2965653,8.29988267 12.2427053,8.40849059 C12.3504251,8.29988267 12.3504251,8.24557869 12.4042851,8.13697077 Z" id="形状" fill="#EA2117"></path>
                        <path d="M7.16255259,24.2041873 C8.88105105,26.4101376 10.1699249,25.387868 12.2643449,25.3340643 C13.016188,25.2802606 13.4458126,25.226457 13.8217342,25.1188496 C14.1976557,24.5270093 14.4661711,23.9351689 14.6809834,23.612347 C15.3791234,22.5362737 20.5883219,15.5417969 19.5142603,11.1836999 C18.4401988,6.82560291 12.2643449,5.26529658 7.91439566,6.23376256 C7.80698951,6.23376256 5.76627256,6.23376256 3.88666486,7.04081756 C3.99407101,7.20222856 4.42369565,7.30983588 4.63850797,7.68646156 C5.12183566,8.60112389 5.7125695,8.27830189 6.08849105,8.22449824 C6.73292798,8.06308724 8.23661415,8.65492757 8.50512953,9.46198257 C8.7736449,10.2690376 11.5125018,10.3228412 12.318048,8.38590924 C13.1235942,6.44897723 15.6476388,10.2152339 13.8754372,13.0130246 C11.9421264,16.0260299 9.14956642,19.2004463 2.38297872,18.931428 C2.86630642,20.061305 3.4033372,21.0835746 3.88666486,21.9444333 C4.63850794,22.1058443 5.92738179,22.6976846 7.16255259,24.2041873 L7.16255259,24.2041873 Z" id="路径" fill="#DF1705"></path>
                        <path d="M9.29169526,27.9579452 C11.5785861,28.2835631 12.8309311,26.6554736 13.7021277,25.2444626 C13.3209792,25.2987323 12.8853809,25.4072716 12.1230839,25.4615412 C9.94509262,25.5700805 8.80164719,25.6786198 7.00480439,23.941991 C5.58911005,22.5852497 4.33676503,22.2053621 3.57446809,22.0425532 C3.57446809,22.0968229 3.62891788,22.1510925 3.62891785,22.1510925 C5.26241133,25.1359233 6.02470827,27.4695183 9.29169526,27.9579452 Z" id="路径" fill="#FA2802"></path>
                        <path d="M13.7021277,5.36170213 C13.7021277,5.36170213 14.8092638,5.41882834 15.1255884,5.70445934 C15.441913,5.99009034 16.9180945,6.21859516 17.0762568,6.38997377 C17.2344191,6.56135237 18.1833929,6.9612358 18.394276,7.47537162 C18.6051591,7.98950744 19.6068537,9.13203147 19.6595745,9.53191489 C19.6595745,9.53191489 18.0779514,8.16088604 17.498023,8.04663362 C16.9180945,7.93238119 13.9657315,6.21859516 13.7021277,5.36170213 L13.7021277,5.36170213 Z" id="路径" fill="#426A06"></path>
                        <path d="M14.5337699,13.474593 C15.8778653,8.77089946 13.0821469,6.55421631 12.2756897,8.4465068 C11.4692325,10.3928627 8.7272779,10.3387973 8.45845883,9.52781565 C8.18963977,8.716834 6.953072,7.63552516 5.23262992,7.63552516 C4.80251941,7.63552516 3.99606219,7.3111325 3.83477074,7.14893617 C2.49067535,7.74365603 1.20034379,8.716834 0.823997071,10.4469282 C0.125067464,13.3123967 1.14657996,16.3941269 2.32938391,19.0433336 C9.10362462,19.3136608 13.5660213,16.8807159 14.5337699,13.474593 L14.5337699,13.474593 Z" id="路径" fill="#EA2117"></path>
                        <path d="M9.50444539,0.174782878 C9.50444539,0.174782878 9.66926237,1.79000208 9.50444539,2.1798826 C9.33962842,2.56976311 10.1087743,5.96729316 9.33962842,5.85589874 C8.57048256,5.80020152 6.81243483,5.2432294 6.53773989,5.2432294 C6.26304495,5.2432294 4.7796922,4.24067954 4.94450917,3.51661574 C4.94450917,3.51661574 4.45005825,4.18498231 4.99944814,5.07613775 C4.99944814,5.07613775 3.46115639,5.35462382 2.8568275,3.85079903 C2.8568275,3.85079903 2.96670547,5.46601823 4.50499722,5.6888071 C4.50499722,5.6888071 2.69201053,5.80020152 2.36237658,5.91159597 C2.03274264,6.02299039 0.76914586,6.80275141 0,6.19008203 C0,6.19008203 0.274694943,6.96984302 1.59323072,6.69135696 C2.9117665,6.4128709 4.50499722,6.91414583 7.6914587,6.19008203 C7.6914587,6.19008203 7.03219081,6.74705419 7.6914587,7.5825124 C7.6914587,7.5825124 8.24084862,8.25087897 9.06493348,7.5825124 C9.88901834,6.91414583 9.88901834,6.07868761 11.0976761,6.46856809 C11.0976761,6.46856809 12.0316389,6.96984302 13.4600527,7.02554025 C14.8884665,7.08123747 18.7341958,9.53191489 18.7341958,9.53191489 C18.7341958,9.53191489 15.3279784,6.80275138 14.6137715,6.4128709 C14.6137715,6.4128709 18.4595009,7.1369347 19.0638298,7.19263189 C19.0638298,7.19263189 16.4267582,6.13438481 14.6687105,5.6888071 C14.6687105,5.6888071 16.3168803,5.63310988 16.7014532,5.2432294 C16.7014532,5.2432294 15.3829174,4.40777118 13.6798087,5.2432294 C13.6798087,5.2432294 11.0976761,6.13438484 10.7680422,5.52171546 C10.4384082,4.85334889 10.4384082,0.453268939 10.3834693,0.119085652 C10.2186523,0.00769123451 9.44950642,-0.103703216 9.50444539,0.174782878 Z" id="路径" fill="#629802"></path>
                        <path d="M2.37613035,11.3191489 C2.37613035,11.3191489 3.0347496,11.3676921 2.97487514,11.7560376 C2.91500069,12.144383 2.3162559,12.6298148 2.01688349,12.4841853 C1.71751107,12.3385557 1.59776213,11.3676921 2.37613035,11.3191489 L2.37613035,11.3191489 Z" id="路径" fill="#CF0A05"></path>
                        <path d="M2.03399955,11.3347856 C2.20848911,11.2774122 2.38297872,11.392159 2.38297872,11.4495324 C2.38297872,11.6216526 2.03399955,11.9658929 1.85950999,11.9085195 C1.68502042,11.9085195 1.85950999,11.392159 2.03399955,11.3347856 Z" id="路径" fill="#E77006"></path>
                        <path d="M3.64982722,7.80851178 C4.07378499,7.91456565 4.2857639,8.6569428 5.39865309,8.44483504 C6.51154227,8.17970036 7.62443146,8.92207748 7.7304209,9.87656235 C7.83641034,10.8310472 7.35945783,12.2627746 6.03458976,12.740017 C4.76271641,13.1642325 3.96779556,12.8990978 3.06688527,14.436879 C2.53693803,15.28531 1.47704357,14.8610945 1.00009106,13.9066096 C0.47014382,12.8990978 0.47014382,10.7249934 0.947096329,9.77050849 C1.37105411,8.76299666 2.27196442,7.43732324 3.64982722,7.80851178 Z" id="路径" fill="#E94645"></path>
                        <path d="M15.1137271,11.8622213 C15.1137271,11.8622213 15.7077987,11.6999557 15.8158117,12.0785755 C15.9238247,12.4571954 15.6537922,13.2144351 15.3837597,13.2144351 C15.0597206,13.2144351 14.5196555,12.1867526 15.1137271,11.8622213 Z M17.8140526,12.3490183 C17.8140526,12.3490183 18.4081242,12.2408412 18.4621307,12.6194611 C18.5161372,12.9980809 18.1920982,13.7553207 17.9220656,13.7012321 C17.652033,13.6471435 17.1659745,12.6194611 17.8140526,12.3490183 Z M8.25490037,20.4623012 C8.25490037,20.4623012 8.84897196,20.3000355 8.956985,20.6786554 C9.06499801,21.0572752 8.79496547,21.814515 8.5249329,21.814515 C8.20089384,21.814515 7.66082874,20.840921 8.25490037,20.4623012 L8.25490037,20.4623012 Z M4.74447724,22.1931348 C4.74447724,22.1931348 5.28454234,21.9226921 5.44656184,22.3013119 C5.60858134,22.6799318 5.55457485,23.4371715 5.28454231,23.4912601 C5.01450977,23.5453487 4.25841861,22.6799318 4.74447724,22.1931348 L4.74447724,22.1931348 Z M10.4691673,22.4635776 C10.4691673,22.4635776 11.0632389,22.5176662 11.0092324,22.9503746 C10.9552259,23.383083 10.4151608,23.9239685 10.1451282,23.8157914 C9.87509563,23.7076143 9.76708262,22.5717547 10.4691673,22.4635776 L10.4691673,22.4635776 Z M5.28454231,18.9478217 C5.28454231,18.9478217 5.82460742,18.6773789 5.98662695,19.0559988 C6.14864648,19.4346187 5.98662695,20.1918584 5.71659441,20.245947 C5.44656187,20.245947 4.74447724,19.3805301 5.28454231,18.9478217 L5.28454231,18.9478217 Z M13.7095579,20.9490981 C13.7095579,20.9490981 14.3036294,21.0031867 14.249623,21.3818066 C14.1956164,21.7604264 13.6555514,22.4094891 13.4395253,22.2472234 C13.2234993,22.0849577 13.0074732,21.0572752 13.7095579,20.9490981 L13.7095579,20.9490981 Z M15.9238248,17.1088109 C15.9238248,17.1088109 16.5178964,16.9465452 16.6259094,17.3251651 C16.7339224,17.703785 16.4638899,18.4610247 16.1938573,18.4610247 C15.9238248,18.4069362 15.3297531,17.4333422 15.9238248,17.1088109 L15.9238248,17.1088109 Z M2.63822335,16.4056597 C2.63822335,16.4056597 3.23229495,16.3515712 3.23229495,16.7842796 C3.23229495,17.216988 2.80024288,17.8660506 2.53021031,17.7578735 C2.31418426,17.6496964 1.93613871,16.5679254 2.63822335,16.4056597 L2.63822335,16.4056597 Z M8.956985,17.3251651 C8.956985,17.3251651 9.5510566,17.1628995 9.65906961,17.5415193 C9.76708262,17.9201392 9.49705008,18.6773789 9.22701754,18.6773789 C8.956985,18.6773789 8.36291337,17.6496964 8.956985,17.3251651 L8.956985,17.3251651 Z M12.6834342,18.6232904 C12.6834342,18.6232904 13.2775058,18.7314675 13.1694928,19.1100874 C13.0614798,19.4887072 12.5214147,20.0836813 12.2513821,19.9214156 C12.035356,19.8132385 11.9813495,18.6773789 12.6834342,18.6232904 Z M10.6851933,13.7553207 C10.6851933,13.7553207 11.2792649,13.6471436 11.3332714,14.0257634 C11.3872779,14.4043833 11.0632389,15.161623 10.7932063,15.1075345 C10.5231738,15.0534459 10.0911217,14.0257634 10.6851933,13.7553207 Z M5.1765293,15.5943315 C5.1765293,15.5943315 5.7706009,15.3779772 5.87861394,15.7565971 C5.98662695,16.135217 5.82460742,16.8924567 5.55457488,16.8924567 C5.28454234,16.9465453 4.58245771,15.9729513 5.1765293,15.5943315 Z M2.20617125,12.9980809 C2.20617125,12.9980809 2.80024285,12.8358153 2.90825589,13.2144351 C3.0162689,13.593055 2.74623636,14.3502947 2.47620382,14.3502947 C2.15216476,14.3502947 1.61209965,13.3767008 2.20617125,12.9980809 Z M1.8281257,8.61690818 C1.8281257,8.61690818 2.4221973,8.77917384 2.31418429,9.15779368 C2.20617128,9.53641356 1.55809316,10.0772991 1.34206711,9.91503344 C1.07203458,9.75276778 1.12604106,8.61690818 1.8281257,8.61690818 L1.8281257,8.61690818 Z M10.6311868,10.4018304 C10.6311868,10.4018304 11.2252584,10.2395648 11.3332714,10.6181846 C11.4412844,10.9968045 11.1712519,11.7540442 10.9012194,11.7540442 C10.6311868,11.6999556 10.0371152,10.7263617 10.6311868,10.4018304 L10.6311868,10.4018304 Z M5.23053582,7.15651726 C5.23053582,7.15651726 5.82460742,7.37287148 5.60858137,7.75149133 C5.44656184,8.13011121 4.7444772,8.56281962 4.52845119,8.3464654 C4.31242514,8.13011118 4.52845119,7.04834014 5.23053582,7.15651726 L5.23053582,7.15651726 Z M6.63470507,12.1326641 C6.63470507,12.1326641 7.22877667,12.1867526 7.17477018,12.6194611 C7.12076366,12.9980809 6.52669206,13.593055 6.31066601,13.4848779 C6.04063347,13.3226122 5.93262043,12.1867526 6.63470507,12.1326641 Z M13.7635644,15.2157116 C13.7635644,15.2157116 14.357636,15.2157116 14.357636,15.5943315 C14.357636,15.9729513 13.9255839,16.6761025 13.6555514,16.5679254 C13.4395253,16.4597483 13.1154863,15.3779772 13.7635644,15.2157116 L13.7635644,15.2157116 Z" id="形状" fill="#CF0A05"></path>
                        <path d="M4.98780064,3.57446809 C4.98780064,3.57446809 4.35246274,4.76595745 5.23216136,5.26241133 C5.23216136,5.26241133 6.06298783,5.21276593 6.5517093,5.36170213 C6.60058145,5.36170213 5.42764996,4.71631205 4.98780064,3.57446809 Z" id="路径" fill="#8CA209"></path>
                        <path d="M9.53191489,5.95744681 C9.53191489,5.95744681 8.17021277,5.63666121 7.71631203,5.63666121 C7.26241134,5.63666121 4.19858155,5.86579376 3.57446809,5.36170213 C3.57446809,5.36170213 4.08510638,5.86579376 5.95744681,5.91162029 C7.9432624,5.95744681 7.77304963,5.86579376 9.53191489,5.95744681 Z" id="路径" fill="#385C01"></path>
                        <path d="M7.74468085,5.36170213 C7.74468085,5.36170213 7.311412,5.16312058 6.22823986,5.12340426 C5.1992263,5.08368794 3.89941972,5.04397164 3.57446808,5.00425532 C3.19535781,4.964539 2.9787234,4.76595745 2.9787234,4.76595745 C2.9787234,4.76595745 3.19535785,5.24255319 4.17021275,5.32198581 C5.36170213,5.40141842 7.20309476,5.28226949 7.74468085,5.36170213 L7.74468085,5.36170213 Z" id="路径" fill="#A5C552"></path>
                        <path d="M12.418533,5.96345432 C12.418533,5.96345432 13.3654194,5.90938673 13.6810482,6.12565707 C13.996677,6.34192742 14.6805394,6.45006258 14.9435634,6.55819774 C16.626917,7.31514391 18.3102707,9.36971214 18.4680851,9.53191489 C18.4680851,9.53191489 15.7326354,7.90988736 14.8383538,7.47734666 C14.0492818,7.09887356 11.6820658,7.044806 11.366437,6.50413014 C11.0508082,5.90938673 12.418533,5.96345429 12.418533,5.96345432 L12.418533,5.96345432 Z" id="路径" fill="#8DB20E"></path>
                        <path d="M13.4952719,5.17453014 C13.4952719,5.17453014 14.537825,4.65743033 15.464539,4.78670528 C16.391253,4.98061771 16.4491726,5.10989265 16.6808511,5.17453014 C16.6808511,5.17453014 16.5070922,5.56235501 15.2328605,5.6269925 C14.537825,5.6269925 14.3061465,6.01481736 14.0744681,5.95017987 C13.9586289,5.95017987 12.5106383,5.56235501 12.5106383,5.56235501 C12.5106383,5.56235501 13.0319149,5.36844257 13.4952719,5.17453014 L13.4952719,5.17453014 Z" id="路径" fill="#4B7D11"></path>
                        <path d="M12.5765658,5.74386329 C12.5765658,5.74386329 12.9985016,5.26481033 13.7896314,5.62410006 C14.5280192,5.98338979 17.2178604,7.36066708 19.0638298,7.12114062 C19.0638298,7.12114062 15.9520527,6.34267952 14.8444711,5.68398169 C13.8423734,5.08516546 12.5238238,5.50433683 12.5238238,5.50433683 C12.5238238,5.50433683 12.4710818,5.74386333 12.5765658,5.74386329 Z" id="路径" fill="#588100"></path>
                        <path d="M12.5106383,5.49718363 C12.5106383,5.49718363 13.9072201,5.09903391 14.8203697,5.66781922 C15.7335193,6.17972599 17.1301011,6.29348304 17.6135333,6.57787572 C18.1506802,6.86226836 19.0638298,6.9191469 19.0638298,7.14666103 C19.0638298,7.14666103 17.6135333,7.20353957 16.9152424,6.74851131 C16.2169515,6.29348308 15.3038019,6.46411867 14.5517963,5.7815763 C13.7997907,5.09903394 12.564353,5.72469776 12.5106383,5.66781922 L12.5106383,5.49718363 Z" id="路径" fill="#AAC022"></path>
                        <path d="M10.7234043,5.47517733 L10.7234043,5.87234043 C10.7784926,6.21276596 11.3293761,6.49645389 11.6048178,6.55319149 C11.9353479,6.55319149 12.6514965,6.38297872 12.4862314,5.36170213 C12.4862314,5.36170213 11.8802596,5.47517729 11.7700829,5.53191489 C11.6048178,5.53191489 11.1090227,5.41843973 10.7234043,5.47517733 L10.7234043,5.47517733 Z" id="路径" fill="#BAC94E"></path>
                        <path d="M9.59148937,0.0616255179 C9.65106385,0.00825624243 10.1872341,-0.0451130017 10.1872341,0.0616255179 C10.1872341,0.114994793 10.1276596,0.275102588 10.1276596,0.328471833 C10.1276596,0.381841108 10.1872341,0.862164493 10.306383,2.67671948 C10.4255319,4.49127447 10.5446809,4.97159789 10.5446809,5.29181348 C10.5446809,5.29181348 10.7234043,5.82550614 10.7234043,5.93224466 C10.7234043,6.03898318 9.71063833,5.77213686 9.71063829,5.77213686 C9.71063826,5.77213686 9.82978722,4.38453598 9.82978725,4.06432039 C9.82978725,3.79747408 9.59148937,3.85084332 9.65106385,3.47725846 C9.65106385,3.05030435 9.71063833,2.24976537 9.59148937,1.87618051 C9.47234045,1.50259564 9.59148937,0.915533737 9.53191489,0.702056698 C9.59148937,0.541948903 9.47234042,0.168364037 9.59148937,0.0616255179 L9.59148937,0.0616255179 Z" id="路径" fill="#538D02"></path>
                        <path d="M8.90949507,6.10061838 C8.90949507,6.10061838 8.05589075,6.19606608 7.78913941,5.95744681 C7.78913941,5.95744681 7.20228645,6.38696151 7.14893617,6.72102852 C7.14893617,7.00737165 7.20228645,7.48461023 7.41568754,7.62778177 C7.62908863,7.77095331 8.48269292,7.9141249 9.06954588,7.19826706 C9.60304859,6.48240922 10.2432518,6.14834221 10.7234043,6.24378995 C10.670054,6.24378995 9.60304859,5.90972294 8.90949507,6.10061838 L8.90949507,6.10061838 Z" id="路径" fill="#BAC94E"></path>
                        <path d="M10.3262411,5.99396755 C10.3262411,5.99396755 10.5744681,5.88212277 10.6737589,6.04988995 C10.822695,6.21765713 10.8723404,6.32950191 11.3191489,6.44134668 C11.3191489,6.44134668 9.929078,6.2176571 9.53191489,6.55319149 C9.53191489,6.55319149 9.87943263,6.10581236 10.3262411,5.99396755 L10.3262411,5.99396755 Z" id="路径" fill="#718D00"></path>
                        <path d="M11.9840414,8.95857323 C11.8761883,9.49945669 11.552629,12.2579623 14.3568097,11.8793439 C17.1609903,11.5007254 16.0285328,8.63404316 14.6264424,7.66045294 C13.4939849,6.79503941 12.3615273,6.90321612 11.9840414,8.95857323 Z" id="路径" fill="#E94645"></path>
                        <path d="M16.2579932,9.06469656 C16.2579932,9.06469656 16.8350892,8.77551227 17.0915763,9.06469656 C17.3480634,9.35388086 17.3480634,10.0768416 17.0274545,10.125039 C16.7068456,10.1732364 15.6808972,9.54667039 16.2579932,9.06469656 Z" id="路径" fill="#CF0A05"></path>
                    </g>
                </g>
            </g>
        </g>
    </g>
</svg>