<?xml version="1.0" encoding="UTF-8"?>
<svg width="20px" height="20px" viewBox="0 0 20 20" version="1.1" xmlns="http://www.w3.org/2000/svg" xmlns:xlink="http://www.w3.org/1999/xlink">
    <!-- Generator: Sketch 60.1 (88133) - https://sketch.com -->
    <title>编组</title>
    <desc>Created with Sketch.</desc>
    <g id="11-我的绿色种植" stroke="none" stroke-width="1" fill="none" fill-rule="evenodd">
        <g id="1种植流程图-开启" transform="translate(-337.000000, -68.000000)" fill="#00B459" fill-rule="nonzero">
            <g id="编组-9" transform="translate(0.000000, 53.000000)">
                <g id="编组" transform="translate(337.000000, 15.000000)">
                    <path d="M10,20 C4.4859375,20 0,15.5140625 0,10 C0,4.4859375 4.4859375,0 10,0 C15.5140625,0 20,4.4859375 20,10 C20,15.5140625 15.5140625,20 10,20 Z M10,1.1765625 C5.13459821,1.1765625 1.1765625,5.13482143 1.1765625,10 C1.1765625,14.8651786 5.13459821,18.8234375 10,18.8234375 C14.8654018,18.8234375 18.8234375,14.8654018 18.8234375,10 C18.8234375,5.13459821 14.8654018,1.1765625 10,1.1765625 Z" id="形状"></path>
                    <path d="M14.7058036,10.5881696 L5.29419643,10.5881696 C4.96941964,10.5881696 4.70602679,10.3247768 4.70602679,10 C4.70602679,9.67522321 4.96941964,9.41183036 5.29419643,9.41183036 L14.7060268,9.41183036 C15.0308036,9.41183036 15.2941964,9.67522321 15.2941964,10 C15.2941964,10.3247768 15.0308036,10.5881696 14.7058036,10.5881696 L14.7058036,10.5881696 Z" id="路径"></path>
                    <path d="M11.3783482,13.915625 C11.2279018,13.915625 11.0772321,13.8582589 10.9625,13.7433036 C10.7328125,13.5136161 10.7328125,13.1410714 10.9625,12.9116071 L13.8738839,10 L10.9622768,7.08816964 C10.7325893,6.85848214 10.7325893,6.4859375 10.9622768,6.25647321 C11.1917411,6.02678571 11.5645089,6.02678571 11.7939732,6.25647321 L15.1216518,9.58415179 C15.2319196,9.69441964 15.2939732,9.84419643 15.2939732,10 C15.2939732,10.1558036 15.2319196,10.3055804 15.1216518,10.4158482 L11.7941964,13.7433036 C11.6794643,13.8582589 11.5287946,13.915625 11.3783482,13.915625 L11.3783482,13.915625 Z" id="路径"></path>
                </g>
            </g>
        </g>
    </g>
</svg>