<?xml version="1.0" encoding="UTF-8"?>
<svg width="13px" height="12px" viewBox="0 0 13 12" version="1.1" xmlns="http://www.w3.org/2000/svg" xmlns:xlink="http://www.w3.org/1999/xlink">
    <!-- Generator: Sketch 60.1 (88133) - https://sketch.com -->
    <title>编组</title>
    <desc>Created with Sketch.</desc>
    <g id="4-农场" stroke="none" stroke-width="1" fill="none" fill-rule="evenodd">
        <g id="6农场-详情页" transform="translate(-276.000000, -293.000000)" fill="#6C7B8A" fill-rule="nonzero">
            <g id="编组" transform="translate(276.000000, 293.000000)">
                <path d="M9.35929777,1.31489658 L11.2314382,1.31489658 C11.9336664,1.31489658 12.48,1.7792238 12.48,2.39832675 L12.48,10.9165698 C12.48,11.5356728 11.9336664,12 11.2314382,12 L1.24856178,12 C0.546333558,12 0,11.5356728 0,10.9165698 L0,2.39972112 C0,1.78061817 0.546333558,1.31629096 1.24856178,1.31629096 L3.12070223,1.31629096 L3.12070223,0.464327214 C3.12070223,0.231466419 3.27659689,0 3.58838623,0 C3.82293045,0 4.05607022,0.154775738 4.05607022,0.464327214 L4.05607022,1.31629096 L8.50257934,1.31629096 L8.50257934,0.464327214 C8.50257934,0.231466419 8.658474,0 8.97026334,0 C9.20480756,0 9.43794733,0.154775738 9.43794733,0.464327214 L9.43794733,1.31629096 L9.35929777,1.31629096 L9.35929777,1.31489658 Z M9.35929777,2.16686033 L9.35929777,3.01882408 C9.35929777,3.25168487 9.20340311,3.48315129 8.89161377,3.48315129 C8.65706955,3.48315129 8.42392978,3.32837555 8.42392978,3.01882408 L8.42392978,2.16686033 L3.97742066,2.16686033 L3.97742066,3.01882408 C3.97742066,3.25168487 3.821526,3.48315129 3.50973666,3.48315129 C3.27519244,3.48315129 3.04205267,3.32837555 3.04205267,3.01882408 L3.04205267,2.16686033 L1.40445645,2.16686033 C1.01401756,2.16686033 0.780877785,2.32163607 0.780877785,2.7092726 L0.780877785,10.6084127 C0.780877785,10.8412735 1.01542201,11.0727399 1.40445645,11.0727399 L10.9196489,11.0727399 C11.3100878,11.0727399 11.5432275,10.9179642 11.5432275,10.5303277 L11.5432275,2.7092726 C11.464578,2.32163607 11.1527887,2.16686033 10.8409993,2.16686033 L9.35929777,2.16686033 Z M3.353842,4.87752731 L9.126158,4.87752731 C9.36070223,4.87752731 9.593842,5.03230304 9.593842,5.34185452 C9.593842,5.651406 9.43794733,5.80618173 9.126158,5.80618173 L3.353842,5.80618173 C3.11929777,5.80618173 2.886158,5.651406 2.886158,5.34185452 C2.886158,5.03230304 3.11929777,4.87752731 3.353842,4.87752731 Z M3.353842,7.51010923 L9.126158,7.51010923 C9.36070223,7.51010923 9.593842,7.66488496 9.593842,7.97443644 C9.593842,8.20729723 9.43794733,8.43876365 9.126158,8.43876365 L3.353842,8.43876365 C3.11929777,8.43876365 2.886158,8.28398792 2.886158,7.97443644 C2.96340311,7.66488496 3.11929777,7.51010923 3.353842,7.51010923 Z" id="形状"></path>
            </g>
        </g>
    </g>
</svg>