<?xml version="1.0" encoding="UTF-8"?>
<svg width="20px" height="20px" viewBox="0 0 20 20" version="1.1" xmlns="http://www.w3.org/2000/svg" xmlns:xlink="http://www.w3.org/1999/xlink">
    <!-- Generator: Sketch 60.1 (88133) - https://sketch.com -->
    <title>编组</title>
    <desc>Created with Sketch.</desc>
    <g id="9-我的租赁" stroke="none" stroke-width="1" fill="none" fill-rule="evenodd">
        <g id="9编辑已登记的农场-农户（修改0630）" transform="translate(-331.000000, -1331.000000)" fill="#FFFFFF" fill-rule="nonzero">
            <g id="编组-2" transform="translate(15.000000, 1020.000000)">
                <g id="编组-24" transform="translate(0.000000, 301.000000)">
                    <g id="编组" transform="translate(316.000000, 10.000000)">
                        <path d="M9.98221382,19.9304522 C4.47959359,19.9304522 0.0192881525,15.4701467 0.0192881525,9.96913006 C0.0192881525,4.46650983 4.47959359,0.00620441229 9.98221382,0.00620441229 C15.4832305,0.00620441229 19.9435359,4.46650985 19.9435359,9.96913006 C19.9435359,15.4701467 15.4832305,19.9304522 9.98221382,19.9304522 Z M9.98221382,1.25217145 C5.16671957,1.25217145 1.26525519,5.15363583 1.26525519,9.96913006 C1.26525519,14.7830208 5.16671957,18.6844851 9.98221382,18.6844851 C14.7961045,18.6844851 18.6975689,14.7830208 18.6975689,9.96913006 C18.6975689,5.15363581 14.7961045,1.25217145 9.98221382,1.25217145 Z M10.52983,14.036563 C10.2852869,14.2811061 9.8924144,14.2811061 9.64947488,14.036563 C9.4049318,13.7936235 9.4049318,13.400751 9.64947488,13.1562079 L12.214371,10.5913118 L5.62373451,10.5913118 C5.28011302,10.5913118 5.00155276,10.3127516 5.00155276,9.96913006 C5.00155276,9.62356263 5.27977062,9.34534475 5.62373451,9.34534477 L12.214371,9.34534477 L9.64947488,6.78044864 C9.4049318,6.53590556 9.4049318,6.14303307 9.64947488,5.90009355 C9.8924144,5.65555047 10.2852869,5.65555047 10.52983,5.90009355 L14.0504486,9.42071214 C14.2003815,9.57064511 14.246083,9.77590095 14.2124082,9.96993184 C14.246083,10.1615574 14.2003815,10.3668132 14.0504486,10.5167462 L10.52983,14.036563 L10.52983,14.036563 Z" id="形状"></path>
                    </g>
                </g>
            </g>
        </g>
    </g>
</svg>