<?xml version="1.0" encoding="UTF-8"?>
<svg width="32px" height="31px" viewBox="0 0 32 31" version="1.1" xmlns="http://www.w3.org/2000/svg" xmlns:xlink="http://www.w3.org/1999/xlink">
    <!-- Generator: Sketch 60.1 (88133) - https://sketch.com -->
    <title>编组</title>
    <desc>Created with Sketch.</desc>
    <g id="5-商城" stroke="none" stroke-width="1" fill="none" fill-rule="evenodd">
        <g id="1商城首页" transform="translate(-53.000000, -109.000000)" fill-rule="nonzero">
            <g id="编组-11" transform="translate(27.000000, 100.000000)">
                <g id="编组-2" transform="translate(18.000000, 0.000000)">
                    <g id="编组" transform="translate(8.000000, 9.000000)">
                        <path d="M14.0042679,20.2747938 C14.1724537,23.4871419 14.8564091,26.4724392 12.6513069,27.952474 C10.4910542,29.3988715 8.61484857,27.2376845 6.16681134,25.7240126 C4.22706887,26.1318631 2.08550347,25.0260417 0.915678048,22.8101942 C-0.261622299,20.5859375 -0.0934365355,17.9243978 1.16608796,16.2004937 C0.945577739,15.9482151 0.747492284,15.6622993 0.57930652,15.346951 C-0.646580826,13.0343967 0.149498457,9.96080187 2.35833816,8.48076714 C4.56717785,7.00493707 7.34784915,7.68188477 8.56999904,9.99864366 C8.75687211,10.3518338 8.89515818,10.7218424 8.98859471,11.1002604 C10.8610629,10.8311632 12.8718171,11.9327799 13.9930556,14.0561252 C15.0881318,16.1206055 15.0245949,18.559299 14.0042679,20.2747938 L14.0042679,20.2747938 Z" id="路径" fill="#4CAF50"></path>
                        <path d="M6.16307388,25.7240126 C4.2233314,26.1318631 2.08176601,25.0260417 0.911940586,22.8101942 C-0.265359761,20.5859375 -0.0971739969,17.9243978 1.1623505,16.2004937 C0.941840278,15.9482151 0.743754823,15.6622993 0.575569059,15.346951 C-0.646580826,13.0343967 0.149498457,9.96080187 2.35833816,8.48076714 C2.42561246,8.43451606 2.49662423,8.39667426 2.56389853,8.35883247 L12.6251447,27.9650879 C10.4761044,29.382053 8.60363619,27.2292752 6.16307388,25.7240126 Z" id="路径" fill="#79BC31"></path>
                        <path d="M30.7480951,15.2964952 C30.5799093,15.6118435 30.3780864,15.8935547 30.1575762,16.150038 C31.4245756,17.8697374 31.5927614,20.5228678 30.4079861,22.7429199 C29.2306858,24.9503581 27.077908,26.0561795 25.1269531,25.648329 C22.663966,27.1577962 20.7802855,29.3147786 18.6088204,27.8725857 C16.3887683,26.3967556 17.0801987,23.4198676 17.2483845,20.2117242 C16.2205826,18.4962294 16.1607832,16.0617405 17.2558594,14.0056695 C18.3808353,11.8907335 20.4028019,10.7891168 22.2864824,11.058214 C22.379919,10.679796 22.5219425,10.3097873 22.7088156,9.95659722 C23.9384404,7.64824761 26.7340615,6.97129991 28.9541136,8.44292535 C31.1779032,9.91875543 31.9777199,12.9881456 30.7480951,15.2964952 L30.7480951,15.2964952 Z" id="路径" fill="#79BC31"></path>
                        <path d="M30.7480951,15.2964952 C30.5799093,15.6118435 30.3780864,15.8935547 30.1575762,16.150038 C31.4245756,17.8697374 31.5927614,20.5228678 30.4079861,22.7429199 C29.2306858,24.9503581 27.077908,26.0561795 25.1269531,25.648329 C22.6751784,27.1535916 20.7952353,29.2979601 18.6312452,27.8851997 L28.7448158,8.32099067 C28.8120901,8.36303711 28.8831019,8.40087891 28.9503762,8.44292535 C31.1779032,9.91875543 31.9777199,12.9881456 30.7480951,15.2964952 L30.7480951,15.2964952 Z" id="路径" fill="#4CAF50"></path>
                        <path d="M25.9903067,13.7828234 C24.7120949,12.925076 17.1250482,24.7485352 16.6167535,25.7113987 C16.1121962,26.6784668 16.7363522,28.1542969 18.014564,29.0162489 C19.2927758,29.8739963 20.7391734,29.7899034 21.2437307,28.8228353 C21.7520255,27.8557671 27.2685185,14.6405707 25.9903067,13.7828234 L25.9903067,13.7828234 Z" id="路径" fill="#DBF4B8"></path>
                        <path d="M22.809727,18.6770291 C23.0638744,19.068061 22.955488,19.6356879 22.5705295,19.9468316 C22.185571,20.2579753 21.6698013,20.190701 21.4156539,19.7996691 C21.1615066,19.4086372 18.7508439,15.1283095 19.1358025,14.8171658 C19.520761,14.5060221 22.5593171,18.2859972 22.809727,18.6770291 Z M23.975815,19.433865 C23.5534819,19.3707954 23.1647859,19.740804 23.1049865,20.2579753 C23.0451871,20.7751465 23.344184,21.2460666 23.7665172,21.3049316 C24.1888503,21.3680013 28.6476418,21.7001682 28.7074412,21.1872016 C28.7635031,20.6658257 24.3981481,19.49273 23.975815,19.433865 L23.975815,19.433865 Z" id="形状" fill="#E4F4CB"></path>
                        <path d="M24.9213927,13.8837348 C24.9550299,16.8101671 23.5646943,19.3413628 21.55394,20.4555935 C19.9879437,23.9622667 19.0946904,27.5866699 15.9589603,27.632921 C12.8905044,27.6791721 12.0832128,24.1094293 10.3153935,20.8298069 C8.04301698,19.930013 6.37984664,17.2937012 6.34247203,14.152832 C6.30509742,10.999349 7.92341821,8.30417209 10.1920573,7.34551324 C10.0986208,6.92504883 10.0388214,6.49197049 10.0350839,6.04207357 C9.9977093,2.75824653 12.5092834,0.0588650174 15.6450135,0.0126139323 C18.7807436,-0.0336371528 21.3521171,2.59006076 21.3894917,5.8738878 C21.3969666,6.37424045 21.3409047,6.86197917 21.2362558,7.32869466 C23.3591339,8.33780924 24.8877556,10.8774143 24.9213927,13.8837348 Z" id="路径" fill="#4CAF50"></path>
                        <path d="M8.47282504,18.7358941 C8.22241512,19.126926 8.32706404,19.6987576 8.71202257,20.0099013 C9.09324363,20.3210449 9.60901331,20.2537706 9.85942323,19.8627387 C10.1098331,19.4717068 12.5130208,15.1829698 12.1280623,14.8718262 C11.7468412,14.5564779 8.72323495,18.3448622 8.47282504,18.7358941 L8.47282504,18.7358941 Z M7.314212,19.49273 C7.73280768,19.4296604 8.12150367,19.7996691 8.18130305,20.3168403 C8.23736497,20.8340115 7.94584298,21.3049316 7.52350984,21.3680013 C7.10491416,21.431071 2.66854745,21.7674425 2.60874807,21.2460666 C2.54894869,20.7288954 6.89187886,19.5557997 7.314212,19.49273 L7.314212,19.49273 Z" id="形状" fill="#E4F4CB"></path>
                        <path d="M5.31093268,13.8290744 C6.58166956,12.9671224 14.1313416,24.8158095 14.6358989,25.7828776 C15.1367188,26.7499457 14.5163002,28.2341851 13.2418258,29.0919325 C11.9710889,29.9538845 10.5321663,29.865587 10.027609,28.8985189 C9.52678916,27.9356554 4.04019579,14.6910265 5.31093268,13.8290744 L5.31093268,13.8290744 Z" id="路径" fill="#DBF4B8"></path>
                        <path d="M15.7347126,27.6245117 C12.8568673,27.4857585 12.0421007,24.029541 10.319131,20.8382161 C8.04675444,19.9384223 6.3835841,17.3021105 6.34620949,14.1612413 C6.30883488,11.0077582 7.92715567,8.31258138 10.1957948,7.35392253 C10.1023582,6.93345812 10.0425588,6.50037977 10.0388214,6.05048286 C10.0014468,2.76665582 12.5130208,0.0672743056 15.648751,0.0210232205 C15.6786507,0.0210232205 15.7048129,0.0252278646 15.7347126,0.0252278646 L15.7347126,27.6245117 Z" id="路径" fill="#85D443"></path>
                        <path d="M15.4357157,10.7386098 C17.1250482,10.7050239 18.5751833,27.2334798 18.5826887,28.5116916 C18.5901331,29.7899034 17.2222222,30.8494737 15.5328897,30.8873155 C13.8435571,30.9209527 12.4681713,29.9160428 12.4606641,28.6378309 C12.4532215,27.3596191 13.7463831,10.7722982 15.4357157,10.7386098 Z" id="路径" fill="#EFFBDD"></path>
                        <path d="M16.0710841,17.6048448 C15.6225887,17.8318956 15.4394531,18.4583876 15.6599633,19.0134006 C15.8804736,19.564209 16.4224055,19.8291016 16.8671634,19.6062554 C17.3119213,19.3792046 21.8529369,16.6882324 21.6361642,16.1332194 C21.4156539,15.5782064 16.5195795,17.3777941 16.0710841,17.6048448 Z M14.5461998,17.6090495 C14.9909578,17.815077 15.1890432,18.4289551 14.9834828,18.9797635 C14.7779225,19.5263672 14.2509404,19.8038737 13.802445,19.5936415 C13.3576871,19.3876139 8.80919657,16.8732368 9.01475694,16.326633 C9.21657986,15.7758247 14.0977045,17.3988173 14.5461998,17.6090495 L14.5461998,17.6090495 Z" id="形状" fill="#E4F4CB"></path>
                    </g>
                </g>
            </g>
        </g>
    </g>
</svg>